<?xml version="1.0" encoding="UTF-8" standalone="no"?>
<!-- Created with Inkscape (http://www.inkscape.org/) -->

<svg
   version="1.1"
   id="svg2675"
   xml:space="preserve"
   width="368.31284"
   height="626.84387"
   viewBox="0 0 368.31284 626.84387"
   sodipodi:docname="desserts.svg"
   inkscape:version="1.1.2 (0a00cf5339, 2022-02-04)"
   xmlns:inkscape="http://www.inkscape.org/namespaces/inkscape"
   xmlns:sodipodi="http://sodipodi.sourceforge.net/DTD/sodipodi-0.dtd"
   xmlns="http://www.w3.org/2000/svg"
   xmlns:svg="http://www.w3.org/2000/svg"><defs
     id="defs2679"><clipPath
       clipPathUnits="userSpaceOnUse"
       id="clipPath2705"><path
         d="m 4801.19,1983.35 c -82.71,0.88 -164.64,5.13 -245.6,12.59 -4.79,21.08 -12.16,41.48 -23.11,61 51.45,34.03 17.94,140.99 8.16,212.64 -7.96,58.51 -41.39,129.28 -32.7,174.43 5,26.14 44.33,41.7 65.41,62.74 38.14,37.99 83.61,104.02 125.42,133.55 -127.01,-49.27 -258.61,-93.96 -299.88,-228.96 4.64,-16.29 31.19,-10.63 40.88,-21.81 35.14,-112.89 49.43,-248.62 57.34,-387.63 -81.39,9.11 -161.87,21.49 -241.16,36.98 13.03,28.83 27.01,56.7 42.06,83.48 1.37,9.53 4.07,17.79 2.76,30 48.1,54.59 68.85,136.5 92.68,215.36 -84.1,-83.09 -157.19,-177.21 -207.19,-294.43 0.75,-8.55 4.31,-14.26 6.51,-21.35 -92.9,20.26 -184.17,44.82 -273.63,73.47 11.37,55.43 20.49,111.97 29.95,165.98 -30.9,-44.64 -57.13,-95.18 -80.29,-149.36 -1181.06,401.7 -2030.83,1520.18 -2030.83,2837.14 0,347.3 59.38,680.65 168.07,990.83 h 5655.84 c 108.68,-310.18 168.06,-643.53 168.06,-990.83 0,-1631.85 -1304.6,-2958.93 -2927.66,-2995.23 2.58,34.03 1.24,72.62 9.12,108.42 7.12,32.42 18.69,69.89 30,103.61 51.55,153.82 78.86,360.98 87.21,550.63 1.17,26.64 2.07,54.22 0,79.07 -12.72,152.7 12.58,322.57 5.44,479.79 -7.8,171.96 -50.5,328.43 -70.87,485.21 141.63,130.98 245.34,325.21 368.02,479.8 43.58,54.9 77.58,115.51 114.48,160.83 11.04,13.49 30.83,17.45 38.18,32.71 7.65,15.91 4.25,47.97 19.1,59.95 10.44,8.45 24.72,10.98 40.7,10.98 11.81,0 24.56,-1.38 37.36,-2.76 12.81,-1.38 25.67,-2.76 37.74,-2.76 16.27,0 31.07,2.51 42.3,10.9 14.48,10.84 17.18,29.2 29.97,32.72 13.11,3.61 27.32,4.86 42.09,4.86 16.37,0 33.42,-1.53 50.44,-3.06 17.02,-1.53 34,-3.06 50.22,-3.06 23.91,0 46.17,3.33 64.44,14.89 14.53,9.21 43.89,41.11 38.15,73.6 -6.43,36.43 -91.8,49.06 -133.18,49.06 -0.13,0 -0.26,0 -0.39,0 -150.94,-0.27 -325.85,-3.67 -491.68,-3.67 -128.37,0 -251.3,2.04 -353.38,9.15 1.66,46.57 -1.65,88.44 0,128.09 17.63,-9.62 33.59,-13.75 47.6,-13.75 75.75,0 94.82,120.53 15.08,144.62 45.42,30.02 121.06,29.79 163.56,62.7 -15.7,1.54 -34.43,0.08 -40.88,10.9 23.51,16.17 38.31,49.11 29.97,81.78 9.05,-0.09 18.2,-0.28 27.17,-0.28 29.2,0 56.37,2.06 70.98,16.64 6.11,12.12 -7.8,20.67 0,32.69 5.15,2 10.22,2.75 15.21,2.75 7.51,0 14.85,-1.7 22.03,-3.41 7.18,-1.71 14.2,-3.41 21.1,-3.41 3.3,0 6.57,0.39 9.82,1.36 14.92,6.48 -0.03,27.81 10.89,35.45 5.79,0.72 11.49,1.06 17.1,1.06 43.85,0 81.73,-20.92 105.59,-44.68 -9.7,-9.39 -37.28,-0.94 -40.91,-16.38 86.42,-6.28 134.8,-50.57 174.46,-103.57 -59.95,0.97 -120.34,25 -182.62,32.72 5.13,4.88 14.42,5.6 24.43,5.6 2.11,0 4.25,-0.03 6.39,-0.06 2.14,-0.03 4.29,-0.07 6.4,-0.07 16.64,0 31.3,2.01 28.19,21.78 -28.29,1.51 -62,3.09 -98.28,3.09 -51.12,0 -107.36,-3.13 -160.7,-14 16.09,-26.63 72.58,-12.83 95.41,-32.72 -38.09,-47.72 9.74,-57.55 78.65,-57.55 24.15,0 50.9,1.21 77.43,2.41 26.54,1.21 52.86,2.42 76.2,2.42 14.91,0 28.6,-0.49 40.33,-1.79 4.35,-0.49 8.82,-0.67 13.33,-0.67 6.55,0 13.2,0.38 19.76,0.76 6.56,0.38 13.02,0.76 19.21,0.76 21.06,0 38.85,-4.39 45.82,-28.11 -1.11,0.03 -2.21,0.04 -3.3,0.04 -83.09,0 -94.84,-76.03 -67.57,-144.53 -18.52,-21.62 -58.13,-34.05 -96.58,-34.05 -40.42,0 -79.55,13.74 -91.52,44.97 -7.17,18.77 3.66,44.58 0,65.4 -8.36,47.81 -51.67,75.71 -92.61,75.71 -48.4,0 -93.5,-39 -73.66,-130.24 -49.06,-11.35 -89.74,-43.11 -140.32,-43.11 -17.25,0 -35.66,3.69 -55.94,13.15 14.43,-32.49 57.86,-48.52 101.68,-48.52 48.93,0.01 98.32,20.01 108.22,59.43 18.43,-9.37 42.13,-14.49 65.44,-14.49 25.77,0 51.05,6.26 68.12,19.95 21,-49.03 90.18,-86.29 152.99,-86.29 41.55,0 80.32,16.31 100.51,56.29 51.5,8.49 85.88,34.1 84.55,95.42 -11.22,27.86 -32.38,45.77 -49.08,68.15 7.01,0.26 3.89,10.63 10.9,10.89 76.63,-39.41 43.59,-172.19 59.98,-261.69 8.3,-4.12 15.61,-5.99 22.02,-5.99 48.17,0.01 45.68,105.37 32.51,153.2 -22.83,82.71 -124.25,154.56 -193.55,171.74 45.74,78.29 -54.95,113.9 -125.42,119.95 41.8,41.96 -12.42,78.04 -46.34,92.68 39.61,84.75 -45.58,132.43 -131.68,132.43 -82.45,0 -165.73,-43.77 -140.9,-140.63 -53.56,-7.32 -81.11,-40.63 -92.68,-89.95 -54.8,-14.28 -115.65,-33.94 -98.15,-111.74 -43.58,-32.75 -78.97,-63.78 -109.05,-109.06 -39.09,-58.89 15.8,-100.9 0,-166.29 -6.26,-25.9 -56.86,-42.59 -54.5,-70.88 -6.65,0.02 -13.67,0.18 -20.7,0.18 -30.25,0 -60.63,-2.95 -61.09,-32.9 -0.86,-54.23 85.15,-60 177,-60 12.43,0 24.97,0.11 37.41,0.21 12.44,0.11 24.78,0.21 36.83,0.21 55.11,0 104.06,-2.21 127.66,-16.73 -5.93,-15.88 -10.93,-32.67 -16.34,-49.09 33.71,-13.76 25.47,-56.06 46.34,-79.04 -28.92,-52.47 -79.89,-83.81 -125.41,-122.64 -79.08,-67.58 -116.86,-165.67 -193.54,-248.09 -48.22,-51.83 -129.26,-116.14 -193.53,-179.93 -21.01,-20.83 -36.24,-42.58 -57.27,-57.24 -57.73,-40.21 -160.29,-41.86 -220.8,-79.05 -36.12,-22.22 -56.62,-76.61 -3.16,-76.61 7,0 15.29,0.94 24.96,3 10.37,-11.32 25.54,-19.51 43.33,-19.51 6.17,0 12.67,0.98 19.38,3.17 82.78,26.93 116.93,132.48 190.83,163.53 83.56,35.21 117.94,81.96 166.29,130.88 76.59,-25.57 -16.49,-179.87 59.95,-209.9 71.29,-184.74 81.39,-494.31 70.87,-733.31 -1.82,-41.83 -13.6,-89.13 -5.46,-111.78 4.56,-12.55 33.25,-16.62 38.2,-32.7 3.91,-12.72 -8.31,-27.83 -10.93,-38.14 -29.39,-117.01 -30.88,-254.44 -49.04,-384.39 -17.2,-122.94 -45.03,-248.55 -76.35,-357.12 -13.09,-45.36 -33.9,-90.37 -44.77,-133.54 m -642.2,1597.42 c 17.27,-38.58 62.5,-66.34 62.73,-117.22 0.24,-55.69 -67.11,-126.44 -24.53,-193.56 9.17,-14.48 27.06,-10.56 40.88,-29.97 -26.5,-43.33 -37.63,-88.82 -59.98,-133.58 -31.37,-62.76 -105.18,-128.35 -109.02,-201.69 -1.55,-29.18 22.19,-47.64 21.77,-73.62 -0.51,-35.56 -47.57,-100.72 -59.94,-141.75 -36.24,-120 -39.85,-261.86 -70.88,-389.85 9.84,-7.37 5.57,-28.91 16.34,-35.42 0.2,0 0.4,0 0.61,0 29.25,0 41.96,18.37 48.46,35.42 35.98,94.48 35.62,211.5 68.15,316.24 26.34,84.85 59.56,192.12 79.07,286.19 62.89,-4.79 99.43,-67.21 149.93,-92.63 53.74,-27.03 175.83,-48.76 287.59,-48.76 94.77,0 182.11,15.63 214.01,56.9 8.82,11.45 16.24,32.78 5.41,51.81 -37.99,-5.24 -75.6,-7.43 -112.95,-7.43 -174.97,0 -344.16,47.92 -519.45,53.78 -3.23,17.68 -30.83,10.95 -32.73,29.98 69.82,18.09 97.34,88.74 122.68,155.41 26.91,70.85 24.38,192.79 10.87,258.92 -4.76,23.48 -22.88,41.5 -24.5,62.74 -3.79,49.63 0.89,95.46 -16.37,139 -109.13,82.24 -162.84,396.06 2.73,455.26 105.72,87.81 255.93,131.16 417.09,163.56 71.19,59.25 147.82,118.99 231.71,174.46 78.48,51.9 175.57,101.56 209.89,185.36 -9.76,11.36 -20.87,16.64 -35.16,16.64 -8.75,0 -18.69,-1.98 -30.25,-5.75 -74.02,-24.09 -155.83,-98.71 -223.56,-147.18 -81.78,-58.53 -122.11,-154.02 -234.43,-171.76 -5.95,-11.28 -16.37,-18.14 -24.53,-27.24 -10.95,-3.47 -26.69,-8.62 -41.79,-8.62 -6.29,0 -12.48,0.89 -18.17,3.18 16.34,152.12 -94.1,221.14 -119.95,348.92 -22.86,31.67 -60.72,48.32 -98.12,65.42 -8.2,-7.52 9.15,-16.02 0,-24.52 -3.22,0.51 -6.41,0.74 -9.56,0.74 -13.57,0 -26.4,-4.27 -38.36,-8.53 -11.97,-4.27 -23.07,-8.54 -33.21,-8.54 -6.02,0 -11.7,1.51 -17.01,5.41 24.92,21.43 53.45,39.21 92.68,46.33 -30.96,50.44 -66.78,96.2 -92.68,152.69 -9.39,20.44 -10.24,44.96 -30,59.94 67.48,91.97 -7.8,200.5 -107.88,200.5 -6.65,0 -13.41,-0.48 -20.24,-1.48 -7.45,13.41 -19.95,21.83 -29.98,32.7 -190.8,-13.73 -273.12,-159.33 -400.72,-245.33 -35.99,-32.28 -4.75,-94.31 -16.37,-139.03 -29.68,-114.4 -4.63,-191.01 132.93,-191 3.76,0 7.63,0.05 11.56,0.17 7.99,-16.07 21.03,-21.94 35.42,-21.94 19.73,0 41.99,11.03 57.28,21.94 61.08,-50.94 112.37,-107.64 130.83,-193.56 2.47,-11.54 10.46,-33.43 16.34,-43.61 23.35,-40.15 26.06,-28.66 8.2,-70.87 -6.76,-15.96 -4.33,-43.1 -16.35,-65.42 -36,-66.85 -126.18,-114.17 -92.68,-182.63 -21.24,-40.6 -72.76,-50.85 -119.95,-65.44 -23.53,23.61 -57.6,53.65 -98.52,53.65 -12.86,0 -26.41,-2.97 -40.5,-10.04 -37.48,-27.4 -21.5,-105.65 19.07,-117.19 -18.05,48.5 -9.1,66.08 5.69,66.08 28.08,0 77.18,-63.36 2.48,-98.81 -13.22,6.16 -26,8.92 -38.11,8.92 -51.56,0 -90.85,-50 -99.35,-99.99 -8.49,-49.99 13.79,-99.99 85.39,-99.98 2.74,0 5.56,0.07 8.44,0.22 -55.31,-88.3 -33.97,-151.45 32.73,-204.43 71.7,12.88 44.46,100.51 89.95,130.82 11.08,7.4 28.97,1.96 43.61,8.19 26.16,11.14 40.85,52.27 76.34,59.98 20.41,-36.16 69.95,-50.65 109.02,-59.98 -1.39,-61.44 -112.71,-103.06 -100.82,-177.19 5.46,-34.28 56.95,-60.9 98.09,-68.14 27.68,19.84 43.35,134.51 51.8,174.46 5.83,27.52 10.34,37.99 14.27,37.99 12.29,0 18.96,-102.54 43.01,-106.13 1.45,-0.05 2.88,-0.06 4.31,-0.06 85.35,0 142.6,70.7 115.64,147.27 -30.58,9.43 -77.61,2.35 -89.98,29.95 10.69,24.74 51.96,18.94 73.58,32.73 m 561.59,258.98 c -3.43,-1.11 -5.57,-3.53 -5.47,-8.18 -24.17,-203.94 30.97,-365.8 24.54,-575.18 -1.35,-43.56 -70.36,-188.95 -2.74,-190.83 0.53,-0.02 1.04,-0.02 1.55,-0.02 42.7,0 29.84,50.25 33.91,95.43 4.59,51.34 26.4,97.01 29.98,147.22 12.24,170.78 -48.42,394.93 -81.77,531.56 m -124.87,-644.38 c -20.43,0 -35.06,-23.59 -36.44,-47.18 -1.37,-23.59 10.52,-47.18 43.14,-47.18 0.31,0 0.62,0.01 0.94,0.01 25.31,0.31 37.01,28.92 32.68,65.39 -14.43,20.89 -28.36,28.96 -40.32,28.96 m 18.27,318.75 c -19.81,0 -39.68,-11.94 -40.63,-31.47 -1.23,-25.64 27.69,-48.48 21.81,-76.31 5.32,-1.97 10.31,-2.87 14.95,-2.87 42.18,0 55.55,74.54 34.12,98.23 -7.73,8.55 -18.98,12.42 -30.25,12.42 m -566.74,-50.57 c -4.28,34.06 20.82,57.22 45.25,57.22 16.47,0 32.64,-10.55 39.26,-35.41 -22.55,-11.26 -60.26,-21.24 -84.51,-21.81 m -68.15,87.25 c -5.36,16.38 -21.97,19.47 -41.21,19.47 -5.82,0 -11.89,-0.28 -17.95,-0.57 -6.07,-0.28 -12.14,-0.56 -17.97,-0.56 -21.36,0 -39.55,3.79 -42.82,25.29 2.68,-0.27 5.28,-0.39 7.79,-0.39 21.15,0 36.66,9.04 50.18,18.09 13.51,9.05 25.04,18.1 38.22,18.1 1.54,0 3.1,-0.13 4.69,-0.39 20.26,-3.34 43.08,-36.85 73.57,-36.85 3.53,0 7.17,0.45 10.92,1.44 -21.91,-14.43 -64.75,-7.96 -65.42,-43.63 m -218.07,21.78 c 6.42,18.04 -6.52,40.3 -2.73,60 21.96,-7.48 30.33,-52.48 2.73,-60 m -125.37,54.36 c -27.35,0 -41,13.68 -62.72,19.25 -9.44,42.46 7.34,60.17 28.8,60.17 22.89,0 51.11,-20.18 58.44,-51.98 -4.56,-10.9 -9.25,-21.65 -19.1,-27.26 -1.87,-0.12 -3.67,-0.18 -5.42,-0.18 m 384.69,32.83 c -53.76,0.01 -37.55,69.95 -60.32,100.9 31.87,14.6 68.32,52.64 106.15,52.64 6.38,0 12.8,-1.08 19.24,-3.54 -15.13,-55.75 -53.74,-88.02 -62.71,-149.95 -0.8,-0.03 -1.59,-0.05 -2.36,-0.05 m -153.86,17.68 c -23.2,0 -50.92,15.67 -50.95,39.61 7.62,1.13 17.3,1.82 27.47,1.82 20.33,0 42.63,-2.73 54.31,-10.01 2.29,-22.08 -12.92,-31.42 -30.83,-31.42 m -27.64,94.98 c -28.59,0 -44.88,12.63 -47.22,25.27 -2.34,12.64 9.26,25.27 36.42,25.27 9.4,0 20.66,-1.51 33.84,-5.05 6.57,-11.29 8.76,-35.96 -2.74,-43.59 -7.33,-1.31 -14.1,-1.9 -20.3,-1.9 m 95.43,70.23 c -20.05,0 -28.07,24.28 -31.52,43.42 2.81,2.68 5.52,5.37 8.2,8.18 13.4,-14.77 18.5,-37.82 35.41,-49.05 -4.46,-1.76 -8.47,-2.55 -12.09,-2.55 m 88.43,29.79 c -12.8,2.48 -5.88,16.63 3.64,16.63 2.36,0 4.87,-0.87 7.29,-3 1.14,-9.32 -8.2,-8.19 -10.93,-13.63 m 907.77,16.37 c -8.63,38.4 -67.01,119.64 -49.07,155.39 20.06,39.87 78.74,85.69 117.21,128.12 38.25,42.16 92.44,76.65 119.95,125.38 26.65,47.2 23.82,111.76 51.81,155.38 46.68,-31.98 -41.18,-70.66 -13.66,-100.86 0.47,-0.01 0.93,-0.01 1.4,-0.01 61.34,0 55,67.65 83.14,100.87 -8.82,40.39 -62.89,49.69 -70.88,81.81 24.13,2.19 44.93,20.86 67.29,20.86 7.33,0 14.83,-2 22.66,-7.25 11.5,-23.74 13.64,-54.22 0,-76.33 6.13,-13.91 15.99,-18.23 27.66,-18.23 9.52,0 20.24,2.88 31.1,5.76 10.85,2.87 21.83,5.75 31.89,5.75 12.98,0 24.41,-4.79 32.01,-20.56 -136.78,-199.38 -268.35,-404.02 -452.51,-556.08 m -1009.65,76.92 c -15.18,0 -33.01,15.38 -26.22,29.37 2.49,0.44 4.73,0.65 6.78,0.65 18.82,0 20.34,-17.36 34.1,-22.45 -3.51,-5.35 -8.89,-7.57 -14.66,-7.57 m 345.46,177.73 c -6.05,0 -11.86,0.51 -17.31,1.59 -53.48,10.54 -89.41,48.3 -117.22,79.02 -6.57,101.14 21.06,193.77 27.24,280.82 43.79,-8.93 89.52,-37.95 134.62,-37.95 16.14,0 32.21,3.72 48.06,13.41 62.48,-50.5 87.89,-148.52 79.03,-237.16 -4.65,-46.57 -92.6,-99.73 -154.42,-99.73 m -213.58,176.05 c -8.55,2.35 -11.49,10.31 -21.8,10.9 -23,90.74 36.52,147.14 87.22,171.76 -13.1,-63.6 -20.42,-147.12 -65.42,-182.66 m -75.51,139.58 c -40.73,0 -99.63,55.65 -137.12,75.8 -10.1,5.4 -14.69,16.77 -21.8,27.23 33.86,33.39 32.42,49.53 46.33,95.4 27.12,89.5 201.92,46.07 237.17,133.59 6.14,2.83 12.24,4.12 18.24,4.12 63.09,0 113.08,-144.01 38.98,-170.42 -2.06,-13.9 17.43,-6.21 16.4,-19.06 -87.27,-4.03 -119.59,-120.03 -185.37,-144.48 -4.02,-1.5 -8.31,-2.18 -12.83,-2.18 m 1482.42,60.87 c -7.52,0 -14.89,2.76 -22.12,9.45 23.39,27.31 54.78,55.75 103.54,55.75 10.15,0 21.05,-1.23 32.78,-3.96 -42.3,-3.56 -79.82,-61.24 -114.2,-61.24 m -1249.32,0.29 c -21.89,0 -44.1,3.54 -56.74,9.16 7.65,10.96 23.68,14.4 41.96,14.4 25.32,0 54.95,-6.6 72.56,-8.92 -10.29,-10.41 -33.85,-14.64 -57.78,-14.64 m -413.83,3.7 c -60.26,43.48 -175.42,46.14 -174.49,141.76 81.32,13.74 48.41,140.39 89.98,190.82 13.65,16.57 52.69,35.9 85.47,35.9 7.39,0 14.46,-0.98 20.85,-3.2 16.9,-5.86 26.89,-8.88 33.79,-8.88 15.36,0 15.44,14.99 42.54,47.06 11.29,13.37 38.2,32.56 57.23,49.05 24.56,21.3 64.62,30.54 94.49,30.54 4.17,0 8.14,-0.18 11.84,-0.54 5.73,-10.5 -4.27,-23.65 2.74,-35.42 6.96,-12.1 29.94,-8.22 40.87,-16.37 -13.71,-45.44 6.19,-73.18 21.81,-103.61 -53.63,-25.82 -128.92,-8.86 -193.56,-38.14 -76.6,-34.72 -73.35,-156.54 -155.36,-188.11 5.38,-10.94 31.03,-1.64 38.14,-10.89 -20.26,-20.37 -0.51,-69.62 -16.34,-89.97 m 1511.09,78.49 c -16.91,0 -32.29,6.21 -41.79,22.37 4.82,16.65 25.13,20.89 48.83,20.89 12.29,0 25.49,-1.14 37.91,-2.28 12.42,-1.14 24.07,-2.28 33.25,-2.28 0.92,0 1.82,0.01 2.7,0.04 -14.93,-18.54 -50.4,-38.74 -80.9,-38.74 m 328.44,28.68 c -34.43,0 -69.36,2.96 -100.36,7.34 28.79,5.4 58.89,7.22 89.53,7.22 35.28,0 71.27,-2.41 106.76,-4.5 -28.72,-7.2 -62.09,-10.06 -95.93,-10.06 m -642.88,225.01 c -16.93,0 -33.92,4.67 -40.83,14.04 -1.99,25.67 23.33,37.4 47.59,37.4 13.25,0 26.18,-3.5 34.18,-10.14 0.29,-11.18 0.55,-22.34 -2.72,-29.99 -7.78,-7.53 -22.98,-11.31 -38.22,-11.31 m 678.25,4.87 c -14.68,0 -19.64,9.7 -26.67,17.34 8.77,8.39 20.62,25.7 33.42,25.7 4.23,0 8.56,-1.89 12.92,-6.61 2.86,-18.3 -4.25,-26.62 -10.9,-35.45 -3.27,-0.67 -6.17,-0.98 -8.77,-0.98 m -339.59,11.88 c -7.84,0 -17.07,0.84 -27.84,2.74 6.85,37.76 22.2,50.45 36.46,50.45 14.59,0 28.04,-13.3 30.04,-26.6 2,-13.29 -7.45,-26.59 -38.66,-26.59 m -238.65,168.85 c -1.9,0 -3.87,0.08 -5.84,0.15 -1.97,0.08 -3.95,0.16 -5.84,0.16 -1.29,0 -2.55,-0.04 -3.75,-0.14 -14.55,20.24 -11.42,59.59 11.38,59.59 4.51,0 9.79,-1.54 15.86,-5.07 -6.02,-22.36 -8.52,-31.64 0,-51.81 -2.53,-2.36 -6.91,-2.88 -11.81,-2.88 m 139.52,139.6 c -6.32,0 -12.58,0.73 -18.66,2.34 10.78,24.65 37.77,39 70.43,39 12.25,0 25.31,-2.02 38.6,-6.28 -22.63,-15.4 -57.43,-35.06 -90.37,-35.06 m 50.75,69.79 c -6.55,0 -13.33,0.21 -20.33,0.67 -15.11,23.77 8.24,42.83 16.33,60 6.79,-0.53 13.14,-0.74 19.16,-0.74 10.63,0 20.22,0.65 29.29,1.3 9.07,0.64 17.63,1.29 26.21,1.29 11.04,0 22.13,-1.07 34.4,-4.59 4.92,-13.81 4.92,-21.86 2.7,-38.15 -31.75,-10.76 -65.25,-19.78 -107.76,-19.78"
         id="path2703" /></clipPath><radialGradient
       fx="0"
       fy="0"
       cx="0"
       cy="0"
       r="1"
       gradientUnits="userSpaceOnUse"
       gradientTransform="matrix(2995.99,0,0,-2995.99,4833.96,4979.17)"
       spreadMethod="pad"
       id="radialGradient2713"><stop
         style="stop-opacity:1;stop-color:#ffffff"
         offset="0"
         id="stop2707" /><stop
         style="stop-opacity:1;stop-color:#ffffff"
         offset="0.248485"
         id="stop2709" /><stop
         style="stop-opacity:1;stop-color:#ffffff"
         offset="1"
         id="stop2711" /></radialGradient><clipPath
       clipPathUnits="userSpaceOnUse"
       id="clipPath2723"><path
         d="m 4833.97,1983.17 c -10.9,0 -21.9,0.06 -32.78,0.18 10.87,43.17 31.68,88.18 44.77,133.54 31.32,108.57 59.15,234.18 76.35,357.12 18.16,129.95 19.65,267.38 49.04,384.39 2.62,10.31 14.84,25.42 10.93,38.14 -4.95,16.08 -33.64,20.15 -38.2,32.7 -8.14,22.65 3.64,69.95 5.46,111.78 10.52,239 0.42,548.57 -70.87,733.31 -76.44,30.03 16.64,184.33 -59.95,209.9 -48.35,-48.92 -82.73,-95.67 -166.29,-130.88 -73.9,-31.05 -108.05,-136.6 -190.83,-163.53 -6.71,-2.19 -13.21,-3.17 -19.38,-3.17 -17.79,0 -32.96,8.19 -43.33,19.51 -9.67,-2.06 -17.96,-3 -24.96,-3 -53.46,0 -32.96,54.39 3.16,76.61 60.51,37.19 163.07,38.84 220.8,79.05 21.03,14.66 36.26,36.41 57.27,57.24 64.27,63.79 145.31,128.1 193.53,179.93 76.68,82.42 114.46,180.51 193.54,248.09 45.52,38.83 96.49,70.17 125.41,122.64 -20.87,22.98 -12.63,65.28 -46.34,79.04 5.41,16.42 10.41,33.21 16.34,49.09 -23.6,14.52 -72.55,16.73 -127.66,16.73 -12.05,0 -24.39,-0.1 -36.83,-0.21 -12.44,-0.1 -24.98,-0.21 -37.41,-0.21 -91.85,0 -177.86,5.77 -177,60 0.46,29.95 30.84,32.9 61.09,32.9 7.03,0 14.05,-0.16 20.7,-0.18 -2.36,28.29 48.24,44.98 54.5,70.88 15.8,65.39 -39.09,107.4 0,166.29 30.08,45.28 65.47,76.31 109.05,109.06 -17.5,77.8 43.35,97.46 98.15,111.74 11.57,49.32 39.12,82.63 92.68,89.95 -24.83,96.86 58.45,140.63 140.9,140.63 86.1,0 171.29,-47.68 131.68,-132.43 33.92,-14.64 88.14,-50.72 46.34,-92.68 70.47,-6.05 171.16,-41.66 125.42,-119.95 69.3,-17.18 170.72,-89.03 193.55,-171.74 13.17,-47.83 15.66,-153.19 -32.51,-153.2 -6.41,0 -13.72,1.87 -22.02,5.99 -16.39,89.5 16.65,222.28 -59.98,261.69 -7.01,-0.26 -3.89,-10.63 -10.9,-10.89 16.7,-22.38 37.86,-40.29 49.08,-68.15 1.33,-61.32 -33.05,-86.93 -84.55,-95.42 -20.19,-39.98 -58.96,-56.29 -100.51,-56.29 -62.81,0 -131.99,37.26 -152.99,86.29 -17.07,-13.69 -42.35,-19.95 -68.12,-19.95 -23.31,0 -47.01,5.12 -65.44,14.49 -9.9,-39.42 -59.29,-59.42 -108.22,-59.43 -43.82,0 -87.25,16.03 -101.68,48.52 20.28,-9.46 38.69,-13.15 55.94,-13.15 50.58,0 91.26,31.76 140.32,43.11 -19.84,91.24 25.26,130.24 73.66,130.24 40.94,0 84.25,-27.9 92.61,-75.71 3.66,-20.82 -7.17,-46.63 0,-65.4 11.97,-31.23 51.1,-44.97 91.52,-44.97 38.45,0 78.06,12.43 96.58,34.05 -27.27,68.5 -15.52,144.53 67.57,144.53 1.09,0 2.19,-0.01 3.3,-0.04 v 0 0 c -6.97,23.72 -24.76,28.11 -45.82,28.11 -6.19,0 -12.65,-0.38 -19.21,-0.76 -6.56,-0.38 -13.21,-0.76 -19.76,-0.76 -4.51,0 -8.98,0.18 -13.33,0.67 -11.73,1.3 -25.42,1.79 -40.33,1.79 -23.34,0 -49.66,-1.21 -76.2,-2.42 -26.53,-1.2 -53.28,-2.41 -77.43,-2.41 -68.91,0 -116.74,9.83 -78.65,57.55 -22.83,19.89 -79.32,6.09 -95.41,32.72 53.34,10.87 109.58,14 160.7,14 36.28,0 69.99,-1.58 98.28,-3.09 3.11,-19.77 -11.55,-21.78 -28.19,-21.78 -2.11,0 -4.26,0.04 -6.4,0.07 -2.14,0.03 -4.28,0.06 -6.39,0.06 -10.01,0 -19.3,-0.72 -24.43,-5.6 62.28,-7.72 122.67,-31.75 182.62,-32.72 v 0 0 c -39.66,53 -88.04,97.29 -174.46,103.57 3.63,15.44 31.21,6.99 40.91,16.38 -23.86,23.76 -61.74,44.68 -105.59,44.68 -5.61,0 -11.31,-0.34 -17.1,-1.06 -10.92,-7.64 4.03,-28.97 -10.89,-35.45 -3.25,-0.97 -6.52,-1.36 -9.82,-1.36 -6.9,0 -13.92,1.7 -21.1,3.41 -7.18,1.71 -14.52,3.41 -22.03,3.41 -4.99,0 -10.06,-0.75 -15.21,-2.75 -7.8,-12.02 6.11,-20.57 0,-32.69 -14.61,-14.58 -41.78,-16.64 -70.98,-16.64 -8.97,0 -18.12,0.19 -27.17,0.28 8.34,-32.67 -6.46,-65.61 -29.97,-81.78 6.45,-10.82 25.18,-9.36 40.88,-10.9 -42.5,-32.91 -118.14,-32.68 -163.56,-62.7 79.74,-24.09 60.67,-144.62 -15.08,-144.62 -14.01,0 -29.97,4.13 -47.6,13.75 -1.65,-39.65 1.66,-81.52 0,-128.09 102.08,-7.11 225.01,-9.15 353.38,-9.15 165.83,0 340.74,3.4 491.68,3.67 0.13,0 0.26,0 0.39,0 41.38,0 126.75,-12.63 133.18,-49.06 5.74,-32.49 -23.62,-64.39 -38.15,-73.6 -18.27,-11.56 -40.53,-14.89 -64.44,-14.89 -16.22,0 -33.2,1.53 -50.22,3.06 -17.02,1.53 -34.07,3.06 -50.44,3.06 -14.77,0 -28.98,-1.25 -42.09,-4.86 -12.79,-3.52 -15.49,-21.88 -29.97,-32.72 -11.23,-8.39 -26.03,-10.9 -42.3,-10.9 -12.07,0 -24.93,1.38 -37.74,2.76 -12.8,1.38 -25.55,2.76 -37.36,2.76 -15.98,0 -30.26,-2.53 -40.7,-10.98 -14.85,-11.98 -11.45,-44.04 -19.1,-59.95 -7.35,-15.26 -27.14,-19.22 -38.18,-32.71 -36.9,-45.32 -70.9,-105.93 -114.48,-160.83 -122.68,-154.59 -226.39,-348.82 -368.02,-479.8 20.37,-156.78 63.07,-313.25 70.87,-485.21 7.14,-157.22 -18.16,-327.09 -5.44,-479.79 2.07,-24.85 1.17,-52.43 0,-79.07 -8.35,-189.65 -35.66,-396.81 -87.21,-550.63 -11.31,-33.72 -22.88,-71.19 -30,-103.61 -7.88,-35.8 -6.54,-74.39 -9.12,-108.42 -22.7,-0.51 -45.48,-0.77 -68.31,-0.77 m 336.4,2469.92 c -27.99,-43.62 -25.16,-108.18 -51.81,-155.38 -27.51,-48.73 -81.7,-83.22 -119.95,-125.38 -38.47,-42.43 -97.15,-88.25 -117.21,-128.12 -17.94,-35.75 40.44,-116.99 49.07,-155.39 184.16,152.06 315.73,356.7 452.51,556.08 -7.6,15.77 -19.03,20.56 -32.01,20.56 -10.06,0 -21.04,-2.88 -31.89,-5.75 -10.86,-2.88 -21.58,-5.76 -31.1,-5.76 -11.67,0 -21.53,4.32 -27.66,18.23 13.64,22.11 11.5,52.59 0,76.33 -7.83,5.25 -15.33,7.25 -22.66,7.25 -22.36,0 -43.16,-18.67 -67.29,-20.86 7.99,-32.12 62.06,-41.42 70.88,-81.81 -28.14,-33.22 -21.8,-100.87 -83.14,-100.87 -0.47,0 -0.93,0 -1.4,0.01 -27.52,30.2 60.34,68.88 13.66,100.86 m 370.66,132.08 c -48.76,0 -80.15,-28.44 -103.54,-55.75 7.23,-6.69 14.6,-9.45 22.12,-9.45 34.38,0 71.9,57.68 114.2,61.24 -11.73,2.73 -22.63,3.96 -32.78,3.96 m -226.44,60.54 c -23.7,0 -44.01,-4.24 -48.83,-20.89 9.5,-16.16 24.88,-22.37 41.79,-22.37 30.5,0 65.97,20.2 80.9,38.74 -0.88,-0.03 -1.78,-0.04 -2.7,-0.04 -9.18,0 -20.83,1.14 -33.25,2.28 -12.42,1.14 -25.62,2.28 -37.91,2.28 m 310.57,-0.02 c -30.64,0 -60.74,-1.82 -89.53,-7.22 31,-4.38 65.93,-7.34 100.36,-7.34 33.84,0 67.21,2.86 95.93,10.06 -35.49,2.09 -71.48,4.5 -106.76,4.5 m -625.29,261.89 c -24.26,0 -49.58,-11.73 -47.59,-37.4 6.91,-9.37 23.9,-14.04 40.83,-14.04 15.24,0 30.44,3.78 38.22,11.31 3.27,7.65 3.01,18.81 2.72,29.99 -8,6.64 -20.93,10.14 -34.18,10.14 m 678.24,-3.53 c -12.8,0 -24.65,-17.31 -33.42,-25.7 7.03,-7.64 11.99,-17.34 26.67,-17.34 2.6,0 5.5,0.31 8.77,0.98 6.65,8.83 13.76,17.15 10.9,35.45 -4.36,4.72 -8.69,6.61 -12.92,6.61 m -337.72,22.03 c -14.26,0 -29.61,-12.69 -36.46,-50.45 10.77,-1.9 20,-2.74 27.84,-2.74 31.21,0 40.66,13.3 38.66,26.59 -2,13.3 -15.45,26.6 -30.04,26.6 m -258.95,115.97 c 1.89,0 3.87,-0.08 5.84,-0.16 1.97,-0.07 3.94,-0.15 5.84,-0.15 4.9,0 9.28,0.52 11.81,2.88 -8.52,20.17 -6.02,29.45 0,51.81 -6.07,3.53 -11.35,5.07 -15.86,5.07 -22.8,0 -25.93,-39.35 -11.38,-59.59 1.2,0.1 2.46,0.14 3.75,0.14 m 202.97,180.63 c -32.66,0 -59.65,-14.35 -70.43,-39 6.08,-1.61 12.34,-2.34 18.66,-2.34 32.94,0 67.74,19.66 90.37,35.06 -13.29,4.26 -26.35,6.28 -38.6,6.28 m -5.02,89.12 c -8.09,-17.17 -31.44,-36.23 -16.33,-60 7,-0.46 13.78,-0.67 20.33,-0.67 42.51,0 76.01,9.02 107.76,19.78 2.22,16.29 2.22,24.34 -2.7,38.15 -12.27,3.52 -23.36,4.59 -34.4,4.59 -8.58,0 -17.14,-0.65 -26.21,-1.29 -9.07,-0.65 -18.66,-1.3 -29.29,-1.3 -6.02,0 -12.37,0.21 -19.16,0.74"
         id="path2721" /></clipPath><radialGradient
       fx="0"
       fy="0"
       cx="0"
       cy="0"
       r="1"
       gradientUnits="userSpaceOnUse"
       gradientTransform="matrix(2995.99,0,0,-2995.99,4833.96,4979.17)"
       spreadMethod="pad"
       id="radialGradient2731"><stop
         style="stop-opacity:1;stop-color:#fbcc2a"
         offset="0"
         id="stop2725" /><stop
         style="stop-opacity:1;stop-color:#f1483c"
         offset="0.248485"
         id="stop2727" /><stop
         style="stop-opacity:1;stop-color:#3b3a3d"
         offset="1"
         id="stop2729" /></radialGradient><clipPath
       clipPathUnits="userSpaceOnUse"
       id="clipPath2741"><path
         d="m 3976.97,2264.11 c -0.21,0 -0.41,0 -0.61,0 -10.77,6.51 -6.5,28.05 -16.34,35.42 31.03,127.99 34.64,269.85 70.88,389.85 12.37,41.03 59.43,106.19 59.94,141.75 0.42,25.98 -23.32,44.44 -21.77,73.62 3.84,73.34 77.65,138.93 109.02,201.69 22.35,44.76 33.48,90.25 59.98,133.58 -13.82,19.41 -31.71,15.49 -40.88,29.97 -42.58,67.12 24.77,137.87 24.53,193.56 -0.23,50.88 -45.46,78.64 -62.73,117.22 -21.62,-13.79 -62.89,-7.99 -73.58,-32.73 12.37,-27.6 59.4,-20.52 89.98,-29.95 26.96,-76.57 -30.29,-147.27 -115.64,-147.27 -1.43,0 -2.86,0.01 -4.31,0.06 -24.05,3.59 -30.72,106.13 -43.01,106.13 -3.93,0 -8.44,-10.47 -14.27,-37.99 -8.45,-39.95 -24.12,-154.62 -51.8,-174.46 -41.14,7.24 -92.63,33.86 -98.09,68.14 -11.89,74.13 99.43,115.75 100.82,177.19 -39.07,9.33 -88.61,23.82 -109.02,59.98 -35.49,-7.71 -50.18,-48.84 -76.34,-59.98 -14.64,-6.23 -32.53,-0.79 -43.61,-8.19 -45.49,-30.31 -18.25,-117.94 -89.95,-130.82 -66.7,52.98 -88.04,116.13 -32.73,204.43 -2.88,-0.15 -5.7,-0.22 -8.44,-0.22 -71.6,-0.01 -93.88,49.99 -85.39,99.98 8.5,49.99 47.79,99.99 99.35,99.99 12.11,0 24.89,-2.76 38.11,-8.92 74.7,35.45 25.6,98.81 -2.48,98.81 -14.79,0 -23.74,-17.58 -5.69,-66.08 -40.57,11.54 -56.55,89.79 -19.07,117.19 14.09,7.07 27.64,10.04 40.5,10.04 40.92,0 74.99,-30.04 98.52,-53.65 47.19,14.59 98.71,24.84 119.95,65.44 -33.5,68.46 56.68,115.78 92.68,182.63 12.02,22.32 9.59,49.46 16.35,65.42 17.86,42.21 15.15,30.72 -8.2,70.87 -5.88,10.18 -13.87,32.07 -16.34,43.61 -18.46,85.92 -69.75,142.62 -130.83,193.56 -15.29,-10.91 -37.55,-21.94 -57.28,-21.94 -14.39,0 -27.43,5.87 -35.42,21.94 -3.93,-0.12 -7.8,-0.17 -11.56,-0.17 -137.56,-0.01 -162.61,76.6 -132.93,191 11.62,44.72 -19.62,106.75 16.37,139.03 127.6,86 209.92,231.6 400.72,245.33 10.03,-10.87 22.53,-19.29 29.98,-32.7 6.83,1 13.59,1.48 20.24,1.48 100.08,0 175.36,-108.53 107.88,-200.5 19.76,-14.98 20.61,-39.5 30,-59.94 25.9,-56.49 61.72,-102.25 92.68,-152.69 -39.23,-7.12 -67.76,-24.9 -92.68,-46.33 5.31,-3.9 10.99,-5.41 17.01,-5.41 10.14,0 21.24,4.27 33.21,8.54 11.96,4.26 24.79,8.53 38.36,8.53 3.15,0 6.34,-0.23 9.56,-0.74 9.15,8.5 -8.2,17 0,24.52 37.4,-17.1 75.26,-33.75 98.12,-65.42 25.85,-127.78 136.29,-196.8 119.95,-348.92 5.69,-2.29 11.88,-3.18 18.17,-3.18 15.1,0 30.84,5.15 41.79,8.62 8.16,9.1 18.58,15.96 24.53,27.24 112.32,17.74 152.65,113.23 234.43,171.76 67.73,48.47 149.54,123.09 223.56,147.18 11.56,3.77 21.5,5.75 30.25,5.75 14.29,0 25.4,-5.28 35.16,-16.64 -34.32,-83.8 -131.41,-133.46 -209.89,-185.36 -83.89,-55.47 -160.52,-115.21 -231.71,-174.46 -161.16,-32.4 -311.37,-75.75 -417.09,-163.56 -165.57,-59.2 -111.86,-373.02 -2.73,-455.26 17.26,-43.54 12.58,-89.37 16.37,-139 1.62,-21.24 19.74,-39.26 24.5,-62.74 13.51,-66.13 16.04,-188.07 -10.87,-258.92 -25.34,-66.67 -52.86,-137.32 -122.68,-155.41 1.9,-19.03 29.5,-12.3 32.73,-29.98 175.29,-5.86 344.48,-53.78 519.45,-53.78 37.35,0 74.96,2.19 112.95,7.43 10.83,-19.03 3.41,-40.36 -5.41,-51.81 -31.9,-41.27 -119.24,-56.9 -214.01,-56.9 -111.76,0 -233.85,21.73 -287.59,48.76 -50.5,25.42 -87.04,87.84 -149.93,92.63 -19.51,-94.07 -52.73,-201.34 -79.07,-286.19 -32.53,-104.74 -32.17,-221.76 -68.15,-316.24 -6.5,-17.05 -19.21,-35.42 -48.46,-35.42 m 115.52,1256.66 c -24.43,0 -49.53,-23.16 -45.25,-57.22 24.25,0.57 61.96,10.55 84.51,21.81 -6.62,24.86 -22.79,35.41 -39.26,35.41 m -154.61,49.5 c 19.24,0 35.85,-3.09 41.21,-19.47 0.67,35.67 43.51,29.2 65.42,43.63 -3.75,-0.99 -7.39,-1.44 -10.92,-1.44 -30.49,0 -53.31,33.51 -73.57,36.85 -1.59,0.26 -3.15,0.39 -4.69,0.39 -13.18,0 -24.71,-9.05 -38.22,-18.1 -13.52,-9.05 -29.03,-18.09 -50.18,-18.09 -2.51,0 -5.11,0.12 -7.79,0.39 3.27,-21.5 21.46,-25.29 42.82,-25.29 5.83,0 11.9,0.28 17.97,0.56 6.06,0.29 12.13,0.57 17.95,0.57 m -179.59,62.31 c -3.79,-19.7 9.15,-41.96 2.73,-60 27.6,7.52 19.23,52.52 -2.73,60 m -156.56,73.78 c -21.46,0 -38.24,-17.71 -28.8,-60.17 21.72,-5.57 35.37,-19.25 62.72,-19.25 1.75,0 3.55,0.06 5.42,0.18 9.85,5.61 14.54,16.36 19.1,27.26 -7.33,31.8 -35.55,51.98 -58.44,51.98 m 464.44,106.95 c -37.83,0 -74.28,-38.04 -106.15,-52.64 22.77,-30.95 6.56,-100.89 60.32,-100.9 0.77,0 1.56,0.02 2.36,0.05 8.97,61.93 47.58,94.2 62.71,149.95 -6.44,2.46 -12.86,3.54 -19.24,3.54 M 3843,3718.88 c -10.17,0 -19.85,-0.69 -27.47,-1.82 0.03,-23.94 27.75,-39.61 50.95,-39.61 17.91,0 33.12,9.34 30.83,31.42 -11.68,7.28 -33.98,10.01 -54.31,10.01 m -14.96,104.09 c -27.16,0 -38.76,-12.63 -36.42,-25.27 2.34,-12.64 18.63,-25.27 47.22,-25.27 6.2,0 12.97,0.59 20.3,1.9 11.5,7.63 9.31,32.3 2.74,43.59 -13.18,3.54 -24.44,5.05 -33.84,5.05 m 82.91,71.29 c -2.68,-2.81 -5.39,-5.5 -8.2,-8.18 3.45,-19.14 11.47,-43.42 31.52,-43.42 3.62,0 7.63,0.79 12.09,2.55 -16.91,11.23 -22.01,34.28 -35.41,49.05 m 115.39,-5.18 c -9.52,0 -16.44,-14.15 -3.64,-16.63 2.73,5.44 12.07,4.31 10.93,13.63 -2.42,2.13 -4.93,3 -7.29,3 m -124.96,106.68 c -2.05,0 -4.29,-0.21 -6.78,-0.65 -6.79,-13.99 11.04,-29.37 26.22,-29.37 5.77,0 11.15,2.22 14.66,7.57 -13.76,5.09 -15.28,22.45 -34.1,22.45 m 257.61,509.14 c -6.18,-87.05 -33.81,-179.68 -27.24,-280.82 27.81,-30.72 63.74,-68.48 117.22,-79.02 5.45,-1.08 11.26,-1.59 17.31,-1.59 61.82,0 149.77,53.16 154.42,99.73 8.86,88.64 -16.55,186.66 -79.03,237.16 -15.85,-9.69 -31.92,-13.41 -48.06,-13.41 -45.1,0 -90.83,29.02 -134.62,37.95 m -40.87,-2.72 c -50.7,-24.62 -110.22,-81.02 -87.22,-171.76 10.31,-0.59 13.25,-8.55 21.8,-10.9 45,35.54 52.32,119.06 65.42,182.66 m 1.89,293.06 c -6,0 -12.1,-1.29 -18.24,-4.12 -35.25,-87.52 -210.05,-44.09 -237.17,-133.59 -13.91,-45.87 -12.47,-62.01 -46.33,-95.4 7.11,-10.46 11.7,-21.83 21.8,-27.23 37.49,-20.15 96.39,-75.8 137.12,-75.8 4.52,0 8.81,0.68 12.83,2.18 65.78,24.45 98.1,140.45 185.37,144.48 1.03,12.85 -18.46,5.16 -16.4,19.06 74.1,26.41 24.11,170.42 -38.98,170.42 m 75.5,-251.42 c -18.28,0 -34.31,-3.44 -41.96,-14.4 12.64,-5.62 34.85,-9.16 56.74,-9.16 23.93,0 47.49,4.23 57.78,14.64 -17.61,2.32 -47.24,8.92 -72.56,8.92 m -398.09,348.62 c -32.78,0 -71.82,-19.33 -85.47,-35.9 -41.57,-50.43 -8.66,-177.08 -89.98,-190.82 -0.93,-95.62 114.23,-98.28 174.49,-141.76 15.83,20.35 -3.92,69.6 16.34,89.97 -7.11,9.25 -32.76,-0.05 -38.14,10.89 82.01,31.57 78.76,153.39 155.36,188.11 64.64,29.28 139.93,12.32 193.56,38.14 -15.62,30.43 -35.52,58.17 -21.81,103.61 -10.93,8.15 -33.91,4.27 -40.87,16.37 -7.01,11.77 2.99,24.92 -2.74,35.42 -3.7,0.36 -7.67,0.54 -11.84,0.54 -29.87,0 -69.93,-9.24 -94.49,-30.54 -19.03,-16.49 -45.94,-35.68 -57.23,-49.05 -27.1,-32.07 -27.18,-47.06 -42.54,-47.06 -6.9,0 -16.89,3.02 -33.79,8.88 -6.39,2.22 -13.46,3.2 -20.85,3.2"
         id="path2739" /></clipPath><radialGradient
       fx="0"
       fy="0"
       cx="0"
       cy="0"
       r="1"
       gradientUnits="userSpaceOnUse"
       gradientTransform="matrix(2995.99,0,0,-2995.99,4833.96,4979.17)"
       spreadMethod="pad"
       id="radialGradient2749"><stop
         style="stop-opacity:1;stop-color:#fbcc2a"
         offset="0"
         id="stop2743" /><stop
         style="stop-opacity:1;stop-color:#f1483c"
         offset="0.248485"
         id="stop2745" /><stop
         style="stop-opacity:1;stop-color:#3b3a3d"
         offset="1"
         id="stop2747" /></radialGradient><clipPath
       clipPathUnits="userSpaceOnUse"
       id="clipPath2759"><path
         d="m 4738.46,3065.54 c -0.51,0 -1.02,0 -1.55,0.02 -67.62,1.88 1.39,147.27 2.74,190.83 6.43,209.38 -48.71,371.24 -24.54,575.18 -0.1,4.65 2.04,7.07 5.47,8.18 33.35,-136.63 94.01,-360.78 81.77,-531.56 -3.58,-50.21 -25.39,-95.88 -29.98,-147.22 -4.07,-45.18 8.79,-95.43 -33.91,-95.43"
         id="path2757" /></clipPath><radialGradient
       fx="0"
       fy="0"
       cx="0"
       cy="0"
       r="1"
       gradientUnits="userSpaceOnUse"
       gradientTransform="matrix(2995.99,0,0,-2995.99,4833.96,4979.17)"
       spreadMethod="pad"
       id="radialGradient2767"><stop
         style="stop-opacity:1;stop-color:#fbcc2a"
         offset="0"
         id="stop2761" /><stop
         style="stop-opacity:1;stop-color:#f1483c"
         offset="0.248485"
         id="stop2763" /><stop
         style="stop-opacity:1;stop-color:#3b3a3d"
         offset="1"
         id="stop2765" /></radialGradient><clipPath
       clipPathUnits="userSpaceOnUse"
       id="clipPath2777"><path
         d="m 4610.11,3403.47 c -4.64,0 -9.63,0.9 -14.95,2.87 5.88,27.83 -23.04,50.67 -21.81,76.31 0.95,19.53 20.82,31.47 40.63,31.47 11.27,0 22.52,-3.87 30.25,-12.42 21.43,-23.69 8.06,-98.23 -34.12,-98.23"
         id="path2775" /></clipPath><radialGradient
       fx="0"
       fy="0"
       cx="0"
       cy="0"
       r="1"
       gradientUnits="userSpaceOnUse"
       gradientTransform="matrix(2995.99,0,0,-2995.99,4833.96,4979.17)"
       spreadMethod="pad"
       id="radialGradient2785"><stop
         style="stop-opacity:1;stop-color:#fbcc2a"
         offset="0"
         id="stop2779" /><stop
         style="stop-opacity:1;stop-color:#f1483c"
         offset="0.248485"
         id="stop2781" /><stop
         style="stop-opacity:1;stop-color:#3b3a3d"
         offset="1"
         id="stop2783" /></radialGradient><clipPath
       clipPathUnits="userSpaceOnUse"
       id="clipPath2795"><path
         d="m 4602.41,3101.01 c -32.62,0 -44.51,23.59 -43.14,47.18 1.38,23.59 16.01,47.18 36.44,47.18 11.96,0 25.89,-8.07 40.32,-28.96 4.33,-36.47 -7.37,-65.08 -32.68,-65.39 -0.32,0 -0.63,-0.01 -0.94,-0.01"
         id="path2793" /></clipPath><radialGradient
       fx="0"
       fy="0"
       cx="0"
       cy="0"
       r="1"
       gradientUnits="userSpaceOnUse"
       gradientTransform="matrix(2995.99,0,0,-2995.99,4833.96,4979.17)"
       spreadMethod="pad"
       id="radialGradient2803"><stop
         style="stop-opacity:1;stop-color:#fbcc2a"
         offset="0"
         id="stop2797" /><stop
         style="stop-opacity:1;stop-color:#f1483c"
         offset="0.248485"
         id="stop2799" /><stop
         style="stop-opacity:1;stop-color:#3b3a3d"
         offset="1"
         id="stop2801" /></radialGradient><clipPath
       clipPathUnits="userSpaceOnUse"
       id="clipPath2813"><path
         d="m 4555.59,1995.94 c -19.63,1.8 -38.97,3.78 -58.48,5.96 -7.91,139.01 -22.2,274.74 -57.34,387.63 -9.69,11.18 -36.24,5.52 -40.88,21.81 41.27,135 172.87,179.69 299.88,228.96 -41.81,-29.53 -87.28,-95.56 -125.42,-133.55 -21.08,-21.04 -60.41,-36.6 -65.41,-62.74 -8.69,-45.15 24.74,-115.92 32.7,-174.43 9.78,-71.65 43.29,-178.61 -8.16,-212.64 10.95,-19.52 18.32,-39.92 23.11,-61 m -299.64,42.94 c -21.11,4.13 -42.23,8.5 -63.18,13.06 -2.2,7.09 -5.76,12.8 -6.51,21.35 50,117.22 123.09,211.34 207.19,294.43 -23.83,-78.86 -44.58,-160.77 -92.68,-215.36 1.31,-12.21 -1.39,-20.47 -2.76,-30 -15.05,-26.78 -29.03,-54.65 -42.06,-83.48 m -336.81,86.53 c -16.89,5.41 -33.58,10.92 -50.34,16.62 23.16,54.18 49.39,104.72 80.29,149.36 -9.46,-54.01 -18.58,-110.55 -29.95,-165.98"
         id="path2811" /></clipPath><radialGradient
       fx="0"
       fy="0"
       cx="0"
       cy="0"
       r="1"
       gradientUnits="userSpaceOnUse"
       gradientTransform="matrix(2995.99,0,0,-2995.99,4833.96,4979.17)"
       spreadMethod="pad"
       id="radialGradient2821"><stop
         style="stop-opacity:1;stop-color:#fbcc2a"
         offset="0"
         id="stop2815" /><stop
         style="stop-opacity:1;stop-color:#f1483c"
         offset="0.248485"
         id="stop2817" /><stop
         style="stop-opacity:1;stop-color:#3b3a3d"
         offset="1"
         id="stop2819" /></radialGradient></defs><sodipodi:namedview
     id="namedview2677"
     pagecolor="#ffffff"
     bordercolor="#666666"
     borderopacity="1.0"
     inkscape:pageshadow="2"
     inkscape:pageopacity="0.0"
     inkscape:pagecheckerboard="0"
     showgrid="false"
     fit-margin-top="0"
     fit-margin-left="0"
     fit-margin-right="0"
     fit-margin-bottom="0"
     inkscape:zoom="0.25829251"
     inkscape:cx="-129.69791"
     inkscape:cy="274.88215"
     inkscape:window-width="1920"
     inkscape:window-height="1023"
     inkscape:window-x="0"
     inkscape:window-y="0"
     inkscape:window-maximized="1"
     inkscape:current-layer="g2683" /><g
     id="g2681"
     inkscape:groupmode="layer"
     inkscape:label="ink_ext_XXXXXX"
     transform="matrix(1.3333333,0,0,-1.3333333,-423.30102,718.99065)"><g
       id="g2683"
       transform="scale(0.1)"><path
         d="m 5170.37,4534.9 c 7.99,-32.12 62.06,-41.42 70.88,-81.81 -28.35,-33.47 -21.7,-101.89 -84.54,-100.86 -27.52,30.2 60.34,68.88 13.66,100.86 -27.99,-43.62 -25.16,-108.18 -51.81,-155.38 -27.51,-48.73 -81.7,-83.22 -119.95,-125.38 -38.47,-42.43 -97.15,-88.25 -117.21,-128.12 -17.94,-35.75 40.44,-116.99 49.07,-155.39 184.16,152.06 315.73,356.7 452.51,556.08 -13.48,27.99 -39.04,21.4 -63.9,14.81 -24.15,-6.4 -47.63,-12.8 -58.76,12.47 13.64,22.11 11.5,52.59 0,76.33 -31.75,21.26 -57.91,-10.7 -89.95,-13.61 m 267.12,-5.48 c 40.31,-37.27 84.77,47.45 136.32,51.79 -68.13,15.84 -108.07,-18.8 -136.32,-51.79 m -171.73,95.4 c 26.62,-45.3 99.48,-12.45 122.69,16.37 -9.54,-0.27 -22.27,0.99 -35.95,2.24 -36.37,3.34 -79.42,6.68 -86.74,-18.61 m 269.87,13.65 c 61.48,-8.67 138.35,-11.8 196.29,2.72 -66.33,3.91 -134.37,8.9 -196.29,-2.72 m 109.06,239.88 c 8.27,-8.99 13.68,-20.83 35.44,-16.36 6.65,8.83 13.76,17.15 10.9,35.45 -17.55,19.02 -34.67,-7.94 -46.34,-19.09 m -692.41,-8.17 c 13.14,-17.82 62.62,-18.63 79.05,-2.73 3.27,7.65 3.01,18.81 2.72,29.99 -22.64,18.79 -84.84,12.42 -81.77,-27.26 m 351.65,5.45 c 53.57,-9.43 69,7.21 66.5,23.85 -3.95,26.29 -52.64,52.58 -66.5,-23.85 m -226.24,166.28 c 2.95,0.24 6.27,0.11 9.59,-0.02 7.06,-0.27 14.14,-0.55 17.65,2.73 -8.52,20.17 -6.02,29.45 0,51.81 -36.73,21.4 -44.67,-30.27 -27.24,-54.52 m 136.29,141.77 c 37.79,-10.04 82.06,14.36 109.03,32.72 -48.71,15.61 -94.21,1.17 -109.03,-32.72 m 65.41,128.12 c -8.09,-17.17 -31.44,-36.23 -16.33,-60 52.47,-3.41 91.44,6.69 128.09,19.11 2.22,16.29 2.22,24.34 -2.7,38.15 -21.81,6.26 -39.87,4.78 -60.61,3.3 -14.2,-1.02 -29.67,-2.03 -48.45,-0.56 m 188.1,-51.8 c 33.92,-14.64 88.14,-50.72 46.34,-92.68 70.47,-6.05 171.16,-41.66 125.42,-119.95 69.3,-17.18 170.72,-89.03 193.55,-171.74 14.92,-54.19 16.14,-182.26 -54.53,-147.21 -16.39,89.5 16.65,222.28 -59.98,261.69 -7.01,-0.26 -3.89,-10.63 -10.9,-10.89 16.7,-22.38 37.86,-40.29 49.08,-68.15 1.33,-61.32 -33.05,-86.93 -84.55,-95.42 -50.72,-100.43 -218.6,-51.47 -253.5,30 -32.5,-26.06 -94.75,-25.2 -133.56,-5.46 -18.77,-74.71 -179.36,-79.68 -209.9,-10.91 79.75,-37.19 130.47,14.73 196.26,29.96 -36.62,168.41 148.02,158.86 166.27,54.53 3.66,-20.82 -7.17,-46.63 0,-65.4 23.35,-60.93 150.11,-55.27 188.1,-10.92 -27.63,69.4 -15.21,146.53 70.87,144.49 -9.02,30.69 -36.14,29.02 -65.03,27.35 -11.08,-0.64 -22.42,-1.28 -33.09,-0.09 -30.1,3.34 -73.04,1.35 -116.53,-0.63 -102.24,-4.65 -207.52,-9.31 -156.08,55.14 -22.83,19.89 -79.32,6.09 -95.41,32.72 91.19,18.58 190.83,14.56 258.98,10.91 3.5,-22.28 -15.55,-22 -34.59,-21.71 -12.31,0.18 -24.61,0.37 -30.82,-5.54 62.28,-7.72 122.67,-31.75 182.62,-32.72 -39.66,53 -88.04,97.29 -174.46,103.57 3.63,15.44 31.21,6.99 40.91,16.38 -26.92,26.8 -71.65,49.98 -122.69,43.62 -10.92,-7.64 4.03,-28.97 -10.89,-35.45 -10.03,-3 -20.3,-0.47 -30.92,2.05 -11.94,2.84 -24.32,5.68 -37.24,0.66 -7.8,-12.02 6.11,-20.57 0,-32.69 -19.09,-19.06 -59.64,-16.72 -98.15,-16.36 8.34,-32.67 -6.46,-65.61 -29.97,-81.78 6.45,-10.82 25.18,-9.36 40.88,-10.9 -42.5,-32.91 -118.14,-32.68 -163.56,-62.7 94.49,-28.54 50.23,-192.52 -62.68,-130.87 -1.65,-39.65 1.66,-81.52 0,-128.09 233.95,-16.29 577.28,-5.95 845.06,-5.48 41.24,0.08 127.12,-12.52 133.57,-49.06 5.74,-32.49 -23.62,-64.39 -38.15,-73.6 -30.66,-19.41 -72.54,-15.62 -114.66,-11.83 -32.36,2.91 -64.87,5.82 -92.53,-1.8 -12.79,-3.52 -15.49,-21.88 -29.97,-32.72 -19.55,-14.62 -49.97,-11.38 -80.04,-8.14 -30.12,3.24 -59.9,6.49 -78.06,-8.22 -14.85,-11.98 -11.45,-44.04 -19.1,-59.95 -7.35,-15.26 -27.14,-19.22 -38.18,-32.71 -36.9,-45.32 -70.9,-105.93 -114.48,-160.83 -122.68,-154.59 -226.39,-348.82 -368.02,-479.8 20.37,-156.78 63.07,-313.25 70.87,-485.21 7.14,-157.22 -18.16,-327.09 -5.44,-479.79 2.07,-24.85 1.17,-52.43 0,-79.07 -8.35,-189.65 -35.66,-396.81 -87.21,-550.63 -11.31,-33.72 -22.88,-71.19 -30,-103.61 -15.95,-72.53 5.9,-156.55 -43.64,-190.78 -10.05,-2.78 -15.89,19.7 -24.51,27.22 -19.07,-4.53 -19.94,-27.32 -46.34,-24.53 -14.18,65.61 27.71,138.66 49.05,212.62 31.32,108.57 59.15,234.18 76.35,357.12 18.16,129.95 19.65,267.38 49.04,384.39 2.62,10.31 14.84,25.42 10.93,38.14 -4.95,16.08 -33.64,20.15 -38.2,32.7 -8.14,22.65 3.64,69.95 5.46,111.78 10.52,239 0.42,548.57 -70.87,733.31 -76.44,30.03 16.64,184.33 -59.95,209.9 -48.35,-48.92 -82.73,-95.67 -166.29,-130.88 -73.9,-31.05 -108.05,-136.6 -190.83,-163.53 -26.06,-8.48 -48.74,1.08 -62.71,16.34 -83.5,-17.81 -62.65,48.48 -21.8,73.61 60.51,37.19 163.07,38.84 220.8,79.05 21.03,14.66 36.26,36.41 57.27,57.24 64.27,63.79 145.31,128.1 193.53,179.93 76.68,82.42 114.46,180.51 193.54,248.09 45.52,38.83 96.49,70.17 125.41,122.64 -20.87,22.98 -12.63,65.28 -46.34,79.04 5.41,16.42 10.41,33.21 16.34,49.09 -28.76,17.7 -95.17,17.11 -164.49,16.52 -104.38,-0.89 -215.39,-1.77 -214.41,59.79 0.57,36.91 46.57,32.81 81.79,32.72 -2.36,28.29 48.24,44.98 54.5,70.88 15.8,65.39 -39.09,107.4 0,166.29 30.08,45.28 65.47,76.31 109.05,109.06 -17.5,77.8 43.35,97.46 98.15,111.74 11.57,49.32 39.12,82.63 92.68,89.95 -50.77,198 350.13,174.11 272.58,8.2"
         style="fill:#3b393d;fill-opacity:1;fill-rule:evenodd;stroke:none"
         id="path2687" /><path
         d="m 4047.24,3463.55 c 24.25,0.57 61.96,10.55 84.51,21.81 -16.42,61.7 -91.68,35.23 -84.51,-21.81 m -87.22,166.29 c -15.21,2.5 -27.82,-7.6 -42.91,-17.71 -15.13,-10.12 -32.75,-20.25 -57.97,-17.7 4.16,-27.37 32.5,-26.05 60.79,-24.73 26.11,1.22 52.18,2.44 59.16,-18.9 0.67,35.67 43.51,29.2 65.42,43.63 -36.09,-9.61 -61.89,31.68 -84.49,35.41 m -199,-57.26 c 27.6,7.52 19.23,52.52 -2.73,60 -3.79,-19.7 9.15,-41.96 2.73,-60 m -188.09,73.61 c 23.11,-5.93 37.09,-21.03 68.14,-19.07 9.85,5.61 14.54,16.36 19.1,27.26 -14.2,61.6 -106.75,79.59 -87.24,-8.19 m 242.6,70.87 c 0.06,-42.42 87.04,-58.87 81.78,-8.19 -17.53,10.92 -58.94,11.59 -81.78,8.19 m 144.49,43.61 c 23.09,-31.39 6.08,-102.91 62.68,-100.85 8.97,61.93 47.58,94.2 62.71,149.95 -44.64,17.04 -88.15,-32.04 -125.39,-49.1 m -100.88,13.66 c 11.5,7.63 9.31,32.3 2.74,43.59 -51.31,13.79 -73.41,-3.22 -70.26,-20.22 2.85,-15.37 26.33,-30.75 67.52,-23.37 m 163.56,98.12 c 2.73,5.44 12.07,4.31 10.93,13.63 -12.17,10.73 -26.91,-10.54 -10.93,-13.63 m -119.95,13.63 c 4.07,-22.6 14.51,-52.36 43.61,-40.87 -16.91,11.23 -22.01,34.28 -35.41,49.05 -2.68,-2.81 -5.39,-5.5 -8.2,-8.18 m 32.73,87.23 c -15.26,5.64 -15.46,26.36 -40.88,21.8 -9.38,-19.31 28.12,-41.24 40.88,-21.8 m 196.27,250.77 c 27.81,-30.72 63.74,-68.48 117.22,-79.02 61.11,-12.06 166.63,47.01 171.73,98.14 8.86,88.64 -16.55,186.66 -79.03,237.16 -60.15,-36.77 -123.22,12.41 -182.68,24.54 -6.18,-87.05 -33.81,-179.68 -27.24,-280.82 m -100.85,106.34 c 10.31,-0.59 13.25,-8.55 21.8,-10.9 45,35.54 52.32,119.06 65.42,182.66 -50.7,-24.62 -110.22,-81.02 -87.22,-171.76 m 122.65,199 c 26.45,-11.75 94.82,-14.45 114.52,5.48 -30.32,3.99 -96.27,20.67 -114.52,-5.48 m -51.78,261.7 c -35.25,-87.52 -210.05,-44.09 -237.17,-133.59 -13.91,-45.87 -12.47,-62.01 -46.33,-95.4 7.11,-10.46 11.7,-21.83 21.8,-27.23 41.65,-22.39 109.72,-88.59 149.95,-73.62 65.78,24.45 98.1,140.45 185.37,144.48 1.03,12.85 -18.46,5.16 -16.4,19.06 81.14,28.92 13.51,198.84 -57.22,166.3 m -149.94,185.35 c -19.03,-16.49 -45.94,-35.68 -57.23,-49.05 -39.27,-46.47 -21.8,-57.08 -76.33,-38.18 -34.75,12.06 -89.59,-12.4 -106.32,-32.7 -41.57,-50.43 -8.66,-177.08 -89.98,-190.82 -0.93,-95.62 114.23,-98.28 174.49,-141.76 15.83,20.35 -3.92,69.6 16.34,89.97 -7.11,9.25 -32.76,-0.05 -38.14,10.89 82.01,31.57 78.76,153.39 155.36,188.11 64.64,29.28 139.93,12.32 193.56,38.14 -15.62,30.43 -35.52,58.17 -21.81,103.61 -10.93,8.15 -33.91,4.27 -40.87,16.37 -7.01,11.77 2.99,24.92 -2.74,35.42 -30.23,2.88 -78.35,-5.73 -106.33,-30 m 212.63,-139.02 c 19.76,-14.98 20.61,-39.5 30,-59.94 25.9,-56.49 61.72,-102.25 92.68,-152.69 -39.23,-7.12 -67.76,-24.9 -92.68,-46.33 14.26,-10.48 31.15,-3.68 50.22,3.13 14.74,5.25 30.78,10.51 47.92,7.79 9.15,8.5 -8.2,17 0,24.52 37.4,-17.1 75.26,-33.75 98.12,-65.42 25.85,-127.78 136.29,-196.8 119.95,-348.92 19.31,-7.78 44.44,0.52 59.96,5.44 8.16,9.1 18.58,15.96 24.53,27.24 112.32,17.74 152.65,113.23 234.43,171.76 67.73,48.47 149.54,123.09 223.56,147.18 30.44,9.94 49.67,7.42 65.41,-10.89 -34.32,-83.8 -131.41,-133.46 -209.89,-185.36 -83.89,-55.47 -160.52,-115.21 -231.71,-174.46 -161.16,-32.4 -311.37,-75.75 -417.09,-163.56 -165.57,-59.2 -111.86,-373.02 -2.73,-455.26 17.26,-43.54 12.58,-89.37 16.37,-139 1.62,-21.24 19.74,-39.26 24.5,-62.74 13.51,-66.13 16.04,-188.07 -10.87,-258.92 -25.34,-66.67 -52.86,-137.32 -122.68,-155.41 1.9,-19.03 29.5,-12.3 32.73,-29.98 212.71,-7.11 416.42,-76.15 632.4,-46.35 10.83,-19.03 3.41,-40.36 -5.41,-51.81 -69.53,-89.94 -402.3,-58.09 -501.6,-8.14 -50.5,25.42 -87.04,87.84 -149.93,92.63 -19.51,-94.07 -52.73,-201.34 -79.07,-286.19 -32.53,-104.74 -32.17,-221.76 -68.15,-316.24 -6.54,-17.17 -19.38,-35.67 -49.07,-35.42 -10.77,6.51 -6.5,28.05 -16.34,35.42 31.03,127.99 34.64,269.85 70.88,389.85 12.37,41.03 59.43,106.19 59.94,141.75 0.42,25.98 -23.32,44.44 -21.77,73.62 3.84,73.34 77.65,138.93 109.02,201.69 22.35,44.76 33.48,90.25 59.98,133.58 -13.82,19.41 -31.71,15.49 -40.88,29.97 -42.58,67.12 24.77,137.87 24.53,193.56 -0.23,50.88 -45.46,78.64 -62.73,117.22 -21.62,-13.79 -62.89,-7.99 -73.58,-32.73 12.37,-27.6 59.4,-20.52 89.98,-29.95 27.42,-77.86 -32.22,-149.64 -119.95,-147.21 -31.73,4.74 -33.2,181.77 -57.28,68.14 -8.45,-39.95 -24.12,-154.62 -51.8,-174.46 -41.14,7.24 -92.63,33.86 -98.09,68.14 -11.89,74.13 99.43,115.75 100.82,177.19 -39.07,9.33 -88.61,23.82 -109.02,59.98 -35.49,-7.71 -50.18,-48.84 -76.34,-59.98 -14.64,-6.23 -32.53,-0.79 -43.61,-8.19 -45.49,-30.31 -18.25,-117.94 -89.95,-130.82 -66.7,52.98 -88.04,116.13 -32.73,204.43 -78.28,-4.05 -102.65,47.86 -93.83,99.76 10.5,61.73 67.93,123.47 137.46,91.07 114.05,54.12 -60.49,173.3 -8.17,32.73 -40.57,11.54 -56.55,89.79 -19.07,117.19 58.94,29.57 108.09,-12.58 139.02,-43.61 47.19,14.59 98.71,24.84 119.95,65.44 -33.5,68.46 56.68,115.78 92.68,182.63 12.02,22.32 9.59,49.46 16.35,65.42 17.86,42.21 15.15,30.72 -8.2,70.87 -5.88,10.18 -13.87,32.07 -16.34,43.61 -18.46,85.92 -69.75,142.62 -130.83,193.56 -26.44,-18.88 -73.77,-38.09 -92.7,0 -147.69,-4.34 -174.98,73.3 -144.49,190.83 11.62,44.72 -19.62,106.75 16.37,139.03 127.6,86 209.92,231.6 400.72,245.33 10.03,-10.87 22.53,-19.29 29.98,-32.7 109.69,15.97 200.08,-100.95 128.12,-199.02"
         style="fill:#3b393d;fill-opacity:1;fill-rule:evenodd;stroke:none"
         id="path2689" /><path
         d="m 4720.58,3839.75 c 33.35,-136.63 94.01,-360.78 81.77,-531.56 -3.58,-50.21 -25.39,-95.88 -29.98,-147.22 -4.12,-45.72 9.1,-96.63 -35.46,-95.41 -67.62,1.88 1.39,147.27 2.74,190.83 6.43,209.38 -48.71,371.24 -24.54,575.18 -0.1,4.65 2.04,7.07 5.47,8.18"
         style="fill:#3b393d;fill-opacity:1;fill-rule:evenodd;stroke:none"
         id="path2691" /><path
         d="m 4595.16,3406.34 c 5.88,27.83 -23.04,50.67 -21.81,76.31 1.49,30.65 49.59,42.6 70.88,19.05 23.79,-26.29 4.7,-115.24 -49.07,-95.36"
         style="fill:#3b393d;fill-opacity:1;fill-rule:evenodd;stroke:none"
         id="path2693" /><path
         d="m 4636.03,3166.41 c 4.33,-36.47 -7.37,-65.08 -32.68,-65.39 -33.33,-0.46 -45.46,23.36 -44.08,47.17 2.18,37.4 37.68,74.79 76.76,18.22"
         style="fill:#3b393d;fill-opacity:1;fill-rule:evenodd;stroke:none"
         id="path2695" /><path
         d="m 4764.18,1217.34 c -24.6,9.75 -39.22,-1.94 -54.34,-13.63 -15.13,-11.68 -30.77,-23.37 -57.41,-13.63 -13.79,-31.13 -40.26,-53.4 -73.61,-57.27 71.96,4.07 193.94,1.86 267.14,16.34 -39.52,16.54 -48.2,54.9 -81.78,68.19 m -1166.74,13.62 c -36.6,-4.85 -57.84,-60.73 -84.49,-84.48 18.49,8.14 47.78,8.13 78.07,8.12 64.66,-0.01 133.92,-0.02 112.76,79.09 -23.16,-14.9 -46,-10.6 -67.86,-6.29 -13.24,2.61 -26.11,5.21 -38.48,3.56 m 84.53,79.07 c 88.56,6.18 -13.79,85.52 0,0 m 1016.8,1330.27 c -41.81,-29.53 -87.28,-95.56 -125.42,-133.55 -21.08,-21.04 -60.41,-36.6 -65.41,-62.74 -8.69,-45.15 24.74,-115.92 32.7,-174.43 9.78,-71.65 43.29,-178.61 -8.16,-212.64 41.67,-74.27 31.44,-161.08 24.53,-250.82 -1.44,-18.81 -1.54,-44.7 2.74,-62.68 28.91,-122.42 109.32,-237.17 130.83,-362.53 47.59,83.19 53.19,208.5 84.53,308.05 21.57,51.08 44.48,100.87 59.95,158.09 0.11,9.89 11.24,8.76 13.63,16.34 4.83,9.69 -2.14,31.18 10.91,32.73 0.87,-255.31 -61.58,-447.33 -106.32,-656.97 78.76,-35.72 183.02,-45.97 248.07,-95.41 55.36,18.14 58.94,-23.1 87.24,-35.47 27.89,-12.16 70.93,-9.62 113.23,-7.09 68.49,4.1 135.04,8.2 132.11,-50.13 -1.19,-23.03 -35.13,-42.57 -59.99,-46.33 -46.48,-7.048 -102.99,-3.38 -160.04,0.28 -58.52,3.76 -117.63,7.52 -167.08,-0.28 -10.19,-23.759 -16.4,-49.079 -51.79,-54.54 -49.38,-7.629 -116.35,-4.258 -184.48,-0.879 -87.03,4.308 -175.96,8.621 -232.59,-9.992 73.97,-31.969 245.37,16.793 267.15,-60.008 22.53,-79.59 -75.21,-78.36 -161.25,-77.129 -29.31,0.418 -57.27,0.828 -78.65,-1.953 8.79,-104.821 -103.82,-102.699 -224.7,-100.578 -31.52,0.558 -63.61,1.109 -94.25,-0.243 -99.54,-4.378 -308.69,-35.457 -269.87,59.961 -65.86,21.332 -173.02,1.43 -179.91,81.789 -100.9,29.911 -304.1,-16.339 -269.87,130.832 -54.17,44.44 -285.78,-9.738 -291.7,68.15 -3.89,51.1 67.46,47.21 130.98,43.33 30.1,-1.84 58.45,-3.68 76.21,0.33 28.58,93.46 153.1,154.38 212.63,226.24 37.73,45.52 84.49,103.05 27.24,149.9 -9.02,60.87 52.19,83.71 70.91,136.29 81.06,227.94 128.99,511.4 256.21,695.17 -30.88,-176.29 -58.2,-379.75 -171.7,-482.54 1.23,-86.34 11.39,-177.37 -8.2,-253.51 -13.12,-51.03 -47.42,-98.61 10.93,-128.09 93.77,123.25 217.19,256.55 308.02,384.33 47.06,66.24 23.69,185.78 106.32,231.71 -0.88,11.91 -7.17,18.29 -8.2,30 50,117.22 123.09,211.34 207.19,294.43 -23.83,-78.86 -44.58,-160.77 -92.68,-215.36 1.31,-12.21 -1.39,-20.47 -2.76,-30 -26.8,-47.68 -50.2,-98.81 -70.85,-152.63 -61.21,-52.43 -66.88,-160.32 -109.04,-231.7 -55.47,-76.35 -117.12,-146.4 -193.54,-201.76 -0.49,-125.41 -100.31,-193.1 -136.31,-286.24 -20.16,-52.17 -18.12,-112.17 -59.96,-152.64 293.72,-1.28 568.98,-10 855.97,-27.26 6.91,20.88 -38.89,26.33 -40.9,49.07 -0.96,10.77 19.51,29.23 21.8,43.61 10.75,66.65 -26.05,155.36 27.27,179.9 -3.17,11.39 -8.74,20.36 -13.63,30 24.95,97.73 -64.75,246.04 -76.34,378.92 -1.88,21.76 3.5,41.76 2.73,62.69 -7.37,200.04 -14.51,411.6 -65.44,575.21 -9.69,11.18 -36.24,5.52 -40.88,21.81 41.27,135 172.87,179.69 299.88,228.96"
         style="fill:#3b393d;fill-opacity:1;fill-rule:evenodd;stroke:none"
         id="path2697" /><g
         id="g2717"><g
           id="g2719"
           clip-path="url(#clipPath2723)"><path
             d="m 4833.97,1983.17 c -10.9,0 -21.9,0.06 -32.78,0.18 10.87,43.17 31.68,88.18 44.77,133.54 31.32,108.57 59.15,234.18 76.35,357.12 18.16,129.95 19.65,267.38 49.04,384.39 2.62,10.31 14.84,25.42 10.93,38.14 -4.95,16.08 -33.64,20.15 -38.2,32.7 -8.14,22.65 3.64,69.95 5.46,111.78 10.52,239 0.42,548.57 -70.87,733.31 -76.44,30.03 16.64,184.33 -59.95,209.9 -48.35,-48.92 -82.73,-95.67 -166.29,-130.88 -73.9,-31.05 -108.05,-136.6 -190.83,-163.53 -6.71,-2.19 -13.21,-3.17 -19.38,-3.17 -17.79,0 -32.96,8.19 -43.33,19.51 -9.67,-2.06 -17.96,-3 -24.96,-3 -53.46,0 -32.96,54.39 3.16,76.61 60.51,37.19 163.07,38.84 220.8,79.05 21.03,14.66 36.26,36.41 57.27,57.24 64.27,63.79 145.31,128.1 193.53,179.93 76.68,82.42 114.46,180.51 193.54,248.09 45.52,38.83 96.49,70.17 125.41,122.64 -20.87,22.98 -12.63,65.28 -46.34,79.04 5.41,16.42 10.41,33.21 16.34,49.09 -23.6,14.52 -72.55,16.73 -127.66,16.73 -12.05,0 -24.39,-0.1 -36.83,-0.21 -12.44,-0.1 -24.98,-0.21 -37.41,-0.21 -91.85,0 -177.86,5.77 -177,60 0.46,29.95 30.84,32.9 61.09,32.9 7.03,0 14.05,-0.16 20.7,-0.18 -2.36,28.29 48.24,44.98 54.5,70.88 15.8,65.39 -39.09,107.4 0,166.29 30.08,45.28 65.47,76.31 109.05,109.06 -17.5,77.8 43.35,97.46 98.15,111.74 11.57,49.32 39.12,82.63 92.68,89.95 -24.83,96.86 58.45,140.63 140.9,140.63 86.1,0 171.29,-47.68 131.68,-132.43 33.92,-14.64 88.14,-50.72 46.34,-92.68 70.47,-6.05 171.16,-41.66 125.42,-119.95 69.3,-17.18 170.72,-89.03 193.55,-171.74 13.17,-47.83 15.66,-153.19 -32.51,-153.2 -6.41,0 -13.72,1.87 -22.02,5.99 -16.39,89.5 16.65,222.28 -59.98,261.69 -7.01,-0.26 -3.89,-10.63 -10.9,-10.89 16.7,-22.38 37.86,-40.29 49.08,-68.15 1.33,-61.32 -33.05,-86.93 -84.55,-95.42 -20.19,-39.98 -58.96,-56.29 -100.51,-56.29 -62.81,0 -131.99,37.26 -152.99,86.29 -17.07,-13.69 -42.35,-19.95 -68.12,-19.95 -23.31,0 -47.01,5.12 -65.44,14.49 -9.9,-39.42 -59.29,-59.42 -108.22,-59.43 -43.82,0 -87.25,16.03 -101.68,48.52 20.28,-9.46 38.69,-13.15 55.94,-13.15 50.58,0 91.26,31.76 140.32,43.11 -19.84,91.24 25.26,130.24 73.66,130.24 40.94,0 84.25,-27.9 92.61,-75.71 3.66,-20.82 -7.17,-46.63 0,-65.4 11.97,-31.23 51.1,-44.97 91.52,-44.97 38.45,0 78.06,12.43 96.58,34.05 -27.27,68.5 -15.52,144.53 67.57,144.53 1.09,0 2.19,-0.01 3.3,-0.04 v 0 0 c -6.97,23.72 -24.76,28.11 -45.82,28.11 -6.19,0 -12.65,-0.38 -19.21,-0.76 -6.56,-0.38 -13.21,-0.76 -19.76,-0.76 -4.51,0 -8.98,0.18 -13.33,0.67 -11.73,1.3 -25.42,1.79 -40.33,1.79 -23.34,0 -49.66,-1.21 -76.2,-2.42 -26.53,-1.2 -53.28,-2.41 -77.43,-2.41 -68.91,0 -116.74,9.83 -78.65,57.55 -22.83,19.89 -79.32,6.09 -95.41,32.72 53.34,10.87 109.58,14 160.7,14 36.28,0 69.99,-1.58 98.28,-3.09 3.11,-19.77 -11.55,-21.78 -28.19,-21.78 -2.11,0 -4.26,0.04 -6.4,0.07 -2.14,0.03 -4.28,0.06 -6.39,0.06 -10.01,0 -19.3,-0.72 -24.43,-5.6 62.28,-7.72 122.67,-31.75 182.62,-32.72 v 0 0 c -39.66,53 -88.04,97.29 -174.46,103.57 3.63,15.44 31.21,6.99 40.91,16.38 -23.86,23.76 -61.74,44.68 -105.59,44.68 -5.61,0 -11.31,-0.34 -17.1,-1.06 -10.92,-7.64 4.03,-28.97 -10.89,-35.45 -3.25,-0.97 -6.52,-1.36 -9.82,-1.36 -6.9,0 -13.92,1.7 -21.1,3.41 -7.18,1.71 -14.52,3.41 -22.03,3.41 -4.99,0 -10.06,-0.75 -15.21,-2.75 -7.8,-12.02 6.11,-20.57 0,-32.69 -14.61,-14.58 -41.78,-16.64 -70.98,-16.64 -8.97,0 -18.12,0.19 -27.17,0.28 8.34,-32.67 -6.46,-65.61 -29.97,-81.78 6.45,-10.82 25.18,-9.36 40.88,-10.9 -42.5,-32.91 -118.14,-32.68 -163.56,-62.7 79.74,-24.09 60.67,-144.62 -15.08,-144.62 -14.01,0 -29.97,4.13 -47.6,13.75 -1.65,-39.65 1.66,-81.52 0,-128.09 102.08,-7.11 225.01,-9.15 353.38,-9.15 165.83,0 340.74,3.4 491.68,3.67 0.13,0 0.26,0 0.39,0 41.38,0 126.75,-12.63 133.18,-49.06 5.74,-32.49 -23.62,-64.39 -38.15,-73.6 -18.27,-11.56 -40.53,-14.89 -64.44,-14.89 -16.22,0 -33.2,1.53 -50.22,3.06 -17.02,1.53 -34.07,3.06 -50.44,3.06 -14.77,0 -28.98,-1.25 -42.09,-4.86 -12.79,-3.52 -15.49,-21.88 -29.97,-32.72 -11.23,-8.39 -26.03,-10.9 -42.3,-10.9 -12.07,0 -24.93,1.38 -37.74,2.76 -12.8,1.38 -25.55,2.76 -37.36,2.76 -15.98,0 -30.26,-2.53 -40.7,-10.98 -14.85,-11.98 -11.45,-44.04 -19.1,-59.95 -7.35,-15.26 -27.14,-19.22 -38.18,-32.71 -36.9,-45.32 -70.9,-105.93 -114.48,-160.83 -122.68,-154.59 -226.39,-348.82 -368.02,-479.8 20.37,-156.78 63.07,-313.25 70.87,-485.21 7.14,-157.22 -18.16,-327.09 -5.44,-479.79 2.07,-24.85 1.17,-52.43 0,-79.07 -8.35,-189.65 -35.66,-396.81 -87.21,-550.63 -11.31,-33.72 -22.88,-71.19 -30,-103.61 -7.88,-35.8 -6.54,-74.39 -9.12,-108.42 -22.7,-0.51 -45.48,-0.77 -68.31,-0.77 m 336.4,2469.92 c -27.99,-43.62 -25.16,-108.18 -51.81,-155.38 -27.51,-48.73 -81.7,-83.22 -119.95,-125.38 -38.47,-42.43 -97.15,-88.25 -117.21,-128.12 -17.94,-35.75 40.44,-116.99 49.07,-155.39 184.16,152.06 315.73,356.7 452.51,556.08 -7.6,15.77 -19.03,20.56 -32.01,20.56 -10.06,0 -21.04,-2.88 -31.89,-5.75 -10.86,-2.88 -21.58,-5.76 -31.1,-5.76 -11.67,0 -21.53,4.32 -27.66,18.23 13.64,22.11 11.5,52.59 0,76.33 -7.83,5.25 -15.33,7.25 -22.66,7.25 -22.36,0 -43.16,-18.67 -67.29,-20.86 7.99,-32.12 62.06,-41.42 70.88,-81.81 -28.14,-33.22 -21.8,-100.87 -83.14,-100.87 -0.47,0 -0.93,0 -1.4,0.01 -27.52,30.2 60.34,68.88 13.66,100.86 m 370.66,132.08 c -48.76,0 -80.15,-28.44 -103.54,-55.75 7.23,-6.69 14.6,-9.45 22.12,-9.45 34.38,0 71.9,57.68 114.2,61.24 -11.73,2.73 -22.63,3.96 -32.78,3.96 m -226.44,60.54 c -23.7,0 -44.01,-4.24 -48.83,-20.89 9.5,-16.16 24.88,-22.37 41.79,-22.37 30.5,0 65.97,20.2 80.9,38.74 -0.88,-0.03 -1.78,-0.04 -2.7,-0.04 -9.18,0 -20.83,1.14 -33.25,2.28 -12.42,1.14 -25.62,2.28 -37.91,2.28 m 310.57,-0.02 c -30.64,0 -60.74,-1.82 -89.53,-7.22 31,-4.38 65.93,-7.34 100.36,-7.34 33.84,0 67.21,2.86 95.93,10.06 -35.49,2.09 -71.48,4.5 -106.76,4.5 m -625.29,261.89 c -24.26,0 -49.58,-11.73 -47.59,-37.4 6.91,-9.37 23.9,-14.04 40.83,-14.04 15.24,0 30.44,3.78 38.22,11.31 3.27,7.65 3.01,18.81 2.72,29.99 -8,6.64 -20.93,10.14 -34.18,10.14 m 678.24,-3.53 c -12.8,0 -24.65,-17.31 -33.42,-25.7 7.03,-7.64 11.99,-17.34 26.67,-17.34 2.6,0 5.5,0.31 8.77,0.98 6.65,8.83 13.76,17.15 10.9,35.45 -4.36,4.72 -8.69,6.61 -12.92,6.61 m -337.72,22.03 c -14.26,0 -29.61,-12.69 -36.46,-50.45 10.77,-1.9 20,-2.74 27.84,-2.74 31.21,0 40.66,13.3 38.66,26.59 -2,13.3 -15.45,26.6 -30.04,26.6 m -258.95,115.97 c 1.89,0 3.87,-0.08 5.84,-0.16 1.97,-0.07 3.94,-0.15 5.84,-0.15 4.9,0 9.28,0.52 11.81,2.88 -8.52,20.17 -6.02,29.45 0,51.81 -6.07,3.53 -11.35,5.07 -15.86,5.07 -22.8,0 -25.93,-39.35 -11.38,-59.59 1.2,0.1 2.46,0.14 3.75,0.14 m 202.97,180.63 c -32.66,0 -59.65,-14.35 -70.43,-39 6.08,-1.61 12.34,-2.34 18.66,-2.34 32.94,0 67.74,19.66 90.37,35.06 -13.29,4.26 -26.35,6.28 -38.6,6.28 m -5.02,89.12 c -8.09,-17.17 -31.44,-36.23 -16.33,-60 7,-0.46 13.78,-0.67 20.33,-0.67 42.51,0 76.01,9.02 107.76,19.78 2.22,16.29 2.22,24.34 -2.7,38.15 -12.27,3.52 -23.36,4.59 -34.4,4.59 -8.58,0 -17.14,-0.65 -26.21,-1.29 -9.07,-0.65 -18.66,-1.3 -29.29,-1.3 -6.02,0 -12.37,0.21 -19.16,0.74"
             style="fill:url(#radialGradient2731);fill-opacity:1;fill-rule:nonzero;stroke:none"
             id="path2733" /></g></g><g
         id="g2735"><g
           id="g2737"
           clip-path="url(#clipPath2741)"><path
             d="m 3976.97,2264.11 c -0.21,0 -0.41,0 -0.61,0 -10.77,6.51 -6.5,28.05 -16.34,35.42 31.03,127.99 34.64,269.85 70.88,389.85 12.37,41.03 59.43,106.19 59.94,141.75 0.42,25.98 -23.32,44.44 -21.77,73.62 3.84,73.34 77.65,138.93 109.02,201.69 22.35,44.76 33.48,90.25 59.98,133.58 -13.82,19.41 -31.71,15.49 -40.88,29.97 -42.58,67.12 24.77,137.87 24.53,193.56 -0.23,50.88 -45.46,78.64 -62.73,117.22 -21.62,-13.79 -62.89,-7.99 -73.58,-32.73 12.37,-27.6 59.4,-20.52 89.98,-29.95 26.96,-76.57 -30.29,-147.27 -115.64,-147.27 -1.43,0 -2.86,0.01 -4.31,0.06 -24.05,3.59 -30.72,106.13 -43.01,106.13 -3.93,0 -8.44,-10.47 -14.27,-37.99 -8.45,-39.95 -24.12,-154.62 -51.8,-174.46 -41.14,7.24 -92.63,33.86 -98.09,68.14 -11.89,74.13 99.43,115.75 100.82,177.19 -39.07,9.33 -88.61,23.82 -109.02,59.98 -35.49,-7.71 -50.18,-48.84 -76.34,-59.98 -14.64,-6.23 -32.53,-0.79 -43.61,-8.19 -45.49,-30.31 -18.25,-117.94 -89.95,-130.82 -66.7,52.98 -88.04,116.13 -32.73,204.43 -2.88,-0.15 -5.7,-0.22 -8.44,-0.22 -71.6,-0.01 -93.88,49.99 -85.39,99.98 8.5,49.99 47.79,99.99 99.35,99.99 12.11,0 24.89,-2.76 38.11,-8.92 74.7,35.45 25.6,98.81 -2.48,98.81 -14.79,0 -23.74,-17.58 -5.69,-66.08 -40.57,11.54 -56.55,89.79 -19.07,117.19 14.09,7.07 27.64,10.04 40.5,10.04 40.92,0 74.99,-30.04 98.52,-53.65 47.19,14.59 98.71,24.84 119.95,65.44 -33.5,68.46 56.68,115.78 92.68,182.63 12.02,22.32 9.59,49.46 16.35,65.42 17.86,42.21 15.15,30.72 -8.2,70.87 -5.88,10.18 -13.87,32.07 -16.34,43.61 -18.46,85.92 -69.75,142.62 -130.83,193.56 -15.29,-10.91 -37.55,-21.94 -57.28,-21.94 -14.39,0 -27.43,5.87 -35.42,21.94 -3.93,-0.12 -7.8,-0.17 -11.56,-0.17 -137.56,-0.01 -162.61,76.6 -132.93,191 11.62,44.72 -19.62,106.75 16.37,139.03 127.6,86 209.92,231.6 400.72,245.33 10.03,-10.87 22.53,-19.29 29.98,-32.7 6.83,1 13.59,1.48 20.24,1.48 100.08,0 175.36,-108.53 107.88,-200.5 19.76,-14.98 20.61,-39.5 30,-59.94 25.9,-56.49 61.72,-102.25 92.68,-152.69 -39.23,-7.12 -67.76,-24.9 -92.68,-46.33 5.31,-3.9 10.99,-5.41 17.01,-5.41 10.14,0 21.24,4.27 33.21,8.54 11.96,4.26 24.79,8.53 38.36,8.53 3.15,0 6.34,-0.23 9.56,-0.74 9.15,8.5 -8.2,17 0,24.52 37.4,-17.1 75.26,-33.75 98.12,-65.42 25.85,-127.78 136.29,-196.8 119.95,-348.92 5.69,-2.29 11.88,-3.18 18.17,-3.18 15.1,0 30.84,5.15 41.79,8.62 8.16,9.1 18.58,15.96 24.53,27.24 112.32,17.74 152.65,113.23 234.43,171.76 67.73,48.47 149.54,123.09 223.56,147.18 11.56,3.77 21.5,5.75 30.25,5.75 14.29,0 25.4,-5.28 35.16,-16.64 -34.32,-83.8 -131.41,-133.46 -209.89,-185.36 -83.89,-55.47 -160.52,-115.21 -231.71,-174.46 -161.16,-32.4 -311.37,-75.75 -417.09,-163.56 -165.57,-59.2 -111.86,-373.02 -2.73,-455.26 17.26,-43.54 12.58,-89.37 16.37,-139 1.62,-21.24 19.74,-39.26 24.5,-62.74 13.51,-66.13 16.04,-188.07 -10.87,-258.92 -25.34,-66.67 -52.86,-137.32 -122.68,-155.41 1.9,-19.03 29.5,-12.3 32.73,-29.98 175.29,-5.86 344.48,-53.78 519.45,-53.78 37.35,0 74.96,2.19 112.95,7.43 10.83,-19.03 3.41,-40.36 -5.41,-51.81 -31.9,-41.27 -119.24,-56.9 -214.01,-56.9 -111.76,0 -233.85,21.73 -287.59,48.76 -50.5,25.42 -87.04,87.84 -149.93,92.63 -19.51,-94.07 -52.73,-201.34 -79.07,-286.19 -32.53,-104.74 -32.17,-221.76 -68.15,-316.24 -6.5,-17.05 -19.21,-35.42 -48.46,-35.42 m 115.52,1256.66 c -24.43,0 -49.53,-23.16 -45.25,-57.22 24.25,0.57 61.96,10.55 84.51,21.81 -6.62,24.86 -22.79,35.41 -39.26,35.41 m -154.61,49.5 c 19.24,0 35.85,-3.09 41.21,-19.47 0.67,35.67 43.51,29.2 65.42,43.63 -3.75,-0.99 -7.39,-1.44 -10.92,-1.44 -30.49,0 -53.31,33.51 -73.57,36.85 -1.59,0.26 -3.15,0.39 -4.69,0.39 -13.18,0 -24.71,-9.05 -38.22,-18.1 -13.52,-9.05 -29.03,-18.09 -50.18,-18.09 -2.51,0 -5.11,0.12 -7.79,0.39 3.27,-21.5 21.46,-25.29 42.82,-25.29 5.83,0 11.9,0.28 17.97,0.56 6.06,0.29 12.13,0.57 17.95,0.57 m -179.59,62.31 c -3.79,-19.7 9.15,-41.96 2.73,-60 27.6,7.52 19.23,52.52 -2.73,60 m -156.56,73.78 c -21.46,0 -38.24,-17.71 -28.8,-60.17 21.72,-5.57 35.37,-19.25 62.72,-19.25 1.75,0 3.55,0.06 5.42,0.18 9.85,5.61 14.54,16.36 19.1,27.26 -7.33,31.8 -35.55,51.98 -58.44,51.98 m 464.44,106.95 c -37.83,0 -74.28,-38.04 -106.15,-52.64 22.77,-30.95 6.56,-100.89 60.32,-100.9 0.77,0 1.56,0.02 2.36,0.05 8.97,61.93 47.58,94.2 62.71,149.95 -6.44,2.46 -12.86,3.54 -19.24,3.54 M 3843,3718.88 c -10.17,0 -19.85,-0.69 -27.47,-1.82 0.03,-23.94 27.75,-39.61 50.95,-39.61 17.91,0 33.12,9.34 30.83,31.42 -11.68,7.28 -33.98,10.01 -54.31,10.01 m -14.96,104.09 c -27.16,0 -38.76,-12.63 -36.42,-25.27 2.34,-12.64 18.63,-25.27 47.22,-25.27 6.2,0 12.97,0.59 20.3,1.9 11.5,7.63 9.31,32.3 2.74,43.59 -13.18,3.54 -24.44,5.05 -33.84,5.05 m 82.91,71.29 c -2.68,-2.81 -5.39,-5.5 -8.2,-8.18 3.45,-19.14 11.47,-43.42 31.52,-43.42 3.62,0 7.63,0.79 12.09,2.55 -16.91,11.23 -22.01,34.28 -35.41,49.05 m 115.39,-5.18 c -9.52,0 -16.44,-14.15 -3.64,-16.63 2.73,5.44 12.07,4.31 10.93,13.63 -2.42,2.13 -4.93,3 -7.29,3 m -124.96,106.68 c -2.05,0 -4.29,-0.21 -6.78,-0.65 -6.79,-13.99 11.04,-29.37 26.22,-29.37 5.77,0 11.15,2.22 14.66,7.57 -13.76,5.09 -15.28,22.45 -34.1,22.45 m 257.61,509.14 c -6.18,-87.05 -33.81,-179.68 -27.24,-280.82 27.81,-30.72 63.74,-68.48 117.22,-79.02 5.45,-1.08 11.26,-1.59 17.31,-1.59 61.82,0 149.77,53.16 154.42,99.73 8.86,88.64 -16.55,186.66 -79.03,237.16 -15.85,-9.69 -31.92,-13.41 -48.06,-13.41 -45.1,0 -90.83,29.02 -134.62,37.95 m -40.87,-2.72 c -50.7,-24.62 -110.22,-81.02 -87.22,-171.76 10.31,-0.59 13.25,-8.55 21.8,-10.9 45,35.54 52.32,119.06 65.42,182.66 m 1.89,293.06 c -6,0 -12.1,-1.29 -18.24,-4.12 -35.25,-87.52 -210.05,-44.09 -237.17,-133.59 -13.91,-45.87 -12.47,-62.01 -46.33,-95.4 7.11,-10.46 11.7,-21.83 21.8,-27.23 37.49,-20.15 96.39,-75.8 137.12,-75.8 4.52,0 8.81,0.68 12.83,2.18 65.78,24.45 98.1,140.45 185.37,144.48 1.03,12.85 -18.46,5.16 -16.4,19.06 74.1,26.41 24.11,170.42 -38.98,170.42 m 75.5,-251.42 c -18.28,0 -34.31,-3.44 -41.96,-14.4 12.64,-5.62 34.85,-9.16 56.74,-9.16 23.93,0 47.49,4.23 57.78,14.64 -17.61,2.32 -47.24,8.92 -72.56,8.92 m -398.09,348.62 c -32.78,0 -71.82,-19.33 -85.47,-35.9 -41.57,-50.43 -8.66,-177.08 -89.98,-190.82 -0.93,-95.62 114.23,-98.28 174.49,-141.76 15.83,20.35 -3.92,69.6 16.34,89.97 -7.11,9.25 -32.76,-0.05 -38.14,10.89 82.01,31.57 78.76,153.39 155.36,188.11 64.64,29.28 139.93,12.32 193.56,38.14 -15.62,30.43 -35.52,58.17 -21.81,103.61 -10.93,8.15 -33.91,4.27 -40.87,16.37 -7.01,11.77 2.99,24.92 -2.74,35.42 -3.7,0.36 -7.67,0.54 -11.84,0.54 -29.87,0 -69.93,-9.24 -94.49,-30.54 -19.03,-16.49 -45.94,-35.68 -57.23,-49.05 -27.1,-32.07 -27.18,-47.06 -42.54,-47.06 -6.9,0 -16.89,3.02 -33.79,8.88 -6.39,2.22 -13.46,3.2 -20.85,3.2"
             style="fill:url(#radialGradient2749);fill-opacity:1;fill-rule:nonzero;stroke:none"
             id="path2751" /></g></g><g
         id="g2753"><g
           id="g2755"
           clip-path="url(#clipPath2759)"><path
             d="m 4738.46,3065.54 c -0.51,0 -1.02,0 -1.55,0.02 -67.62,1.88 1.39,147.27 2.74,190.83 6.43,209.38 -48.71,371.24 -24.54,575.18 -0.1,4.65 2.04,7.07 5.47,8.18 33.35,-136.63 94.01,-360.78 81.77,-531.56 -3.58,-50.21 -25.39,-95.88 -29.98,-147.22 -4.07,-45.18 8.79,-95.43 -33.91,-95.43"
             style="fill:url(#radialGradient2767);fill-opacity:1;fill-rule:nonzero;stroke:none"
             id="path2769" /></g></g><g
         id="g2771"><g
           id="g2773"
           clip-path="url(#clipPath2777)"><path
             d="m 4610.11,3403.47 c -4.64,0 -9.63,0.9 -14.95,2.87 5.88,27.83 -23.04,50.67 -21.81,76.31 0.95,19.53 20.82,31.47 40.63,31.47 11.27,0 22.52,-3.87 30.25,-12.42 21.43,-23.69 8.06,-98.23 -34.12,-98.23"
             style="fill:url(#radialGradient2785);fill-opacity:1;fill-rule:nonzero;stroke:none"
             id="path2787" /></g></g><g
         id="g2789"><g
           id="g2791"
           clip-path="url(#clipPath2795)"><path
             d="m 4602.41,3101.01 c -32.62,0 -44.51,23.59 -43.14,47.18 1.38,23.59 16.01,47.18 36.44,47.18 11.96,0 25.89,-8.07 40.32,-28.96 4.33,-36.47 -7.37,-65.08 -32.68,-65.39 -0.32,0 -0.63,-0.01 -0.94,-0.01"
             style="fill:url(#radialGradient2803);fill-opacity:1;fill-rule:nonzero;stroke:none"
             id="path2805" /></g></g><g
         id="g2807"><g
           id="g2809"
           clip-path="url(#clipPath2813)"><path
             d="m 4555.59,1995.94 c -19.63,1.8 -38.97,3.78 -58.48,5.96 -7.91,139.01 -22.2,274.74 -57.34,387.63 -9.69,11.18 -36.24,5.52 -40.88,21.81 41.27,135 172.87,179.69 299.88,228.96 -41.81,-29.53 -87.28,-95.56 -125.42,-133.55 -21.08,-21.04 -60.41,-36.6 -65.41,-62.74 -8.69,-45.15 24.74,-115.92 32.7,-174.43 9.78,-71.65 43.29,-178.61 -8.16,-212.64 10.95,-19.52 18.32,-39.92 23.11,-61 m -299.64,42.94 c -21.11,4.13 -42.23,8.5 -63.18,13.06 -2.2,7.09 -5.76,12.8 -6.51,21.35 50,117.22 123.09,211.34 207.19,294.43 -23.83,-78.86 -44.58,-160.77 -92.68,-215.36 1.31,-12.21 -1.39,-20.47 -2.76,-30 -15.05,-26.78 -29.03,-54.65 -42.06,-83.48 m -336.81,86.53 c -16.89,5.41 -33.58,10.92 -50.34,16.62 23.16,54.18 49.39,104.72 80.29,149.36 -9.46,-54.01 -18.58,-110.55 -29.95,-165.98"
             style="fill:url(#radialGradient2821);fill-opacity:1;fill-rule:nonzero;stroke:none"
             id="path2823" /></g></g></g></g></svg>
