<?xml version="1.0" encoding="UTF-8" standalone="no"?>
<!-- Created with Inkscape (http://www.inkscape.org/) -->

<svg
   version="1.1"
   id="svg2882"
   xml:space="preserve"
   width="344.72769"
   height="636.79028"
   viewBox="0 0 344.72769 636.79028"
   sodipodi:docname="others.svg"
   inkscape:version="1.1.2 (0a00cf5339, 2022-02-04)"
   xmlns:inkscape="http://www.inkscape.org/namespaces/inkscape"
   xmlns:sodipodi="http://sodipodi.sourceforge.net/DTD/sodipodi-0.dtd"
   xmlns="http://www.w3.org/2000/svg"
   xmlns:svg="http://www.w3.org/2000/svg"><defs
     id="defs2886"><clipPath
       clipPathUnits="userSpaceOnUse"
       id="clipPath2920"><path
         d="m 4341.35,1536.41 c -39.04,0 -77.87,0.89 -116.47,2.65 23.04,39.38 67.45,72.04 100.83,101.57 33.52,29.74 101.93,74.78 109.22,109.27 4.18,19.57 -8.45,37.24 -5.74,60.37 3.89,32.91 47.05,69.8 63.25,97.77 32.5,56.04 66.92,118.72 115,178.19 48.27,59.81 112.23,122.62 129.38,204.13 24.27,33.21 71.62,43.35 100.59,71.87 24.36,-24.01 19.39,-95.6 43.14,-155.26 10.92,-27.48 41.04,-53.98 45.96,-71.86 7.12,-25.67 -2.85,-61.06 2.91,-89.1 12.58,-61.81 58.23,-116.56 60.36,-163.87 0.88,-18.79 -11.27,-36.46 -11.49,-51.73 -0.84,-56.81 59.5,-78.74 63.25,-117.88 2.84,-29.77 -34.13,-55.15 -37.84,-87.69 -210.98,-57.65 -433.1,-88.43 -662.35,-88.43 m -454.25,41.05 c -21.75,3.98 -43.44,8.24 -64.99,12.78 -5.21,10.47 -9.76,21.61 -13.89,33.16 15.51,-7.58 28.15,-10.82 38.27,-10.82 43.64,0 40.35,60.32 16.37,94.22 0.68,0.02 1.36,0.03 2.04,0.03 12.42,0 24.14,-3.48 36.52,-6.97 12.39,-3.48 25.44,-6.96 40.55,-6.96 6.72,0 13.84,0.68 21.48,2.36 -20.38,-44.31 -58.32,-71.11 -76.35,-117.8 m -158.68,34.41 c -50.88,12.79 -101.13,27.13 -150.72,42.97 -28.73,13.19 -56.36,26.46 -68.44,43.31 -2.69,13.59 -1.98,30.6 -5.76,43.11 -11.56,19.15 -32.18,27.04 -53.88,27.04 -28.3,0 -58.43,-13.43 -72.62,-32.75 -0.56,-2.11 -1.1,-4.21 -1.6,-6.28 -905.02,378.19 -1540.92,1271.79 -1540.92,2313.99 0,774.51 351.31,1466.9 903.18,1926.74 H 5945 c 551.87,-459.84 903.18,-1152.23 903.18,-1926.74 0,-968.85 -549.56,-1809.29 -1353.97,-2226.62 5.2,35.03 15.87,73.81 21.66,88.49 72.87,184.64 122.18,633.17 48.87,848.08 -19.35,56.76 -34.54,253.58 -5.74,313.34 7.73,16.13 31.23,26.45 40.26,43.14 62.29,115.41 19.63,274.74 -43.14,359.38 -6.6,-118.56 -73.28,-177.65 -89.1,-293.28 -101.76,-15.17 -207.93,-25.87 -278.87,-71.86 1.91,0.02 3.81,0.03 5.72,0.03 32.03,0 64.07,-3.02 96.09,-6.04 32.04,-3.02 64.07,-6.04 96.11,-6.04 7.81,0 15.63,0.18 23.44,0.58 7.91,0.4 20.02,1 33.06,1 34.35,0 75.07,-4.15 61.81,-26.91 -14.6,-25 -136.31,-7.28 -172.5,-22.99 -26.67,-11.58 -26.2,-35.47 -66.13,-37.37 -0.47,-0.02 -0.95,-0.03 -1.42,-0.03 -21.65,0 -43.32,22.6 -73.3,25.9 -48.1,5.28 -90.97,-6.87 -103.47,34.49 -95.58,-7.99 -220.46,-25.68 -337.33,-25.68 -96.48,0 -187.51,12.06 -252.03,51.59 46.51,19.57 127.12,5.05 169.61,28.73 -52.05,12.15 -100.7,27.7 -140.86,51.72 -26.03,80.08 -22.88,152.62 5.72,227.12 16.63,-8.8 37.59,-12.61 59.74,-12.61 43.92,0 92.54,14.96 121.39,35.61 27.75,19.9 25.85,53.43 40.25,80.51 12.12,22.83 38.7,31.63 37.38,60.37 -1.09,23.67 -28.95,34.24 -23,57.48 3.32,11.09 29.22,-0.46 28.73,14.38 36.18,105.92 -51.51,189.56 -54.6,258.73 -2.56,57.23 19.07,162.39 84.45,162.39 4.24,0 8.67,-0.44 13.28,-1.37 15.29,-3.1 24.66,-22.45 45.97,-25.88 2.09,-0.33 4.5,-0.5 7.2,-0.5 42.47,0.01 154.5,40.58 145.2,80.96 -4.47,19.35 -20.14,25.75 -39.07,25.75 -31.19,0 -71.24,-17.4 -84.57,-22.84 -18.92,9.45 -35.82,20.94 -64.22,20.94 -4.19,0 -8.65,-0.26 -13.39,-0.8 3.66,32.64 -14.88,39.26 -38.29,39.26 -7.99,0 -16.55,-0.77 -24.99,-1.54 -8.44,-0.78 -16.76,-1.55 -24.27,-1.55 -16.15,0 -28.55,3.57 -30.33,18.41 -4.43,37.16 44.94,70.55 88.13,70.55 5.27,0 10.44,-0.5 15.41,-1.54 9.43,6.87 -10.47,8.48 -5.8,20.14 39.31,55.61 59.1,145.94 123.62,166.7 -21.98,-54.77 -61.61,-131.75 -94.86,-175.34 9.79,2.61 18.8,3.79 27.12,3.79 38.27,0 62.24,-24.9 82.25,-49.8 20.03,-24.91 36.1,-49.81 58.61,-49.81 12.39,0 26.74,7.56 44.76,26.83 32.35,-26.85 -5.11,-68 0,-100.62 4.72,-30.16 36.51,-43.12 70.09,-43.12 25.19,0 51.4,7.31 67.91,20.13 19.43,50.49 52.05,87.79 109.24,100.59 22.53,61.78 94.23,74.39 143.73,109.24 -18.1,-144.6 50.69,-243.7 66.13,-365.09 15,-117.94 -26.93,-247.37 5.76,-356.47 9.57,-31.94 20.31,-44.61 30.5,-44.61 22.03,0.01 41.53,59.11 41.37,110.74 -0.22,65.39 -17.64,132.2 -23,206.95 -13.61,190.26 -6.19,359.87 -92.01,468.62 128.27,91.22 249.63,223.01 313.38,385.2 24.61,62.72 -12.03,107.24 -14.39,152.4 -0.7,13.35 11.45,28.16 14.39,40.23 11.54,47.63 -19.5,136.81 -51.76,166.75 -22.08,20.49 -61.16,26.81 -104.36,26.81 -10.08,0 -20.39,-0.34 -30.76,-0.93 26.4,-32.06 86.54,-19.88 103.51,-57.48 23.92,-53.15 -21.64,-93.32 -14.38,-152.38 10.25,-29.47 54.11,-30.47 60.37,-60.38 12.55,-60.16 -65.4,-107.06 -77.63,-161 -14.59,-64.36 -41.1,-81.33 -80.48,-129.36 -65.13,-79.42 -132.32,-116.82 -212.72,-181.13 -33.56,-26.78 -86.95,-98.18 -117.91,-106.36 -2.24,-0.59 -4.63,-0.83 -7.11,-0.83 -5.12,0 -10.62,1.01 -16.05,2.01 -5.43,1.01 -10.78,2.01 -15.58,2.01 -1.52,0 -2.99,-0.1 -4.39,-0.33 -49.91,-8.27 -82.87,-43.66 -117.83,-54.61 -13.48,27.97 6.88,33.43 14.38,54.61 19.92,56.59 -10.2,116.22 -5.76,166.77 2.42,27.73 36.15,42.45 51.72,66.12 96.84,147.02 182.49,343.02 382.35,382.35 8.81,37.96 0.94,51.08 -14.36,51.08 -26.33,0 -74.67,-38.89 -97.76,-56.83 -87.65,-68.18 -203.17,-132.41 -252.97,-227.11 -27.26,-51.95 -60.64,-109.07 -91.98,-158.13 -13.87,-21.7 -18.29,-45.09 -37.33,-45.09 -5.99,0 -13.43,2.32 -23.06,7.73 7.71,88.2 -58.53,102.44 -112.1,129.38 2.1,73 -33.02,108.8 -51.75,160.96 23.08,8.55 42.05,21.2 71.87,23.02 51.91,25.7 101.95,53.28 152.37,80.48 32.13,38.36 117.67,52.19 100.62,120.75 -141.3,-42.78 -260.06,-132.8 -370.84,-215.62 -26.1,13.58 -7.12,40.7 -5.79,63.24 6.95,113.98 -75.43,118.72 -140.85,161 -41.13,26.62 -48,83.39 -91.99,83.38 1.99,31.89 -48.89,51.52 -48.89,83.36 0.03,41.56 52.84,71.31 51.77,126.5 -1.06,53.94 -32.88,62.36 -54.63,91.99 -17.78,24.23 -10.82,44.18 -34.49,60.35 -11.51,7.88 -23.16,11 -34.77,11 -34.65,0 -68.86,-27.8 -97.49,-39.74 -22.45,28.49 -67.22,42.32 -112.72,42.32 -56.53,0 -114.2,-21.34 -131.63,-62.42 -213.81,-73.67 -318.34,-256.65 -327.75,-534.72 -55.07,-18.65 -14.78,-73.6 -14.35,-103.51 0.55,-38.73 -37.29,-54.49 -28.75,-106.36 5.49,-33.41 32.61,-61.79 54.63,-74.76 29.63,-17.45 60.49,-24.76 91.14,-24.76 90.75,0 179.5,64.23 227.96,119.65 15.53,-45.03 53.74,-75.09 107.83,-75.09 3.29,0 6.63,0.11 10.02,0.33 50.48,-31.92 72.08,-92.75 109.27,-137.96 -69.8,-39.47 -107.36,-156.51 -192.63,-183.99 -84.48,-27.26 -125.49,-47.32 -155.23,-129.41 -27.5,-75.88 -76.21,-96.19 -115,-172.46 -30.36,-59.74 -53.28,-244.93 34.75,-244.9 2.69,0 5.49,0.17 8.38,0.52 -4.4,107.86 -3.69,231.64 48.88,310.51 7.39,-13.43 1.14,-34.79 -2.88,-45.98 12.39,-0.12 22.09,-2.83 25.87,-11.53 44.69,-210.38 213.91,-311 431.19,-339.21 -15.84,-50.94 -42.51,-120.68 -94.86,-126.53 -3.64,-0.41 -7.55,-0.6 -11.68,-0.6 -37.03,0 -91.8,15.25 -129.17,26.48 -94.64,28.48 -188.79,110.81 -278.87,137.99 89.53,-155.8 275.15,-240.39 508.88,-261.59 90.89,-127.66 -128.98,-174.76 -40.28,-290.39 -24.47,-2.34 -38.17,-15.44 -48.88,-31.59 -12.61,-41.99 -23.56,-85.67 -34.46,-129.37 -96.11,-175.7 -191.95,-360.96 -270.26,-560.61 -52.37,-133.56 -111.22,-278.59 -143.73,-408.22 -16.5,-65.77 -30.2,-93.14 -83.36,-123.59 -20.85,-40.85 -58.9,-87.41 -37.4,-152.4 -17.92,-11.86 -26.63,-34.9 -39.55,-51.76 m 1172.22,2311.39 c -6.3,-3.26 -9.55,-9.62 -17.23,-11.53 21.17,-187.27 -1.69,-415.42 -23,-595.09 -4.79,-40.44 -63.55,-205.59 0,-212.71 1.59,-0.18 3.15,-0.27 4.68,-0.27 71.91,0 80.06,192.97 75.8,282.02 -5.92,124.87 10.57,248.38 2.91,353.59 -5.08,69.5 -49.31,128.05 -43.16,183.99 m 155.98,-459.24 c -2.93,0 -6.04,-0.23 -9.32,-0.71 -51.97,-7.56 -62.1,-153.13 -11.52,-155.25 0.48,-0.02 0.95,-0.03 1.43,-0.03 29.93,0 53.94,39 60.89,77.99 6.95,39 -3.16,78 -41.48,78 m 7.13,496.04 c -41.64,0 -44.99,-43.03 -82.61,-51.15 -11.49,-29.74 -29.19,-53.22 -22.99,-100.65 17.3,-26.38 37.34,-37.03 57.39,-37.03 78.89,0 157.54,165.2 66.23,186.55 -6.74,1.57 -12.69,2.28 -18.02,2.28 m 572.88,986.63 c 0.22,-39.19 0.66,-102.7 37.34,-115.01 21.54,50.7 -21.84,82.58 -37.34,115.01 m -363.8,20.17 c -4.26,0 -7.67,-0.92 -9.93,-2.94 -1.69,-5.01 0.75,-5.9 4.1,-5.9 0.92,0 1.91,0.07 2.9,0.14 0.99,0.06 1.97,0.13 2.89,0.13 0.57,0 1.11,-0.03 1.61,-0.09 0,2.87 0,5.72 0,8.62 -0.54,0.02 -1.06,0.04 -1.57,0.04 m 233.19,101.01 c -96.44,0 -181.94,-59.67 -228.78,-95.29 4.99,-2.67 9.78,-3.75 14.42,-3.75 16.96,0 31.76,14.45 45.96,18.11 64.18,16.53 228.75,-5.93 241.5,40.23 6.92,25.03 -14.92,34 -34.49,37.4 -13.02,2.26 -25.91,3.3 -38.61,3.3 M 5133.88,1664.26 c 13.4,31.53 17.61,68.91 -0.36,97.14 40.5,30.42 87.55,54.27 94.86,117.88 -5.13,1.54 -9.86,2.22 -14.25,2.22 -17.9,0 -30.35,-11.35 -42.06,-22.7 -11.71,-11.35 -22.69,-22.7 -37.67,-22.7 -0.29,0 -0.59,0.01 -0.88,0.01 39.52,297.8 175.5,524.08 255.86,790.61 -51.92,-23.84 -71.58,-104.73 -112.14,-149.46 -66.8,-176.58 -146.09,-340.75 -195.47,-534.76 -40.36,61.27 -112.55,153.68 -103.48,247.24 2.85,29.57 -2.18,63.84 -2.85,97.74 -2.61,124.38 -27.07,279.34 -48.93,376.61 -54.44,90.51 -146.15,114.3 -267.35,135.09 -16.96,2.92 -29.81,4.28 -39.23,4.28 -43.74,0 -13.32,-29.3 24.86,-67.5 39.79,-39.8 72.7,-74.58 138.02,-89.1 85.16,-160.44 -171.21,-196.95 -112.12,-347.89 -17.67,-138.53 -168.85,-143.53 -178.25,-290.34 -9.9,-3.5 -15.19,-11.66 -23,-17.25 -15.82,3.89 -31.05,5.68 -45.78,5.68 -139.47,0 -234.02,-160.29 -365.32,-209.78 -37.21,-14.03 -78.42,-24.22 -123.62,-25.88 138.68,239.81 413.93,343.12 618.11,517.49 22.1,4.67 34.42,19.19 54.61,25.85 -280.39,-15.73 -450.87,-216.06 -641.11,-350.72 98.59,251.1 195.05,534.87 319.13,779.06 52.05,102.47 105.27,178.3 132.24,298.98 72.83,-63.98 155.28,-75.51 253.2,-75.51 27.61,0 56.45,0.91 86.64,1.83 30.18,0.92 61.7,1.83 94.73,1.83 2.7,0 5.42,0 8.14,-0.01 118.69,-0.57 238.07,-12.39 348.94,-12.39 92.67,0 179.4,8.26 254.77,38.26 26.25,-113.67 -44.39,-343.39 60.39,-393.84 3.89,-262.19 -56.37,-529.26 -80.51,-753.23 -2.19,-20.31 -7.73,-38.5 -15.52,-55.24 -43.87,-21.15 -88.46,-41.06 -133.71,-59.68 61.54,162.99 137.5,322.14 189.49,491.54 -137.87,-133.35 -216.89,-345.25 -307.76,-536.73 -14.1,-4.98 -28.41,-9.89 -42.62,-14.63 m -451.69,930.82 c -245.58,-13.18 -397.08,-145.27 -537.61,-273.11 -6.55,-18.38 -27.34,-43.27 -11.47,-66.1 100.76,53.51 175.97,157.43 293.23,204.1 67.08,39.25 133.84,78.88 206.98,112.14 8.78,2.72 8.99,13.97 20.11,14.35 1.72,2.43 5.38,2.92 9.53,2.92 1.4,0 2.87,-0.05 4.33,-0.11 1.47,-0.06 2.94,-0.11 4.35,-0.11 5.49,0 10.12,0.86 10.55,5.92 m 507.38,207.11 c -0.44,0 -0.91,-0.03 -1.42,-0.1 -5.73,-35.71 -33.21,-50.97 -48.89,-77.6 -54.58,-93.02 -101.19,-202.42 -135.09,-319.16 -13.57,-46.58 -36.07,-127.69 25.85,-137.97 23.81,206.19 113.37,361.92 163.87,531.82 -0.53,1.94 -1.89,3.01 -4.32,3.01 M 4179.1,1706.8 c 36.53,45.91 93.21,96.43 146.61,135.1 -0.38,-19.34 -2.28,-52.81 0,-71.88 -5.28,0.52 -10.28,0.76 -15.04,0.76 -65.21,0 -84.55,-45.85 -131.57,-63.98 m 287.46,1730.63 c -12.06,49.34 -26.36,111.52 -20.11,169.61 21.91,-13.56 51.1,-19.81 77.6,-28.76 -23.56,-48.03 41.64,-139.92 -57.49,-140.85 m 144.66,38.03 c -6.3,0 -12.44,0.65 -18.15,2.2 6.33,60.94 -48.09,61.18 -34.53,129.38 23.17,0.08 64.84,6.36 100.06,6.36 40.43,0 72.37,-8.29 58.05,-43.76 -10.03,-24.95 -62.46,-30.01 -51.72,-83.39 -14.48,-4.93 -34.8,-10.79 -53.71,-10.79 m -82.02,183.58 c -28.17,0 -55.45,4.67 -77.01,14.11 -165.18,72.29 -323.56,164.08 -388.12,330.59 11.04,14.87 30.17,21.61 46.02,31.61 -0.25,7.41 -3.59,9.58 -8.45,9.58 -3.42,0 -7.58,-1.07 -11.95,-2.14 -4.36,-1.07 -8.92,-2.14 -13.12,-2.14 -4.96,0 -9.43,1.49 -12.5,6.23 20.99,62.98 67.26,84.77 122.57,84.77 96.68,0 220.92,-66.63 285.69,-96.3 -31.81,-30.47 -51.87,-72.65 -94.87,-91.98 -29.4,62.6 -128.15,55.89 -195.5,80.51 46.28,-41.91 93.09,-83.22 152.34,-112.15 -9.22,-69.96 0.82,-131.83 67.08,-131.82 7.57,0 15.87,0.81 24.96,2.5 -0.99,-45.35 23.27,-61 52.93,-60.99 34.17,0 75.52,20.78 93.65,40.85 5.82,-23.89 17.04,-42.4 23.02,-66.1 33.49,13.45 62.65,31.25 86.25,54.6 -1.32,-60.53 -80.13,-91.73 -152.99,-91.73 m -334.45,253.33 c -12.96,0 -25.41,-1.26 -35.79,-3.46 37.85,-17.46 66.12,-57.95 114.85,-57.95 2.85,0 5.77,0.14 8.77,0.43 9.49,45.4 -42.32,60.98 -87.83,60.98 m 303.45,-138.61 c 1.94,107.48 119.06,149.17 163.85,232.84 -32.37,-76.9 -72.64,-195.59 -163.85,-232.84 m 144.5,13.94 c -1.18,0 -2.39,0.14 -3.62,0.42 -44.34,10.02 39.22,133.95 43.11,158.13 9.99,-38.19 -4.16,-158.56 -39.49,-158.55 m -237.46,48.94 c -4.36,0 -8.84,0.91 -13.42,3.23 46.91,124.65 146.07,197.03 267.34,247.23 -41.58,-98.28 -154.3,-150.36 -215.59,-238.59 -11.66,-2.66 -24.45,-11.87 -38.33,-11.87 m 288.41,112.5 c -6.11,1.79 -2.65,17.69 0,20.14 6.18,-1.82 2.73,-17.73 0,-20.14 m -178.22,123.61 c -76.81,56.38 -175.88,90.51 -264.46,135.14 21.04,68.99 84.37,95.79 143.73,126.45 20.11,-26.34 78.82,-54.25 135.11,-66.1 12.22,-2.57 25.73,-3.85 39.17,-3.85 55.72,0.01 110.32,21.89 67.19,64.21 17.18,18.29 39.4,22.31 63.68,22.31 9.5,0 19.32,-0.62 29.26,-1.23 9.96,-0.62 20.04,-1.23 30.08,-1.23 14.86,0 29.63,1.34 43.71,6.03 2.26,-20.41 -4.33,-32.05 -2.86,-51.73 -60.12,-23.23 -110.27,-80.67 -94.85,-161.01 -61.22,-25.06 -116.94,-55.56 -189.76,-68.99 m 595.14,19.99 c -2.56,0 -5.5,0.9 -8.68,3.01 -1.88,10.51 6.25,11.03 5.76,20.11 2.88,0 5.76,0 8.64,0 8.82,-8.87 4.49,-23.12 -5.72,-23.12 m -624.15,220.89 c -29.59,0 -60.13,6.88 -77.34,17.85 6.68,13.86 17.35,18.73 30.1,18.73 30.03,0 71.53,-27.04 99.28,-27.34 -14.44,-6.41 -33.04,-9.24 -52.04,-9.24 m 73.86,95.15 c -131.54,0.01 -239.25,96.62 -269.08,198.68 92.51,57.93 163.02,137.88 238.61,212.76 21.21,-22.88 40.58,-47.59 71.87,-60.39 31.02,14.05 25.2,64.87 40.25,94.87 82.58,-16.95 37.21,-84.31 45.99,-146.63 8.75,-61.92 66.35,-111.45 43.11,-204.11 -11.36,-45.28 -78.39,-84.14 -129.35,-91.99 -14.02,-2.16 -27.83,-3.19 -41.4,-3.19 m 272.26,57.31 c -4.94,0 -10.07,1.94 -15.27,6.27 24.36,32.18 26.59,86.48 34.53,135.1 46.49,-22.66 19.41,-141.37 -19.26,-141.37 m -952.45,135.62 c -86.44,28.08 5.24,137.07 34.52,166.76 -12.75,21.74 -50.1,18.9 -54.63,48.87 27.15,236.39 136.66,390.38 287.49,503.08 0.48,0.03 0.95,0.05 1.4,0.05 3.37,0 5.89,-0.86 8.41,-1.72 2.52,-0.86 5.05,-1.71 8.42,-1.71 1.41,0 2.98,0.15 4.76,0.51 1.49,14.9 -10.44,16.4 -8.62,31.65 9.28,1.86 17.63,2.73 25.2,2.73 91.89,0 66.55,-127.67 130.03,-140.77 3.75,-0.77 7.44,-1.13 11.07,-1.13 19.89,0 38.01,10.63 55.09,21.25 17.07,10.63 33.09,21.25 48.78,21.25 14.49,0 28.69,-9.07 43.17,-35.58 -15.96,-82.91 -127.83,-81.45 -109.24,-189.78 -15.19,-8.56 -30.14,-11.25 -44.84,-11.25 -12.51,0 -24.85,1.95 -37.01,3.9 -12.15,1.96 -24.13,3.91 -35.93,3.91 -6.79,0 -13.52,-0.64 -20.19,-2.31 -32.07,-7.96 -27.78,-41.73 -37.4,-71.86 -19.49,-60.94 -86.59,-133.84 -137.97,-160.97 -1.42,-1.22 -2.99,-1.68 -4.7,-1.68 -2.69,0 -5.72,1.15 -9.01,2.3 -3.29,1.15 -6.85,2.3 -10.6,2.3 -0.52,0 -1.04,-0.02 -1.56,-0.06 -11.64,-3.71 -14.9,-15.81 -23,-22.98 18.24,-34.93 -11.42,-82.67 -5.76,-132.25 -16.97,-20.37 -37.08,-30.94 -54.71,-30.94 -27.42,0 -48.84,25.6 -43.03,79.81 -22.99,-11.51 -5.22,-63.8 -20.14,-83.38 m 172.51,66.11 c -18.59,14.01 -27.01,38.19 -22.99,74.76 46.31,12.23 91.54,40.58 126.47,54.63 4.56,-27.9 1.77,-72.45 -5.73,-97.76 -7.05,0.97 -13.58,1.41 -19.66,1.41 -37.05,0 -57.59,-16.5 -78.09,-33.04 m 175.37,31.63 c -16.47,39.12 -35.36,75.82 -37.4,129.4 42.76,24.33 48.7,100.61 106.3,100.61 0.03,0 0.06,0 0.09,0 -20.77,-78.89 -7.18,-192.16 -68.99,-230.01"
         id="path2918" /></clipPath><radialGradient
       fx="0"
       fy="0"
       cx="0"
       cy="0"
       r="1"
       gradientUnits="userSpaceOnUse"
       gradientTransform="matrix(2506.86,0,0,-2506.86,4341.33,4043.27)"
       spreadMethod="pad"
       id="radialGradient2928"><stop
         style="stop-opacity:1;stop-color:#ffffff"
         offset="0"
         id="stop2922" /><stop
         style="stop-opacity:1;stop-color:#ffffff"
         offset="0.248485"
         id="stop2924" /><stop
         style="stop-opacity:1;stop-color:#ffffff"
         offset="1"
         id="stop2926" /></radialGradient><clipPath
       clipPathUnits="userSpaceOnUse"
       id="clipPath2938"><path
         d="m 5291.66,4968.83 c -4.64,0 -9.43,1.08 -14.42,3.75 46.84,35.62 132.34,95.29 228.78,95.29 12.7,0 25.59,-1.04 38.61,-3.3 19.57,-3.4 41.41,-12.37 34.49,-37.4 -12.75,-46.16 -177.32,-23.7 -241.5,-40.23 -14.2,-3.66 -29,-18.11 -45.96,-18.11"
         id="path2936" /></clipPath><radialGradient
       fx="0"
       fy="0"
       cx="0"
       cy="0"
       r="1"
       gradientUnits="userSpaceOnUse"
       gradientTransform="matrix(2506.86,0,0,-2506.86,4341.33,4043.27)"
       spreadMethod="pad"
       id="radialGradient2946"><stop
         style="stop-opacity:1;stop-color:#fbcc2a"
         offset="0"
         id="stop2940" /><stop
         style="stop-opacity:1;stop-color:#f1483c"
         offset="0.248485"
         id="stop2942" /><stop
         style="stop-opacity:1;stop-color:#3b3a3d"
         offset="1"
         id="stop2944" /></radialGradient><clipPath
       clipPathUnits="userSpaceOnUse"
       id="clipPath2956"><path
         d="m 5267,4958.02 c -3.35,0 -5.79,0.89 -4.1,5.9 2.26,2.02 5.67,2.94 9.93,2.94 0.51,0 1.03,-0.02 1.57,-0.04 0,-2.9 0,-5.75 0,-8.62 -0.5,0.06 -1.04,0.09 -1.61,0.09 -0.92,0 -1.9,-0.07 -2.89,-0.13 -0.99,-0.07 -1.98,-0.14 -2.9,-0.14"
         id="path2954" /></clipPath><radialGradient
       fx="0"
       fy="0"
       cx="0"
       cy="0"
       r="1"
       gradientUnits="userSpaceOnUse"
       gradientTransform="matrix(2506.86,0,0,-2506.86,4341.33,4043.27)"
       spreadMethod="pad"
       id="radialGradient2964"><stop
         style="stop-opacity:1;stop-color:#fbcc2a"
         offset="0"
         id="stop2958" /><stop
         style="stop-opacity:1;stop-color:#f1483c"
         offset="0.248485"
         id="stop2960" /><stop
         style="stop-opacity:1;stop-color:#3b3a3d"
         offset="1"
         id="stop2962" /></radialGradient><clipPath
       clipPathUnits="userSpaceOnUse"
       id="clipPath2974"><path
         d="m 5673.97,4831.68 c -36.68,12.31 -37.12,75.82 -37.34,115.01 15.5,-32.43 58.88,-64.31 37.34,-115.01"
         id="path2972" /></clipPath><radialGradient
       fx="0"
       fy="0"
       cx="0"
       cy="0"
       r="1"
       gradientUnits="userSpaceOnUse"
       gradientTransform="matrix(2506.86,0,0,-2506.86,4341.33,4043.27)"
       spreadMethod="pad"
       id="radialGradient2982"><stop
         style="stop-opacity:1;stop-color:#fbcc2a"
         offset="0"
         id="stop2976" /><stop
         style="stop-opacity:1;stop-color:#f1483c"
         offset="0.248485"
         id="stop2978" /><stop
         style="stop-opacity:1;stop-color:#3b3a3d"
         offset="1"
         id="stop2980" /></radialGradient><clipPath
       clipPathUnits="userSpaceOnUse"
       id="clipPath2992"><path
         d="m 5015.54,3771.23 c -20.05,0 -40.09,10.65 -57.39,37.03 -6.2,47.43 11.5,70.91 22.99,100.65 37.62,8.12 40.97,51.15 82.61,51.15 5.33,0 11.28,-0.71 18.02,-2.28 91.31,-21.35 12.66,-186.55 -66.23,-186.55"
         id="path2990" /></clipPath><radialGradient
       fx="0"
       fy="0"
       cx="0"
       cy="0"
       r="1"
       gradientUnits="userSpaceOnUse"
       gradientTransform="matrix(2506.86,0,0,-2506.86,4341.33,4043.27)"
       spreadMethod="pad"
       id="radialGradient3000"><stop
         style="stop-opacity:1;stop-color:#fbcc2a"
         offset="0"
         id="stop2994" /><stop
         style="stop-opacity:1;stop-color:#f1483c"
         offset="0.248485"
         id="stop2996" /><stop
         style="stop-opacity:1;stop-color:#3b3a3d"
         offset="1"
         id="stop2998" /></radialGradient><clipPath
       clipPathUnits="userSpaceOnUse"
       id="clipPath3010"><path
         d="m 4865.09,3103.66 c -1.53,0 -3.09,0.09 -4.68,0.27 -63.55,7.12 -4.79,172.27 0,212.71 21.31,179.67 44.17,407.82 23,595.09 7.68,1.91 10.93,8.27 17.23,11.53 -6.15,-55.94 38.08,-114.49 43.16,-183.99 7.66,-105.21 -8.83,-228.72 -2.91,-353.59 4.26,-89.05 -3.89,-282.02 -75.8,-282.02"
         id="path3008" /></clipPath><radialGradient
       fx="0"
       fy="0"
       cx="0"
       cy="0"
       r="1"
       gradientUnits="userSpaceOnUse"
       gradientTransform="matrix(2506.86,0,0,-2506.86,4341.33,4043.27)"
       spreadMethod="pad"
       id="radialGradient3018"><stop
         style="stop-opacity:1;stop-color:#fbcc2a"
         offset="0"
         id="stop3012" /><stop
         style="stop-opacity:1;stop-color:#f1483c"
         offset="0.248485"
         id="stop3014" /><stop
         style="stop-opacity:1;stop-color:#3b3a3d"
         offset="1"
         id="stop3016" /></radialGradient><clipPath
       clipPathUnits="userSpaceOnUse"
       id="clipPath3028"><path
         d="m 4273.81,3850.96 c -48.73,0 -77,40.49 -114.85,57.95 10.38,2.2 22.83,3.46 35.79,3.46 45.51,0 97.32,-15.58 87.83,-60.98 -3,-0.29 -5.92,-0.43 -8.77,-0.43"
         id="path3026" /></clipPath><radialGradient
       fx="0"
       fy="0"
       cx="0"
       cy="0"
       r="1"
       gradientUnits="userSpaceOnUse"
       gradientTransform="matrix(2506.86,0,0,-2506.86,4341.33,4043.27)"
       spreadMethod="pad"
       id="radialGradient3036"><stop
         style="stop-opacity:1;stop-color:#fbcc2a"
         offset="0"
         id="stop3030" /><stop
         style="stop-opacity:1;stop-color:#f1483c"
         offset="0.248485"
         id="stop3032" /><stop
         style="stop-opacity:1;stop-color:#3b3a3d"
         offset="1"
         id="stop3034" /></radialGradient><clipPath
       clipPathUnits="userSpaceOnUse"
       id="clipPath3046"><path
         d="m 5037.21,3308.03 c -0.48,0 -0.95,0.01 -1.43,0.03 -50.58,2.12 -40.45,147.69 11.52,155.25 3.28,0.48 6.39,0.71 9.32,0.71 38.32,0 48.43,-39 41.48,-78 -6.95,-38.99 -30.96,-77.99 -60.89,-77.99"
         id="path3044" /></clipPath><radialGradient
       fx="0"
       fy="0"
       cx="0"
       cy="0"
       r="1"
       gradientUnits="userSpaceOnUse"
       gradientTransform="matrix(2506.86,0,0,-2506.86,4341.33,4043.27)"
       spreadMethod="pad"
       id="radialGradient3054"><stop
         style="stop-opacity:1;stop-color:#fbcc2a"
         offset="0"
         id="stop3048" /><stop
         style="stop-opacity:1;stop-color:#f1483c"
         offset="0.248485"
         id="stop3050" /><stop
         style="stop-opacity:1;stop-color:#3b3a3d"
         offset="1"
         id="stop3052" /></radialGradient><clipPath
       clipPathUnits="userSpaceOnUse"
       id="clipPath3064"><path
         d="m 5030.02,2267.36 c -61.92,10.28 -39.42,91.39 -25.85,137.97 33.9,116.74 80.51,226.14 135.09,319.16 15.68,26.63 43.16,41.89 48.89,77.6 0.51,0.07 0.98,0.1 1.42,0.1 2.43,0 3.79,-1.07 4.32,-3.01 -50.5,-169.9 -140.06,-325.63 -163.87,-531.82"
         id="path3062" /></clipPath><radialGradient
       fx="0"
       fy="0"
       cx="0"
       cy="0"
       r="1"
       gradientUnits="userSpaceOnUse"
       gradientTransform="matrix(2506.86,0,0,-2506.86,4341.33,4043.27)"
       spreadMethod="pad"
       id="radialGradient3072"><stop
         style="stop-opacity:1;stop-color:#fbcc2a"
         offset="0"
         id="stop3066" /><stop
         style="stop-opacity:1;stop-color:#f1483c"
         offset="0.248485"
         id="stop3068" /><stop
         style="stop-opacity:1;stop-color:#3b3a3d"
         offset="1"
         id="stop3070" /></radialGradient><clipPath
       clipPathUnits="userSpaceOnUse"
       id="clipPath3082"><path
         d="m 4133.11,2255.87 c -15.87,22.83 4.92,47.72 11.47,66.1 140.53,127.84 292.03,259.93 537.61,273.11 -0.43,-5.06 -5.06,-5.92 -10.55,-5.92 -1.41,0 -2.88,0.05 -4.35,0.11 -1.46,0.06 -2.93,0.11 -4.33,0.11 -4.15,0 -7.81,-0.49 -9.53,-2.92 -11.12,-0.38 -11.33,-11.63 -20.11,-14.35 -73.14,-33.26 -139.9,-72.89 -206.98,-112.14 -117.26,-46.67 -192.47,-150.59 -293.23,-204.1"
         id="path3080" /></clipPath><radialGradient
       fx="0"
       fy="0"
       cx="0"
       cy="0"
       r="1"
       gradientUnits="userSpaceOnUse"
       gradientTransform="matrix(2506.86,0,0,-2506.86,4341.33,4043.27)"
       spreadMethod="pad"
       id="radialGradient3090"><stop
         style="stop-opacity:1;stop-color:#fbcc2a"
         offset="0"
         id="stop3084" /><stop
         style="stop-opacity:1;stop-color:#f1483c"
         offset="0.248485"
         id="stop3086" /><stop
         style="stop-opacity:1;stop-color:#3b3a3d"
         offset="1"
         id="stop3088" /></radialGradient><clipPath
       clipPathUnits="userSpaceOnUse"
       id="clipPath3100"><path
         d="m 4224.88,1539.06 c -114.81,5.25 -227.51,18.21 -337.78,38.4 18.03,46.69 55.97,73.49 76.35,117.8 -7.64,-1.68 -14.76,-2.36 -21.48,-2.36 -15.11,0 -28.16,3.48 -40.55,6.96 -12.38,3.49 -24.1,6.97 -36.52,6.97 -0.68,0 -1.36,-0.01 -2.04,-0.03 23.98,-33.9 27.27,-94.22 -16.37,-94.22 -10.12,0 -22.76,3.24 -38.27,10.82 4.13,-11.55 8.68,-22.69 13.89,-33.16 -31.41,6.62 -62.73,13.85 -93.69,21.63 12.92,16.86 21.63,39.9 39.55,51.76 -21.5,64.99 16.55,111.55 37.4,152.4 53.16,30.45 66.86,57.82 83.36,123.59 32.51,129.63 91.36,274.66 143.73,408.22 78.31,199.65 174.15,384.91 270.26,560.61 10.9,43.7 21.85,87.38 34.46,129.37 10.71,16.15 24.41,29.25 48.88,31.59 -88.7,115.63 131.17,162.73 40.28,290.39 -233.73,21.2 -419.35,105.79 -508.88,261.59 90.08,-27.18 184.23,-109.51 278.87,-137.99 37.37,-11.23 92.14,-26.48 129.17,-26.48 4.13,0 8.04,0.19 11.68,0.6 52.35,5.85 79.02,75.59 94.86,126.53 -217.28,28.21 -386.5,128.83 -431.19,339.21 -3.78,8.7 -13.48,11.41 -25.87,11.53 4.02,11.19 10.27,32.55 2.88,45.98 -52.57,-78.87 -53.28,-202.65 -48.88,-310.51 -2.89,-0.35 -5.69,-0.52 -8.38,-0.52 -88.03,-0.03 -65.11,185.16 -34.75,244.9 38.79,76.27 87.5,96.58 115,172.46 29.74,82.09 70.75,102.15 155.23,129.41 85.27,27.48 122.83,144.52 192.63,183.99 -37.19,45.21 -58.79,106.04 -109.27,137.96 -3.39,-0.22 -6.73,-0.33 -10.02,-0.33 -54.09,0 -92.3,30.06 -107.83,75.09 -48.46,-55.42 -137.21,-119.65 -227.96,-119.65 -30.65,0 -61.51,7.31 -91.14,24.76 -22.02,12.97 -49.14,41.35 -54.63,74.76 -8.54,51.87 29.3,67.63 28.75,106.36 -0.43,29.91 -40.72,84.86 14.35,103.51 9.41,278.07 113.94,461.05 327.75,534.72 17.43,41.08 75.1,62.42 131.63,62.42 45.5,0 90.27,-13.83 112.72,-42.32 28.63,11.94 62.84,39.74 97.49,39.74 11.61,0 23.26,-3.12 34.77,-11 23.67,-16.17 16.71,-36.12 34.49,-60.35 21.75,-29.63 53.57,-38.05 54.63,-91.99 1.07,-55.19 -51.74,-84.94 -51.77,-126.5 0,-31.84 50.88,-51.47 48.89,-83.36 43.99,0.01 50.86,-56.76 91.99,-83.38 65.42,-42.28 147.8,-47.02 140.85,-161 -1.33,-22.54 -20.31,-49.66 5.79,-63.24 110.78,82.82 229.54,172.84 370.84,215.62 17.05,-68.56 -68.49,-82.39 -100.62,-120.75 -50.42,-27.2 -100.46,-54.78 -152.37,-80.48 -29.82,-1.82 -48.79,-14.47 -71.87,-23.02 18.73,-52.16 53.85,-87.96 51.75,-160.96 53.57,-26.94 119.81,-41.18 112.1,-129.38 9.63,-5.41 17.07,-7.73 23.06,-7.73 19.04,0 23.46,23.39 37.33,45.09 31.34,49.06 64.72,106.18 91.98,158.13 49.8,94.7 165.32,158.93 252.97,227.11 23.09,17.94 71.43,56.83 97.76,56.83 15.3,0 23.17,-13.12 14.36,-51.08 -199.86,-39.33 -285.51,-235.33 -382.35,-382.35 -15.57,-23.67 -49.3,-38.39 -51.72,-66.12 -4.44,-50.55 25.68,-110.18 5.76,-166.77 -7.5,-21.18 -27.86,-26.64 -14.38,-54.61 34.96,10.95 67.92,46.34 117.83,54.61 1.4,0.23 2.87,0.33 4.39,0.33 4.8,0 10.15,-1 15.58,-2.01 5.43,-1 10.93,-2.01 16.05,-2.01 2.48,0 4.87,0.24 7.11,0.83 30.96,8.18 84.35,79.58 117.91,106.36 80.4,64.31 147.59,101.71 212.72,181.13 39.38,48.03 65.89,65 80.48,129.36 12.23,53.94 90.18,100.84 77.63,161 -6.26,29.91 -50.12,30.91 -60.37,60.38 -7.26,59.06 38.3,99.23 14.38,152.38 -16.97,37.6 -77.11,25.42 -103.51,57.48 10.37,0.59 20.68,0.93 30.76,0.93 43.2,0 82.28,-6.32 104.36,-26.81 32.26,-29.94 63.3,-119.12 51.76,-166.75 -2.94,-12.07 -15.09,-26.88 -14.39,-40.23 2.36,-45.16 39,-89.68 14.39,-152.4 -63.75,-162.19 -185.11,-293.98 -313.38,-385.2 85.82,-108.75 78.4,-278.36 92.01,-468.62 5.36,-74.75 22.78,-141.56 23,-206.95 0.16,-51.63 -19.34,-110.73 -41.37,-110.74 -10.19,0 -20.93,12.67 -30.5,44.61 -32.69,109.1 9.24,238.53 -5.76,356.47 -15.44,121.39 -84.23,220.49 -66.13,365.09 -49.5,-34.85 -121.2,-47.46 -143.73,-109.24 -57.19,-12.8 -89.81,-50.1 -109.24,-100.59 -16.51,-12.82 -42.72,-20.13 -67.91,-20.13 -33.58,0 -65.37,12.96 -70.09,43.12 -5.11,32.62 32.35,73.77 0,100.62 -18.02,-19.27 -32.37,-26.83 -44.76,-26.83 -22.51,0 -38.58,24.9 -58.61,49.81 -20.01,24.9 -43.98,49.8 -82.25,49.8 -8.32,0 -17.33,-1.18 -27.12,-3.79 33.25,43.59 72.88,120.57 94.86,175.34 -64.52,-20.76 -84.31,-111.09 -123.62,-166.7 -4.67,-11.66 15.23,-13.27 5.8,-20.14 -4.97,1.04 -10.14,1.54 -15.41,1.54 -43.19,0 -92.56,-33.39 -88.13,-70.55 1.78,-14.84 14.18,-18.41 30.33,-18.41 7.51,0 15.83,0.77 24.27,1.55 8.44,0.77 17,1.54 24.99,1.54 23.41,0 41.95,-6.62 38.29,-39.26 4.74,0.54 9.2,0.8 13.39,0.8 28.4,0 45.3,-11.49 64.22,-20.94 13.33,5.44 53.38,22.84 84.57,22.84 18.93,0 34.6,-6.4 39.07,-25.75 9.3,-40.38 -102.73,-80.95 -145.2,-80.96 -2.7,0 -5.11,0.17 -7.2,0.5 -21.31,3.43 -30.68,22.78 -45.97,25.88 -4.61,0.93 -9.04,1.37 -13.28,1.37 -65.38,0 -87.01,-105.16 -84.45,-162.39 3.09,-69.17 90.78,-152.81 54.6,-258.73 0.49,-14.84 -25.41,-3.29 -28.73,-14.38 -5.95,-23.24 21.91,-33.81 23,-57.48 1.32,-28.74 -25.26,-37.54 -37.38,-60.37 -14.4,-27.08 -12.5,-60.61 -40.25,-80.51 -28.85,-20.65 -77.47,-35.61 -121.39,-35.61 -22.15,0 -43.11,3.81 -59.74,12.61 -28.6,-74.5 -31.75,-147.04 -5.72,-227.12 40.16,-24.02 88.81,-39.57 140.86,-51.72 -42.49,-23.68 -123.1,-9.16 -169.61,-28.73 64.52,-39.53 155.55,-51.59 252.03,-51.59 116.87,0 241.75,17.69 337.33,25.68 12.5,-41.36 55.37,-29.21 103.47,-34.49 29.98,-3.3 51.65,-25.9 73.3,-25.9 0.47,0 0.95,0.01 1.42,0.03 39.93,1.9 39.46,25.79 66.13,37.37 36.19,15.71 157.9,-2.01 172.5,22.99 13.26,22.76 -27.46,26.91 -61.81,26.91 -13.04,0 -25.15,-0.6 -33.06,-1 -7.81,-0.4 -15.63,-0.58 -23.44,-0.58 -32.04,0 -64.07,3.02 -96.11,6.04 -32.02,3.02 -64.06,6.04 -96.09,6.04 -1.91,0 -3.81,-0.01 -5.72,-0.03 70.94,45.99 177.11,56.69 278.87,71.86 15.82,115.63 82.5,174.72 89.1,293.28 62.77,-84.64 105.43,-243.97 43.14,-359.38 -9.03,-16.69 -32.53,-27.01 -40.26,-43.14 -28.8,-59.76 -13.61,-256.58 5.74,-313.34 73.31,-214.91 24,-663.44 -48.87,-848.08 -5.79,-14.68 -16.46,-53.46 -21.66,-88.49 -21.68,-11.25 -43.68,-22.25 -65.73,-32.88 7.79,16.74 13.33,34.93 15.52,55.24 24.14,223.97 84.4,491.04 80.51,753.23 -104.78,50.45 -34.14,280.17 -60.39,393.84 -75.37,-30 -162.1,-38.26 -254.77,-38.26 -110.87,0 -230.25,11.82 -348.94,12.39 -2.72,0.01 -5.44,0.01 -8.14,0.01 -33.03,0 -64.55,-0.91 -94.73,-1.83 -30.19,-0.92 -59.03,-1.83 -86.64,-1.83 -97.92,0 -180.37,11.53 -253.2,75.51 -26.97,-120.68 -80.19,-196.51 -132.24,-298.98 -124.08,-244.19 -220.54,-527.96 -319.13,-779.06 190.24,134.66 360.72,334.99 641.11,350.72 -20.19,-6.66 -32.51,-21.18 -54.61,-25.85 -204.18,-174.37 -479.43,-277.68 -618.11,-517.49 45.2,1.66 86.41,11.85 123.62,25.88 131.3,49.49 225.85,209.78 365.32,209.78 14.73,0 29.96,-1.79 45.78,-5.68 7.81,5.59 13.1,13.75 23,17.25 9.4,146.81 160.58,151.81 178.25,290.34 -59.09,150.94 197.28,187.45 112.12,347.89 -65.32,14.52 -98.23,49.3 -138.02,89.1 -38.18,38.2 -68.6,67.5 -24.86,67.5 9.42,0 22.27,-1.36 39.23,-4.28 121.2,-20.79 212.91,-44.58 267.35,-135.09 21.86,-97.27 46.32,-252.23 48.93,-376.61 0.67,-33.9 5.7,-68.17 2.85,-97.74 -9.07,-93.56 63.12,-185.97 103.48,-247.24 49.38,194.01 128.67,358.18 195.47,534.76 40.56,44.73 60.22,125.62 112.14,149.46 -80.36,-266.53 -216.34,-492.81 -255.86,-790.61 0.29,0 0.59,-0.01 0.88,-0.01 14.98,0 25.96,11.35 37.67,22.7 11.71,11.35 24.16,22.7 42.06,22.7 4.39,0 9.12,-0.68 14.25,-2.22 -7.31,-63.61 -54.36,-87.46 -94.86,-117.88 17.97,-28.23 13.76,-65.61 0.36,-97.14 -42.94,-14.3 -86.25,-27.42 -130.18,-39.42 3.71,32.54 40.68,57.92 37.84,87.69 -3.75,39.14 -64.09,61.07 -63.25,117.88 0.22,15.27 12.37,32.94 11.49,51.73 -2.13,47.31 -47.78,102.06 -60.36,163.87 -5.76,28.04 4.21,63.43 -2.91,89.1 -4.92,17.88 -35.04,44.38 -45.96,71.86 -23.75,59.66 -18.78,131.25 -43.14,155.26 -28.97,-28.52 -76.32,-38.66 -100.59,-71.87 -17.15,-81.51 -81.11,-144.32 -129.38,-204.13 -48.08,-59.47 -82.5,-122.15 -115,-178.19 -16.2,-27.97 -59.36,-64.86 -63.25,-97.77 -2.71,-23.13 9.92,-40.8 5.74,-60.37 -7.29,-34.49 -75.7,-79.53 -109.22,-109.27 -33.38,-29.53 -77.79,-62.19 -100.83,-101.57 m 100.83,302.84 c -53.4,-38.67 -110.08,-89.19 -146.61,-135.1 47.02,18.13 66.36,63.98 131.57,63.98 4.76,0 9.76,-0.24 15.04,-0.76 v 0 0 c -2.28,19.07 -0.38,52.54 0,71.88 m 120.74,1765.14 c -6.25,-58.09 8.05,-120.27 20.11,-169.61 99.13,0.93 33.93,92.82 57.49,140.85 -26.5,8.95 -55.69,15.2 -77.6,28.76 m 212.15,6.36 c -35.22,0 -76.89,-6.28 -100.06,-6.36 -13.56,-68.2 40.86,-68.44 34.53,-129.38 5.71,-1.55 11.85,-2.2 18.15,-2.2 18.91,0 39.23,5.86 53.71,10.79 -10.74,53.38 41.69,58.44 51.72,83.39 14.32,35.47 -17.62,43.76 -58.05,43.76 m -556.96,431.53 c 4.86,0 8.2,-2.17 8.45,-9.58 -15.85,-10 -34.98,-16.74 -46.02,-31.61 64.56,-166.51 222.94,-258.3 388.12,-330.59 21.56,-9.44 48.84,-14.11 77.01,-14.11 72.86,0 151.67,31.2 152.99,91.73 -23.6,-23.35 -52.76,-41.15 -86.25,-54.6 -5.98,23.7 -17.2,42.21 -23.02,66.1 -18.13,-20.07 -59.48,-40.85 -93.65,-40.85 -29.66,-0.01 -53.92,15.64 -52.93,60.99 -9.09,-1.69 -17.39,-2.5 -24.96,-2.5 -66.26,-0.01 -76.3,61.86 -67.08,131.82 -59.25,28.93 -106.06,70.24 -152.34,112.15 67.35,-24.62 166.1,-17.91 195.5,-80.51 43,19.33 63.06,61.51 94.87,91.98 -64.77,29.67 -189.01,96.3 -285.69,96.3 -55.31,0 -101.58,-21.79 -122.57,-84.77 3.07,-4.74 7.54,-6.23 12.5,-6.23 4.2,0 8.76,1.07 13.12,2.14 4.37,1.07 8.53,2.14 11.95,2.14 m 560.41,-38.33 c -44.79,-83.67 -161.91,-125.36 -163.85,-232.84 91.21,37.25 131.48,155.94 163.85,232.84 m 20.14,-60.35 c -3.89,-24.18 -87.45,-148.11 -43.11,-158.13 1.23,-0.28 2.44,-0.42 3.62,-0.42 35.33,-0.01 49.48,120.36 39.49,158.55 m -23.03,140.85 c -121.27,-50.2 -220.43,-122.58 -267.34,-247.23 4.58,-2.32 9.06,-3.23 13.42,-3.23 13.88,0 26.67,9.21 38.33,11.87 61.29,88.23 174.01,140.31 215.59,238.59 m 34.49,-117.82 c -2.65,-2.45 -6.11,-18.35 0,-20.14 2.73,2.41 6.18,18.32 0,20.14 m -298.95,365.06 c -59.36,-30.66 -122.69,-57.46 -143.73,-126.45 88.58,-44.63 187.65,-78.76 264.46,-135.14 72.82,13.43 128.54,43.93 189.76,68.99 -15.42,80.34 34.73,137.78 94.85,161.01 -1.47,19.68 5.12,31.32 2.86,51.73 -14.08,-4.69 -28.85,-6.03 -43.71,-6.03 -10.04,0 -20.12,0.61 -30.08,1.23 -9.94,0.61 -19.76,1.23 -29.26,1.23 -24.28,0 -46.5,-4.02 -63.68,-22.31 43.13,-42.32 -11.47,-64.2 -67.19,-64.21 -13.44,0 -26.95,1.28 -39.17,3.85 -56.29,11.85 -115,39.76 -135.11,66.1 m 712.95,-218.48 c 0.49,-9.08 -7.64,-9.6 -5.76,-20.11 3.18,-2.11 6.12,-3.01 8.68,-3.01 10.21,0 14.54,14.25 5.72,23.12 -2.88,0 -5.76,0 -8.64,0 m -668.47,234.35 c -12.75,0 -23.42,-4.87 -30.1,-18.73 17.21,-10.97 47.75,-17.85 77.34,-17.85 19,0 37.6,2.83 52.04,9.24 -27.75,0.3 -69.25,27.34 -99.28,27.34 m 90.63,470.01 c -75.59,-74.88 -146.1,-154.83 -238.61,-212.76 29.83,-102.06 137.54,-198.67 269.08,-198.68 13.57,0 27.38,1.03 41.4,3.19 50.96,7.85 117.99,46.71 129.35,91.99 23.24,92.66 -34.36,142.19 -43.11,204.11 -8.78,62.32 36.59,129.68 -45.99,146.63 -15.05,-30 -9.23,-80.82 -40.25,-94.87 -31.29,12.8 -50.66,37.51 -71.87,60.39 m 321.99,-212.76 c -7.94,-48.62 -10.17,-102.92 -34.53,-135.1 5.2,-4.33 10.33,-6.27 15.27,-6.27 38.67,0 65.75,118.71 19.26,141.37 m -702.93,713.01 c -0.45,0 -0.92,-0.02 -1.4,-0.05 -150.83,-112.7 -260.34,-266.69 -287.49,-503.08 4.53,-29.97 41.88,-27.13 54.63,-48.87 -29.28,-29.69 -120.96,-138.68 -34.52,-166.76 14.92,19.58 -2.85,71.87 20.14,83.38 -5.81,-54.21 15.61,-79.81 43.03,-79.81 17.63,0 37.74,10.57 54.71,30.94 -5.66,49.58 24,97.32 5.76,132.25 8.1,7.17 11.36,19.27 23,22.98 0.52,0.04 1.04,0.06 1.56,0.06 3.75,0 7.31,-1.15 10.6,-2.3 3.29,-1.15 6.32,-2.3 9.01,-2.3 1.71,0 3.28,0.46 4.7,1.68 51.38,27.13 118.48,100.03 137.97,160.97 9.62,30.13 5.33,63.9 37.4,71.86 6.67,1.67 13.4,2.31 20.19,2.31 11.8,0 23.78,-1.95 35.93,-3.91 12.16,-1.95 24.5,-3.9 37.01,-3.9 14.7,0 29.65,2.69 44.84,11.25 -18.59,108.33 93.28,106.87 109.24,189.78 -14.48,26.51 -28.68,35.58 -43.17,35.58 -15.69,0 -31.71,-10.62 -48.78,-21.25 -17.08,-10.62 -35.2,-21.25 -55.09,-21.25 -3.63,0 -7.32,0.36 -11.07,1.13 -63.48,13.1 -38.14,140.77 -130.03,140.77 -7.57,0 -15.92,-0.87 -25.2,-2.73 -1.82,-15.25 10.11,-16.75 8.62,-31.65 -1.78,-0.36 -3.35,-0.51 -4.76,-0.51 -3.37,0 -5.9,0.85 -8.42,1.71 -2.52,0.86 -5.04,1.72 -8.41,1.72 m 7.21,-523.26 c -34.93,-14.05 -80.16,-42.4 -126.47,-54.63 -4.02,-36.57 4.4,-60.75 22.99,-74.76 20.5,16.54 41.04,33.04 78.09,33.04 6.08,0 12.61,-0.44 19.66,-1.41 7.5,25.31 10.29,69.86 5.73,97.76 m 140.79,132.25 c -57.6,0 -63.54,-76.28 -106.3,-100.61 2.04,-53.58 20.93,-90.28 37.4,-129.4 61.81,37.85 48.22,151.12 68.99,230.01 -0.03,0 -0.06,0 -0.09,0 M 3577.7,1654.84 c -68.77,21.96 -136.26,46.83 -202.3,74.43 0.5,2.07 1.04,4.17 1.6,6.28 14.19,19.32 44.32,32.75 72.62,32.75 21.7,0 42.32,-7.89 53.88,-27.04 3.78,-12.51 3.07,-29.52 5.76,-43.11 12.08,-16.85 39.71,-30.12 68.44,-43.31 m 1598.8,24.05 c 90.87,191.48 169.89,403.38 307.76,536.73 -51.99,-169.4 -127.95,-328.55 -189.49,-491.54 -39,-16.05 -78.31,-31.08 -118.27,-45.19"
         id="path3098" /></clipPath><radialGradient
       fx="0"
       fy="0"
       cx="0"
       cy="0"
       r="1"
       gradientUnits="userSpaceOnUse"
       gradientTransform="matrix(2506.86,0,0,-2506.86,4341.33,4043.27)"
       spreadMethod="pad"
       id="radialGradient3108"><stop
         style="stop-opacity:1;stop-color:#fbcc2a"
         offset="0"
         id="stop3102" /><stop
         style="stop-opacity:1;stop-color:#f1483c"
         offset="0.248485"
         id="stop3104" /><stop
         style="stop-opacity:1;stop-color:#3b3a3d"
         offset="1"
         id="stop3106" /></radialGradient></defs><sodipodi:namedview
     id="namedview2884"
     pagecolor="#ffffff"
     bordercolor="#666666"
     borderopacity="1.0"
     inkscape:pageshadow="2"
     inkscape:pageopacity="0.0"
     inkscape:pagecheckerboard="0"
     showgrid="false"
     fit-margin-top="0"
     fit-margin-left="0"
     fit-margin-right="0"
     fit-margin-bottom="0"
     inkscape:zoom="0.33474954"
     inkscape:cx="-315.161"
     inkscape:cy="98.581166"
     inkscape:window-width="1920"
     inkscape:window-height="1023"
     inkscape:window-x="0"
     inkscape:window-y="0"
     inkscape:window-maximized="1"
     inkscape:current-layer="g2890" /><g
     id="g2888"
     inkscape:groupmode="layer"
     inkscape:label="ink_ext_XXXXXX"
     transform="matrix(1.3333333,0,0,-1.3333333,-428.6504,720.01362)"><g
       id="g2890"
       transform="scale(0.1)"><path
         d="m 5277.24,4972.58 c 53.01,40.31 155.53,111.42 267.39,91.99 19.57,-3.4 41.41,-12.37 34.49,-37.4 -12.75,-46.16 -177.32,-23.7 -241.5,-40.23 -18.08,-4.66 -37.13,-26.81 -60.38,-14.36"
         style="fill:#3b393d;fill-opacity:1;fill-rule:evenodd;stroke:none"
         id="path2894" /><path
         d="m 5274.4,4966.82 c 0,-2.9 0,-5.75 0,-8.62 -1.32,0.17 -2.91,0.06 -4.5,-0.04 -4.58,-0.32 -9.16,-0.63 -7,5.76 2.53,2.26 6.5,3.14 11.5,2.9"
         style="fill:#3b393d;fill-opacity:1;fill-rule:evenodd;stroke:none"
         id="path2896" /><path
         d="m 5636.63,4946.69 c 15.5,-32.43 58.88,-64.31 37.34,-115.01 -36.68,12.31 -37.12,75.82 -37.34,115.01"
         style="fill:#3b393d;fill-opacity:1;fill-rule:evenodd;stroke:none"
         id="path2898" /><path
         d="m 4958.15,3808.26 c -6.2,47.43 11.5,70.91 22.99,100.65 42.43,9.16 41.26,62.73 100.63,48.87 114.51,-26.77 -38.25,-279.74 -123.62,-149.52"
         style="fill:#3b393d;fill-opacity:1;fill-rule:evenodd;stroke:none"
         id="path2900" /><path
         d="m 4883.41,3911.73 c 7.68,1.91 10.93,8.27 17.23,11.53 -6.15,-55.94 38.08,-114.49 43.16,-183.99 7.66,-105.21 -8.83,-228.72 -2.91,-353.59 4.35,-90.94 -4.24,-290.29 -80.48,-281.75 -63.55,7.12 -4.79,172.27 0,212.71 21.31,179.67 44.17,407.82 23,595.09"
         style="fill:#3b393d;fill-opacity:1;fill-rule:evenodd;stroke:none"
         id="path2902" /><path
         d="m 4282.58,3851.39 c -54.22,-5.24 -83.56,39.04 -123.62,57.52 46.81,9.92 135.82,0.81 123.62,-57.52"
         style="fill:#3b393d;fill-opacity:1;fill-rule:evenodd;stroke:none"
         id="path2904" /><path
         d="m 5047.3,3463.31 c 45.99,6.69 58.28,-35.3 50.8,-77.29 -7.06,-39.61 -31.72,-79.23 -62.32,-77.96 -50.58,2.12 -40.45,147.69 11.52,155.25"
         style="fill:#3b393d;fill-opacity:1;fill-rule:evenodd;stroke:none"
         id="path2906" /><path
         d="m 5188.15,2802.09 c 3.34,0.46 5.11,-0.63 5.74,-2.91 -50.5,-169.9 -140.06,-325.63 -163.87,-531.82 -61.92,10.28 -39.42,91.39 -25.85,137.97 33.9,116.74 80.51,226.14 135.09,319.16 15.68,26.63 43.16,41.89 48.89,77.6"
         style="fill:#3b393d;fill-opacity:1;fill-rule:evenodd;stroke:none"
         id="path2908" /><path
         d="m 4682.19,2595.08 c -0.54,-6.37 -7.72,-6.09 -14.9,-5.81 -5.78,0.22 -11.56,0.45 -13.86,-2.81 -11.12,-0.38 -11.33,-11.63 -20.11,-14.35 -73.14,-33.26 -139.9,-72.89 -206.98,-112.14 -117.26,-46.67 -192.47,-150.59 -293.23,-204.1 -15.87,22.83 4.92,47.72 11.47,66.1 140.53,127.84 292.03,259.93 537.61,273.11"
         style="fill:#3b393d;fill-opacity:1;fill-rule:evenodd;stroke:none"
         id="path2910" /><path
         d="m 5366.35,1298.55 c 4.43,-48.17 82.82,-20.23 51.77,23.01 -20.38,-4.54 -31.38,-18.42 -51.77,-23.01 m -146.58,100.61 c 15.16,-14.37 55.2,-24.02 86.24,-37.37 34.3,45.25 63.9,95.16 92.01,146.64 -60.3,-21.72 -92.86,-130.44 -178.25,-109.27 m -1598.41,192.61 c 29.84,-17.13 22.17,-71.76 45.98,-94.87 7.84,24.79 22.02,43.2 23.03,74.75 -7.4,9.84 -28.68,5.84 -28.76,23.03 -15.03,0.62 -28.7,-0.09 -40.25,-2.91 m -94.87,-31.61 c 7.58,-0.88 10.21,3.16 12.84,7.2 2.66,4.08 5.31,8.15 13.04,7.17 12.13,-0.32 8.45,-16.47 23,-14.37 6.96,16.95 30.03,17.91 28.76,43.1 -27.89,8.51 -69.16,3.72 -97.75,11.5 -12.58,-18.81 11.31,-39.3 20.11,-54.6 m 336.37,146.64 c 29.54,-41.76 27.69,-123.63 -54.64,-83.4 14.38,-40.23 33.81,-75.42 69.02,-94.86 3.31,81 59.66,109 86.21,166.72 -24.85,-5.46 -44.14,-0.43 -62.03,4.6 -13.06,3.68 -25.38,7.35 -38.56,6.94 m 1607.02,-23.03 c -64.23,83.48 -92.06,-66.4 -117.88,-117.88 40.93,11.8 60.23,45.2 112.12,46.02 8.15,17.72 5.29,46.45 5.76,71.86 M 4179.1,1706.8 c 50.45,19.45 69.04,70.83 146.61,63.22 -2.28,19.07 -0.38,52.54 0,71.88 -53.4,-38.67 -110.08,-89.19 -146.61,-135.1 m 839.44,-123.63 c -45.69,55.24 26.94,88.07 23,129.36 -3.75,39.14 -64.09,61.07 -63.25,117.88 0.22,15.27 12.37,32.94 11.49,51.73 -2.13,47.31 -47.78,102.06 -60.36,163.87 -5.76,28.04 4.21,63.43 -2.91,89.1 -4.92,17.88 -35.04,44.38 -45.96,71.86 -23.75,59.66 -18.78,131.25 -43.14,155.26 -28.97,-28.52 -76.32,-38.66 -100.59,-71.87 -17.15,-81.51 -81.11,-144.32 -129.38,-204.13 -48.08,-59.47 -82.5,-122.15 -115,-178.19 -16.2,-27.97 -59.36,-64.86 -63.25,-97.77 -2.71,-23.13 9.92,-40.8 5.74,-60.37 -7.29,-34.49 -75.7,-79.53 -109.22,-109.27 -36.31,-32.12 -85.67,-67.94 -106.38,-112.09 -8.1,-17.34 -3.81,-36.53 -11.5,-54.63 -46.67,-109.89 -238.84,-77.08 -241.5,-227.12 287.93,-43.6 631.38,11.03 934.31,17.28 -3.42,105.03 93.66,109.48 155.28,149.44 -7.77,52.24 7.39,99.73 40.22,126.56 -21.66,18.1 -59.87,21.63 -77.6,43.1 M 4860.41,2960.2 c -35.99,0.16 -70.22,-0.83 -102.87,-1.82 -137.31,-4.17 -246.48,-8.34 -339.84,73.68 -26.97,-120.68 -80.19,-196.51 -132.24,-298.98 -124.08,-244.19 -220.54,-527.96 -319.13,-779.06 190.24,134.66 360.72,334.99 641.11,350.72 -20.19,-6.66 -32.51,-21.18 -54.61,-25.85 -204.18,-174.37 -479.43,-277.68 -618.11,-517.49 45.2,1.66 86.41,11.85 123.62,25.88 145.17,54.71 245.41,244.87 411.1,204.1 7.81,5.59 13.1,13.75 23,17.25 9.4,146.81 160.58,151.81 178.25,290.34 -59.09,150.94 197.28,187.45 112.12,347.89 -65.32,14.52 -98.23,49.3 -138.02,89.1 -46.4,46.42 -81.35,79.69 14.37,63.22 121.2,-20.79 212.91,-44.58 267.35,-135.09 21.86,-97.27 46.32,-252.23 48.93,-376.61 0.67,-33.9 5.7,-68.17 2.85,-97.74 -9.07,-93.56 63.12,-185.97 103.48,-247.24 49.38,194.01 128.67,358.18 195.47,534.76 40.56,44.73 60.22,125.62 112.14,149.46 -80.36,-266.53 -216.34,-492.81 -255.86,-790.61 15.42,-0.46 26.61,11.12 38.55,22.69 14.59,14.14 30.32,28.28 56.31,20.48 -7.31,-63.61 -54.36,-87.46 -94.86,-117.88 25.41,-39.93 6.47,-98.15 -20.11,-132.24 8.75,-7.55 12.74,-19.83 28.73,-20.14 106.6,207.78 187.22,456.77 342.12,606.6 -77.22,-251.59 -207.31,-480.59 -264.49,-733.09 34.05,47.26 56.74,96.19 92,149.49 44.33,67.02 122.37,115.43 132.23,206.98 24.14,223.97 84.4,491.04 80.51,753.23 -104.78,50.45 -34.14,280.17 -60.39,393.84 -165.54,-65.88 -385.8,-26.91 -603.71,-25.87 m -413.96,646.84 c -6.25,-58.09 8.05,-120.27 20.11,-169.61 99.13,0.93 33.93,92.82 57.49,140.85 -26.5,8.95 -55.69,15.2 -77.6,28.76 m 270.2,-37.4 c 26.8,66.37 -108.34,37.56 -158.11,37.4 -13.56,-68.2 40.86,-68.44 34.53,-129.38 22.88,-6.19 52.56,2.01 71.86,8.59 -10.74,53.38 41.69,58.44 51.72,83.39 m -77.57,218.48 c 37.97,-8.57 53.44,118.67 43.11,158.13 -3.89,-24.18 -87.45,-148.11 -43.11,-158.13 m 54.57,161.02 c 2.73,2.41 6.18,18.32 0,20.14 -2.65,-2.45 -6.11,-18.35 0,-20.14 M 4498.2,3773.76 c 91.21,37.25 131.48,155.94 163.85,232.84 -44.79,-83.67 -161.91,-125.36 -163.85,-232.84 m -106.38,66.11 c 19.13,-9.68 36.42,5.14 51.75,8.64 61.29,88.23 174.01,140.31 215.59,238.59 -121.27,-50.2 -220.43,-122.58 -267.34,-247.23 m 710.07,255.88 c 15.89,-10.5 25.43,9.02 14.4,20.11 -2.88,0 -5.76,0 -8.64,0 0.49,-9.08 -7.64,-9.6 -5.76,-20.11 m -1037.82,-48.87 c 5.67,-8.76 16.11,-6.43 25.62,-4.09 10.57,2.59 19.98,5.18 20.4,-7.44 -15.85,-10 -34.98,-16.74 -46.02,-31.61 64.56,-166.51 222.94,-258.3 388.12,-330.59 77.32,-33.85 228.17,-6.31 230,77.62 -23.6,-23.35 -52.76,-41.15 -86.25,-54.6 -5.98,23.7 -17.2,42.21 -23.02,66.1 -33.87,-37.48 -148.7,-77.47 -146.58,20.14 -88.66,-16.53 -102.31,51.37 -92.04,129.32 -59.25,28.93 -106.06,70.24 -152.34,112.15 67.35,-24.62 166.1,-17.91 195.5,-80.51 43,19.33 63.06,61.51 94.87,91.98 -101.82,46.64 -350.58,184.61 -408.26,11.53 m 345.01,284.6 c 28.26,-18.02 92.44,-25 129.38,-8.61 -39.52,0.43 -106.96,55.12 -129.38,8.61 m 227.09,-2.88 c 53.55,-52.53 -43.51,-73.58 -106.36,-60.36 -56.29,11.85 -115,39.76 -135.11,66.1 -59.36,-30.66 -122.69,-57.46 -143.73,-126.45 88.58,-44.63 187.65,-78.76 264.46,-135.14 72.82,13.43 128.54,43.93 189.76,68.99 -15.42,80.34 34.73,137.78 94.85,161.01 -1.47,19.68 5.12,31.32 2.86,51.73 -23.6,-7.85 -49.11,-6.33 -73.79,-4.8 -35.37,2.18 -69.04,4.37 -92.94,-21.08 m 181.1,143.76 c 45.81,-38.19 86.96,109.54 34.53,135.1 -7.94,-48.62 -10.17,-102.92 -34.53,-135.1 m -787.66,270.22 c -4.02,-36.57 4.4,-60.75 22.99,-74.76 23.87,19.25 47.79,38.46 97.75,31.63 7.5,25.31 10.29,69.86 5.73,97.76 -34.93,-14.05 -80.16,-42.4 -126.47,-54.63 m 572.07,-330.61 c 50.96,7.85 117.99,46.71 129.35,91.99 23.24,92.66 -34.36,142.19 -43.11,204.11 -8.78,62.32 36.59,129.68 -45.99,146.63 -15.05,-30 -9.23,-80.82 -40.25,-94.87 -31.29,12.8 -50.66,37.51 -71.87,60.39 -75.59,-74.88 -146.1,-154.83 -238.61,-212.76 32.91,-112.59 160.58,-218.54 310.48,-195.49 m -411.11,416.88 c 2.04,-53.58 20.93,-90.28 37.4,-129.4 61.81,37.85 48.22,151.12 68.99,230.01 -57.68,0.08 -63.61,-76.27 -106.39,-100.61 m 126.5,382.31 c -68.71,14.18 -33.35,162.56 -155.23,138.04 -1.82,-15.25 10.11,-16.75 8.62,-31.65 -6.02,-1.23 -9.6,-0.01 -13.18,1.2 -2.85,0.98 -5.71,1.95 -9.81,1.67 -150.83,-112.7 -260.34,-266.69 -287.49,-503.08 4.53,-29.97 41.88,-27.13 54.63,-48.87 -29.28,-29.69 -120.96,-138.68 -34.52,-166.76 14.92,19.58 -2.85,71.87 20.14,83.38 -9.54,-89.06 54.39,-100.91 97.74,-48.87 -5.66,49.58 24,97.32 5.76,132.25 8.1,7.17 11.36,19.27 23,22.98 4.32,0.38 8.41,-0.93 12.16,-2.24 5.38,-1.88 10.06,-3.76 13.71,-0.62 51.38,27.13 118.48,100.03 137.97,160.97 9.62,30.13 5.33,63.9 37.4,71.86 18.27,4.56 36.97,1.48 56.12,-1.6 26.44,-4.24 53.73,-8.49 81.85,7.35 -18.59,108.33 93.28,106.87 109.24,189.78 -30.15,55.21 -59.11,34.77 -91.95,14.33 -20.2,-12.57 -41.85,-25.13 -66.16,-20.12 m 45.99,146.62 c 38.22,15.94 86.38,60.14 132.26,28.74 23.67,-16.17 16.71,-36.12 34.49,-60.35 21.75,-29.63 53.57,-38.05 54.63,-91.99 1.07,-55.19 -51.74,-84.94 -51.77,-126.5 0,-31.84 50.88,-51.47 48.89,-83.36 43.99,0.01 50.86,-56.76 91.99,-83.38 65.42,-42.28 147.8,-47.02 140.85,-161 -1.33,-22.54 -20.31,-49.66 5.79,-63.24 110.78,82.82 229.54,172.84 370.84,215.62 17.05,-68.56 -68.49,-82.39 -100.62,-120.75 -50.42,-27.2 -100.46,-54.78 -152.37,-80.48 -29.82,-1.82 -48.79,-14.47 -71.87,-23.02 18.73,-52.16 53.85,-87.96 51.75,-160.96 53.57,-26.94 119.81,-41.18 112.1,-129.38 40.25,-22.62 42.16,8.83 60.39,37.36 31.34,49.06 64.72,106.18 91.98,158.13 49.8,94.7 165.32,158.93 252.97,227.11 36.5,28.37 136.1,109.07 112.12,5.75 -199.86,-39.33 -285.51,-235.33 -382.35,-382.35 -15.57,-23.67 -49.3,-38.39 -51.72,-66.12 -4.44,-50.55 25.68,-110.18 5.76,-166.77 -7.5,-21.18 -27.86,-26.64 -14.38,-54.61 34.96,10.95 67.92,46.34 117.83,54.61 5.81,0.97 12.82,-0.35 19.97,-1.68 8.06,-1.49 16.29,-2.98 23.16,-1.18 30.96,8.18 84.35,79.58 117.91,106.36 80.4,64.31 147.59,101.71 212.72,181.13 39.38,48.03 65.89,65 80.48,129.36 12.23,53.94 90.18,100.84 77.63,161 -6.26,29.91 -50.12,30.91 -60.37,60.38 -7.26,59.06 38.3,99.23 14.38,152.38 -16.97,37.6 -77.11,25.42 -103.51,57.48 54.77,3.11 107.88,-0.6 135.12,-25.88 32.26,-29.94 63.3,-119.12 51.76,-166.75 -2.94,-12.07 -15.09,-26.88 -14.39,-40.23 2.36,-45.16 39,-89.68 14.39,-152.4 -63.75,-162.19 -185.11,-293.98 -313.38,-385.2 85.82,-108.75 78.4,-278.36 92.01,-468.62 5.36,-74.75 22.78,-141.56 23,-206.95 0.24,-75.54 -41.62,-167.06 -71.87,-66.13 -32.69,109.1 9.24,238.53 -5.76,356.47 -15.44,121.39 -84.23,220.49 -66.13,365.09 -49.5,-34.85 -121.2,-47.46 -143.73,-109.24 -57.19,-12.8 -89.81,-50.1 -109.24,-100.59 -38.52,-29.91 -129.73,-29.79 -138,22.99 -5.11,32.62 32.35,73.77 0,100.62 -50.75,-54.27 -72.32,-15.64 -103.37,22.98 -24.37,30.32 -54.59,60.64 -109.37,46.01 33.25,43.59 72.88,120.57 94.86,175.34 -64.52,-20.76 -84.31,-111.09 -123.62,-166.7 -4.67,-11.66 15.23,-13.27 5.8,-20.14 -45.78,9.62 -108.51,-27.32 -103.54,-69.01 2.61,-21.73 28,-19.3 54.6,-16.86 33.15,3.03 68.19,6.06 63.28,-37.72 36.84,4.24 55.89,-9.3 77.61,-20.14 21.41,8.75 111.79,48.35 123.64,-2.91 9.9,-42.95 -117.45,-86.11 -152.4,-80.46 -21.31,3.43 -30.68,22.78 -45.97,25.88 -75.75,15.22 -100.46,-100.08 -97.73,-161.02 3.09,-69.17 90.78,-152.81 54.6,-258.73 0.49,-14.84 -25.41,-3.29 -28.73,-14.38 -5.95,-23.24 21.91,-33.81 23,-57.48 1.32,-28.74 -25.26,-37.54 -37.38,-60.37 -14.4,-27.08 -12.5,-60.61 -40.25,-80.51 -43.41,-31.07 -131.53,-49.25 -181.13,-23 -28.6,-74.5 -31.75,-147.04 -5.72,-227.12 40.16,-24.02 88.81,-39.57 140.86,-51.72 -42.49,-23.68 -123.1,-9.16 -169.61,-28.73 142.67,-87.41 414.89,-40.5 589.36,-25.91 12.5,-41.36 55.37,-29.21 103.47,-34.49 30.64,-3.37 52.6,-26.9 74.72,-25.87 39.93,1.9 39.46,25.79 66.13,37.37 36.19,15.71 157.9,-2.01 172.5,22.99 18.29,31.4 -66.11,27.38 -94.87,25.91 -39.86,-2.05 -79.7,1.7 -119.55,5.46 -33.93,3.2 -67.87,6.4 -101.81,6.01 70.94,45.99 177.11,56.69 278.87,71.86 15.82,115.63 82.5,174.72 89.1,293.28 62.77,-84.64 105.43,-243.97 43.14,-359.38 -9.03,-16.69 -32.53,-27.01 -40.26,-43.14 -28.8,-59.76 -13.61,-256.58 5.74,-313.34 73.31,-214.91 24,-663.44 -48.87,-848.08 -9.21,-23.35 -30.77,-107.66 -23.02,-140.88 5.95,-25.33 34.63,-37.01 43.16,-66.1 15.55,-53.17 3.42,-144.62 0,-201.25 -3.1,-51.36 -31.99,-96.76 -74.77,-112.11 -18.59,-2.32 0.13,32.72 -14.36,34.49 -13.23,-6.53 -1.06,-27.13 -2.88,-40.23 52.25,-1.41 53.06,-54.29 54.63,-106.35 17.16,-6.36 58.47,-5.73 105.01,-5.1 96.38,1.29 215.17,2.59 188.23,-58.16 -14.77,-33.28 -67.99,-29.97 -122.74,-26.66 -33.13,2.01 -66.82,4.01 -92.89,-2.1 -13.49,-3.15 -22.27,-17.04 -34.49,-20.1 -146.95,-37.04 -337.08,-31.09 -518.81,-25.14 -104.26,3.41 -205.77,6.82 -294.77,2.11 150.99,-40.64 367.35,-15.96 471.48,-103.51 9.02,-55.688 -35.74,-70.31 -83.36,-74.708 -113.41,-10.562 -250.32,-3.832 -388.74,2.898 -185.27,9.008 -373.23,18.008 -511.1,-14.429 150.77,-46.422 422.01,-5.192 540.45,-91.981 120.66,-88.359 -120.05,-165.609 -221.32,-146.609 10.08,-19.57 65.28,-71.969 11.47,-83.359 -54.61,-11.61 -185.95,40.687 -301.84,45.988 -17.56,0.789 -36.56,0.402 -55.71,0 -75.72,-1.57 -153.83,-3.141 -154.16,69.012 -0.35,75.449 91.63,65.91 172.49,77.597 -125.49,54.711 -486.88,-15.949 -528.96,109.242 -12.59,37.461 8.29,69.207 28.76,83.369 90.89,63.02 256.91,25.79 379.44,60.36 -103.87,19.17 -227.38,18.7 -350.88,18.23 -145.83,-0.55 -291.66,-1.1 -405.18,30.67 -9.4,9.78 -6.14,32.18 -17.23,40.26 -58.6,-20.85 -134.33,50.17 -80.51,77.62 41.92,21.36 129.49,11.43 217.67,1.49 95.08,-10.71 190.85,-21.42 230.81,7.1 -31.26,42.84 -63.49,83.37 -100.62,129.4 -87.19,108.05 -253.54,173.99 -204.13,359.36 25.06,34.14 99.86,49.85 126.5,5.71 3.78,-12.51 3.07,-29.52 5.76,-43.11 21.23,-29.63 90.57,-48.17 129.36,-74.75 21.39,-14.65 29.76,-34.46 57.48,-31.63 37.97,3.91 42.79,52.62 71.87,71.86 -21.5,64.99 16.55,111.55 37.4,152.4 53.16,30.45 66.86,57.82 83.36,123.59 32.51,129.63 91.36,274.66 143.73,408.22 78.31,199.65 174.15,384.91 270.26,560.61 10.9,43.7 21.85,87.38 34.46,129.37 10.71,16.15 24.41,29.25 48.88,31.59 -88.7,115.63 131.17,162.73 40.28,290.39 -233.73,21.2 -419.35,105.79 -508.88,261.59 90.08,-27.18 184.23,-109.51 278.87,-137.99 41.54,-12.48 104.57,-29.93 140.85,-25.88 52.35,5.85 79.02,75.59 94.86,126.53 -217.28,28.21 -386.5,128.83 -431.19,339.21 -3.78,8.7 -13.48,11.41 -25.87,11.53 4.02,11.19 10.27,32.55 2.88,45.98 -52.57,-78.87 -53.28,-202.65 -48.88,-310.51 -97.79,-11.96 -74.42,182.82 -43.13,244.38 38.79,76.27 87.5,96.58 115,172.46 29.74,82.09 70.75,102.15 155.23,129.41 85.27,27.48 122.83,144.52 192.63,183.99 -37.19,45.21 -58.79,106.04 -109.27,137.96 -59.39,-3.92 -101.38,26.99 -117.85,74.76 -64.83,-74.14 -201.71,-164.02 -319.1,-94.89 -22.02,12.97 -49.14,41.35 -54.63,74.76 -8.54,51.87 29.3,67.63 28.75,106.36 -0.43,29.91 -40.72,84.86 14.35,103.51 9.41,278.07 113.94,461.05 327.75,534.72 31.47,74.15 194.01,83.99 244.35,20.1"
         style="fill:#3b393d;fill-opacity:1;fill-rule:evenodd;stroke:none"
         id="path2912" /><g
         id="g2932"><g
           id="g2934"
           clip-path="url(#clipPath2938)"><path
             d="m 5291.66,4968.83 c -4.64,0 -9.43,1.08 -14.42,3.75 46.84,35.62 132.34,95.29 228.78,95.29 12.7,0 25.59,-1.04 38.61,-3.3 19.57,-3.4 41.41,-12.37 34.49,-37.4 -12.75,-46.16 -177.32,-23.7 -241.5,-40.23 -14.2,-3.66 -29,-18.11 -45.96,-18.11"
             style="fill:url(#radialGradient2946);fill-opacity:1;fill-rule:nonzero;stroke:none"
             id="path2948" /></g></g><g
         id="g2950"><g
           id="g2952"
           clip-path="url(#clipPath2956)"><path
             d="m 5267,4958.02 c -3.35,0 -5.79,0.89 -4.1,5.9 2.26,2.02 5.67,2.94 9.93,2.94 0.51,0 1.03,-0.02 1.57,-0.04 0,-2.9 0,-5.75 0,-8.62 -0.5,0.06 -1.04,0.09 -1.61,0.09 -0.92,0 -1.9,-0.07 -2.89,-0.13 -0.99,-0.07 -1.98,-0.14 -2.9,-0.14"
             style="fill:url(#radialGradient2964);fill-opacity:1;fill-rule:nonzero;stroke:none"
             id="path2966" /></g></g><g
         id="g2968"><g
           id="g2970"
           clip-path="url(#clipPath2974)"><path
             d="m 5673.97,4831.68 c -36.68,12.31 -37.12,75.82 -37.34,115.01 15.5,-32.43 58.88,-64.31 37.34,-115.01"
             style="fill:url(#radialGradient2982);fill-opacity:1;fill-rule:nonzero;stroke:none"
             id="path2984" /></g></g><g
         id="g2986"><g
           id="g2988"
           clip-path="url(#clipPath2992)"><path
             d="m 5015.54,3771.23 c -20.05,0 -40.09,10.65 -57.39,37.03 -6.2,47.43 11.5,70.91 22.99,100.65 37.62,8.12 40.97,51.15 82.61,51.15 5.33,0 11.28,-0.71 18.02,-2.28 91.31,-21.35 12.66,-186.55 -66.23,-186.55"
             style="fill:url(#radialGradient3000);fill-opacity:1;fill-rule:nonzero;stroke:none"
             id="path3002" /></g></g><g
         id="g3004"><g
           id="g3006"
           clip-path="url(#clipPath3010)"><path
             d="m 4865.09,3103.66 c -1.53,0 -3.09,0.09 -4.68,0.27 -63.55,7.12 -4.79,172.27 0,212.71 21.31,179.67 44.17,407.82 23,595.09 7.68,1.91 10.93,8.27 17.23,11.53 -6.15,-55.94 38.08,-114.49 43.16,-183.99 7.66,-105.21 -8.83,-228.72 -2.91,-353.59 4.26,-89.05 -3.89,-282.02 -75.8,-282.02"
             style="fill:url(#radialGradient3018);fill-opacity:1;fill-rule:nonzero;stroke:none"
             id="path3020" /></g></g><g
         id="g3022"><g
           id="g3024"
           clip-path="url(#clipPath3028)"><path
             d="m 4273.81,3850.96 c -48.73,0 -77,40.49 -114.85,57.95 10.38,2.2 22.83,3.46 35.79,3.46 45.51,0 97.32,-15.58 87.83,-60.98 -3,-0.29 -5.92,-0.43 -8.77,-0.43"
             style="fill:url(#radialGradient3036);fill-opacity:1;fill-rule:nonzero;stroke:none"
             id="path3038" /></g></g><g
         id="g3040"><g
           id="g3042"
           clip-path="url(#clipPath3046)"><path
             d="m 5037.21,3308.03 c -0.48,0 -0.95,0.01 -1.43,0.03 -50.58,2.12 -40.45,147.69 11.52,155.25 3.28,0.48 6.39,0.71 9.32,0.71 38.32,0 48.43,-39 41.48,-78 -6.95,-38.99 -30.96,-77.99 -60.89,-77.99"
             style="fill:url(#radialGradient3054);fill-opacity:1;fill-rule:nonzero;stroke:none"
             id="path3056" /></g></g><g
         id="g3058"><g
           id="g3060"
           clip-path="url(#clipPath3064)"><path
             d="m 5030.02,2267.36 c -61.92,10.28 -39.42,91.39 -25.85,137.97 33.9,116.74 80.51,226.14 135.09,319.16 15.68,26.63 43.16,41.89 48.89,77.6 0.51,0.07 0.98,0.1 1.42,0.1 2.43,0 3.79,-1.07 4.32,-3.01 -50.5,-169.9 -140.06,-325.63 -163.87,-531.82"
             style="fill:url(#radialGradient3072);fill-opacity:1;fill-rule:nonzero;stroke:none"
             id="path3074" /></g></g><g
         id="g3076"><g
           id="g3078"
           clip-path="url(#clipPath3082)"><path
             d="m 4133.11,2255.87 c -15.87,22.83 4.92,47.72 11.47,66.1 140.53,127.84 292.03,259.93 537.61,273.11 -0.43,-5.06 -5.06,-5.92 -10.55,-5.92 -1.41,0 -2.88,0.05 -4.35,0.11 -1.46,0.06 -2.93,0.11 -4.33,0.11 -4.15,0 -7.81,-0.49 -9.53,-2.92 -11.12,-0.38 -11.33,-11.63 -20.11,-14.35 -73.14,-33.26 -139.9,-72.89 -206.98,-112.14 -117.26,-46.67 -192.47,-150.59 -293.23,-204.1"
             style="fill:url(#radialGradient3090);fill-opacity:1;fill-rule:nonzero;stroke:none"
             id="path3092" /></g></g><g
         id="g3094"><g
           id="g3096"
           clip-path="url(#clipPath3100)"><path
             d="m 4224.88,1539.06 c -114.81,5.25 -227.51,18.21 -337.78,38.4 18.03,46.69 55.97,73.49 76.35,117.8 -7.64,-1.68 -14.76,-2.36 -21.48,-2.36 -15.11,0 -28.16,3.48 -40.55,6.96 -12.38,3.49 -24.1,6.97 -36.52,6.97 -0.68,0 -1.36,-0.01 -2.04,-0.03 23.98,-33.9 27.27,-94.22 -16.37,-94.22 -10.12,0 -22.76,3.24 -38.27,10.82 4.13,-11.55 8.68,-22.69 13.89,-33.16 -31.41,6.62 -62.73,13.85 -93.69,21.63 12.92,16.86 21.63,39.9 39.55,51.76 -21.5,64.99 16.55,111.55 37.4,152.4 53.16,30.45 66.86,57.82 83.36,123.59 32.51,129.63 91.36,274.66 143.73,408.22 78.31,199.65 174.15,384.91 270.26,560.61 10.9,43.7 21.85,87.38 34.46,129.37 10.71,16.15 24.41,29.25 48.88,31.59 -88.7,115.63 131.17,162.73 40.28,290.39 -233.73,21.2 -419.35,105.79 -508.88,261.59 90.08,-27.18 184.23,-109.51 278.87,-137.99 37.37,-11.23 92.14,-26.48 129.17,-26.48 4.13,0 8.04,0.19 11.68,0.6 52.35,5.85 79.02,75.59 94.86,126.53 -217.28,28.21 -386.5,128.83 -431.19,339.21 -3.78,8.7 -13.48,11.41 -25.87,11.53 4.02,11.19 10.27,32.55 2.88,45.98 -52.57,-78.87 -53.28,-202.65 -48.88,-310.51 -2.89,-0.35 -5.69,-0.52 -8.38,-0.52 -88.03,-0.03 -65.11,185.16 -34.75,244.9 38.79,76.27 87.5,96.58 115,172.46 29.74,82.09 70.75,102.15 155.23,129.41 85.27,27.48 122.83,144.52 192.63,183.99 -37.19,45.21 -58.79,106.04 -109.27,137.96 -3.39,-0.22 -6.73,-0.33 -10.02,-0.33 -54.09,0 -92.3,30.06 -107.83,75.09 -48.46,-55.42 -137.21,-119.65 -227.96,-119.65 -30.65,0 -61.51,7.31 -91.14,24.76 -22.02,12.97 -49.14,41.35 -54.63,74.76 -8.54,51.87 29.3,67.63 28.75,106.36 -0.43,29.91 -40.72,84.86 14.35,103.51 9.41,278.07 113.94,461.05 327.75,534.72 17.43,41.08 75.1,62.42 131.63,62.42 45.5,0 90.27,-13.83 112.72,-42.32 28.63,11.94 62.84,39.74 97.49,39.74 11.61,0 23.26,-3.12 34.77,-11 23.67,-16.17 16.71,-36.12 34.49,-60.35 21.75,-29.63 53.57,-38.05 54.63,-91.99 1.07,-55.19 -51.74,-84.94 -51.77,-126.5 0,-31.84 50.88,-51.47 48.89,-83.36 43.99,0.01 50.86,-56.76 91.99,-83.38 65.42,-42.28 147.8,-47.02 140.85,-161 -1.33,-22.54 -20.31,-49.66 5.79,-63.24 110.78,82.82 229.54,172.84 370.84,215.62 17.05,-68.56 -68.49,-82.39 -100.62,-120.75 -50.42,-27.2 -100.46,-54.78 -152.37,-80.48 -29.82,-1.82 -48.79,-14.47 -71.87,-23.02 18.73,-52.16 53.85,-87.96 51.75,-160.96 53.57,-26.94 119.81,-41.18 112.1,-129.38 9.63,-5.41 17.07,-7.73 23.06,-7.73 19.04,0 23.46,23.39 37.33,45.09 31.34,49.06 64.72,106.18 91.98,158.13 49.8,94.7 165.32,158.93 252.97,227.11 23.09,17.94 71.43,56.83 97.76,56.83 15.3,0 23.17,-13.12 14.36,-51.08 -199.86,-39.33 -285.51,-235.33 -382.35,-382.35 -15.57,-23.67 -49.3,-38.39 -51.72,-66.12 -4.44,-50.55 25.68,-110.18 5.76,-166.77 -7.5,-21.18 -27.86,-26.64 -14.38,-54.61 34.96,10.95 67.92,46.34 117.83,54.61 1.4,0.23 2.87,0.33 4.39,0.33 4.8,0 10.15,-1 15.58,-2.01 5.43,-1 10.93,-2.01 16.05,-2.01 2.48,0 4.87,0.24 7.11,0.83 30.96,8.18 84.35,79.58 117.91,106.36 80.4,64.31 147.59,101.71 212.72,181.13 39.38,48.03 65.89,65 80.48,129.36 12.23,53.94 90.18,100.84 77.63,161 -6.26,29.91 -50.12,30.91 -60.37,60.38 -7.26,59.06 38.3,99.23 14.38,152.38 -16.97,37.6 -77.11,25.42 -103.51,57.48 10.37,0.59 20.68,0.93 30.76,0.93 43.2,0 82.28,-6.32 104.36,-26.81 32.26,-29.94 63.3,-119.12 51.76,-166.75 -2.94,-12.07 -15.09,-26.88 -14.39,-40.23 2.36,-45.16 39,-89.68 14.39,-152.4 -63.75,-162.19 -185.11,-293.98 -313.38,-385.2 85.82,-108.75 78.4,-278.36 92.01,-468.62 5.36,-74.75 22.78,-141.56 23,-206.95 0.16,-51.63 -19.34,-110.73 -41.37,-110.74 -10.19,0 -20.93,12.67 -30.5,44.61 -32.69,109.1 9.24,238.53 -5.76,356.47 -15.44,121.39 -84.23,220.49 -66.13,365.09 -49.5,-34.85 -121.2,-47.46 -143.73,-109.24 -57.19,-12.8 -89.81,-50.1 -109.24,-100.59 -16.51,-12.82 -42.72,-20.13 -67.91,-20.13 -33.58,0 -65.37,12.96 -70.09,43.12 -5.11,32.62 32.35,73.77 0,100.62 -18.02,-19.27 -32.37,-26.83 -44.76,-26.83 -22.51,0 -38.58,24.9 -58.61,49.81 -20.01,24.9 -43.98,49.8 -82.25,49.8 -8.32,0 -17.33,-1.18 -27.12,-3.79 33.25,43.59 72.88,120.57 94.86,175.34 -64.52,-20.76 -84.31,-111.09 -123.62,-166.7 -4.67,-11.66 15.23,-13.27 5.8,-20.14 -4.97,1.04 -10.14,1.54 -15.41,1.54 -43.19,0 -92.56,-33.39 -88.13,-70.55 1.78,-14.84 14.18,-18.41 30.33,-18.41 7.51,0 15.83,0.77 24.27,1.55 8.44,0.77 17,1.54 24.99,1.54 23.41,0 41.95,-6.62 38.29,-39.26 4.74,0.54 9.2,0.8 13.39,0.8 28.4,0 45.3,-11.49 64.22,-20.94 13.33,5.44 53.38,22.84 84.57,22.84 18.93,0 34.6,-6.4 39.07,-25.75 9.3,-40.38 -102.73,-80.95 -145.2,-80.96 -2.7,0 -5.11,0.17 -7.2,0.5 -21.31,3.43 -30.68,22.78 -45.97,25.88 -4.61,0.93 -9.04,1.37 -13.28,1.37 -65.38,0 -87.01,-105.16 -84.45,-162.39 3.09,-69.17 90.78,-152.81 54.6,-258.73 0.49,-14.84 -25.41,-3.29 -28.73,-14.38 -5.95,-23.24 21.91,-33.81 23,-57.48 1.32,-28.74 -25.26,-37.54 -37.38,-60.37 -14.4,-27.08 -12.5,-60.61 -40.25,-80.51 -28.85,-20.65 -77.47,-35.61 -121.39,-35.61 -22.15,0 -43.11,3.81 -59.74,12.61 -28.6,-74.5 -31.75,-147.04 -5.72,-227.12 40.16,-24.02 88.81,-39.57 140.86,-51.72 -42.49,-23.68 -123.1,-9.16 -169.61,-28.73 64.52,-39.53 155.55,-51.59 252.03,-51.59 116.87,0 241.75,17.69 337.33,25.68 12.5,-41.36 55.37,-29.21 103.47,-34.49 29.98,-3.3 51.65,-25.9 73.3,-25.9 0.47,0 0.95,0.01 1.42,0.03 39.93,1.9 39.46,25.79 66.13,37.37 36.19,15.71 157.9,-2.01 172.5,22.99 13.26,22.76 -27.46,26.91 -61.81,26.91 -13.04,0 -25.15,-0.6 -33.06,-1 -7.81,-0.4 -15.63,-0.58 -23.44,-0.58 -32.04,0 -64.07,3.02 -96.11,6.04 -32.02,3.02 -64.06,6.04 -96.09,6.04 -1.91,0 -3.81,-0.01 -5.72,-0.03 70.94,45.99 177.11,56.69 278.87,71.86 15.82,115.63 82.5,174.72 89.1,293.28 62.77,-84.64 105.43,-243.97 43.14,-359.38 -9.03,-16.69 -32.53,-27.01 -40.26,-43.14 -28.8,-59.76 -13.61,-256.58 5.74,-313.34 73.31,-214.91 24,-663.44 -48.87,-848.08 -5.79,-14.68 -16.46,-53.46 -21.66,-88.49 -21.68,-11.25 -43.68,-22.25 -65.73,-32.88 7.79,16.74 13.33,34.93 15.52,55.24 24.14,223.97 84.4,491.04 80.51,753.23 -104.78,50.45 -34.14,280.17 -60.39,393.84 -75.37,-30 -162.1,-38.26 -254.77,-38.26 -110.87,0 -230.25,11.82 -348.94,12.39 -2.72,0.01 -5.44,0.01 -8.14,0.01 -33.03,0 -64.55,-0.91 -94.73,-1.83 -30.19,-0.92 -59.03,-1.83 -86.64,-1.83 -97.92,0 -180.37,11.53 -253.2,75.51 -26.97,-120.68 -80.19,-196.51 -132.24,-298.98 -124.08,-244.19 -220.54,-527.96 -319.13,-779.06 190.24,134.66 360.72,334.99 641.11,350.72 -20.19,-6.66 -32.51,-21.18 -54.61,-25.85 -204.18,-174.37 -479.43,-277.68 -618.11,-517.49 45.2,1.66 86.41,11.85 123.62,25.88 131.3,49.49 225.85,209.78 365.32,209.78 14.73,0 29.96,-1.79 45.78,-5.68 7.81,5.59 13.1,13.75 23,17.25 9.4,146.81 160.58,151.81 178.25,290.34 -59.09,150.94 197.28,187.45 112.12,347.89 -65.32,14.52 -98.23,49.3 -138.02,89.1 -38.18,38.2 -68.6,67.5 -24.86,67.5 9.42,0 22.27,-1.36 39.23,-4.28 121.2,-20.79 212.91,-44.58 267.35,-135.09 21.86,-97.27 46.32,-252.23 48.93,-376.61 0.67,-33.9 5.7,-68.17 2.85,-97.74 -9.07,-93.56 63.12,-185.97 103.48,-247.24 49.38,194.01 128.67,358.18 195.47,534.76 40.56,44.73 60.22,125.62 112.14,149.46 -80.36,-266.53 -216.34,-492.81 -255.86,-790.61 0.29,0 0.59,-0.01 0.88,-0.01 14.98,0 25.96,11.35 37.67,22.7 11.71,11.35 24.16,22.7 42.06,22.7 4.39,0 9.12,-0.68 14.25,-2.22 -7.31,-63.61 -54.36,-87.46 -94.86,-117.88 17.97,-28.23 13.76,-65.61 0.36,-97.14 -42.94,-14.3 -86.25,-27.42 -130.18,-39.42 3.71,32.54 40.68,57.92 37.84,87.69 -3.75,39.14 -64.09,61.07 -63.25,117.88 0.22,15.27 12.37,32.94 11.49,51.73 -2.13,47.31 -47.78,102.06 -60.36,163.87 -5.76,28.04 4.21,63.43 -2.91,89.1 -4.92,17.88 -35.04,44.38 -45.96,71.86 -23.75,59.66 -18.78,131.25 -43.14,155.26 -28.97,-28.52 -76.32,-38.66 -100.59,-71.87 -17.15,-81.51 -81.11,-144.32 -129.38,-204.13 -48.08,-59.47 -82.5,-122.15 -115,-178.19 -16.2,-27.97 -59.36,-64.86 -63.25,-97.77 -2.71,-23.13 9.92,-40.8 5.74,-60.37 -7.29,-34.49 -75.7,-79.53 -109.22,-109.27 -33.38,-29.53 -77.79,-62.19 -100.83,-101.57 m 100.83,302.84 c -53.4,-38.67 -110.08,-89.19 -146.61,-135.1 47.02,18.13 66.36,63.98 131.57,63.98 4.76,0 9.76,-0.24 15.04,-0.76 v 0 0 c -2.28,19.07 -0.38,52.54 0,71.88 m 120.74,1765.14 c -6.25,-58.09 8.05,-120.27 20.11,-169.61 99.13,0.93 33.93,92.82 57.49,140.85 -26.5,8.95 -55.69,15.2 -77.6,28.76 m 212.15,6.36 c -35.22,0 -76.89,-6.28 -100.06,-6.36 -13.56,-68.2 40.86,-68.44 34.53,-129.38 5.71,-1.55 11.85,-2.2 18.15,-2.2 18.91,0 39.23,5.86 53.71,10.79 -10.74,53.38 41.69,58.44 51.72,83.39 14.32,35.47 -17.62,43.76 -58.05,43.76 m -556.96,431.53 c 4.86,0 8.2,-2.17 8.45,-9.58 -15.85,-10 -34.98,-16.74 -46.02,-31.61 64.56,-166.51 222.94,-258.3 388.12,-330.59 21.56,-9.44 48.84,-14.11 77.01,-14.11 72.86,0 151.67,31.2 152.99,91.73 -23.6,-23.35 -52.76,-41.15 -86.25,-54.6 -5.98,23.7 -17.2,42.21 -23.02,66.1 -18.13,-20.07 -59.48,-40.85 -93.65,-40.85 -29.66,-0.01 -53.92,15.64 -52.93,60.99 -9.09,-1.69 -17.39,-2.5 -24.96,-2.5 -66.26,-0.01 -76.3,61.86 -67.08,131.82 -59.25,28.93 -106.06,70.24 -152.34,112.15 67.35,-24.62 166.1,-17.91 195.5,-80.51 43,19.33 63.06,61.51 94.87,91.98 -64.77,29.67 -189.01,96.3 -285.69,96.3 -55.31,0 -101.58,-21.79 -122.57,-84.77 3.07,-4.74 7.54,-6.23 12.5,-6.23 4.2,0 8.76,1.07 13.12,2.14 4.37,1.07 8.53,2.14 11.95,2.14 m 560.41,-38.33 c -44.79,-83.67 -161.91,-125.36 -163.85,-232.84 91.21,37.25 131.48,155.94 163.85,232.84 m 20.14,-60.35 c -3.89,-24.18 -87.45,-148.11 -43.11,-158.13 1.23,-0.28 2.44,-0.42 3.62,-0.42 35.33,-0.01 49.48,120.36 39.49,158.55 m -23.03,140.85 c -121.27,-50.2 -220.43,-122.58 -267.34,-247.23 4.58,-2.32 9.06,-3.23 13.42,-3.23 13.88,0 26.67,9.21 38.33,11.87 61.29,88.23 174.01,140.31 215.59,238.59 m 34.49,-117.82 c -2.65,-2.45 -6.11,-18.35 0,-20.14 2.73,2.41 6.18,18.32 0,20.14 m -298.95,365.06 c -59.36,-30.66 -122.69,-57.46 -143.73,-126.45 88.58,-44.63 187.65,-78.76 264.46,-135.14 72.82,13.43 128.54,43.93 189.76,68.99 -15.42,80.34 34.73,137.78 94.85,161.01 -1.47,19.68 5.12,31.32 2.86,51.73 -14.08,-4.69 -28.85,-6.03 -43.71,-6.03 -10.04,0 -20.12,0.61 -30.08,1.23 -9.94,0.61 -19.76,1.23 -29.26,1.23 -24.28,0 -46.5,-4.02 -63.68,-22.31 43.13,-42.32 -11.47,-64.2 -67.19,-64.21 -13.44,0 -26.95,1.28 -39.17,3.85 -56.29,11.85 -115,39.76 -135.11,66.1 m 712.95,-218.48 c 0.49,-9.08 -7.64,-9.6 -5.76,-20.11 3.18,-2.11 6.12,-3.01 8.68,-3.01 10.21,0 14.54,14.25 5.72,23.12 -2.88,0 -5.76,0 -8.64,0 m -668.47,234.35 c -12.75,0 -23.42,-4.87 -30.1,-18.73 17.21,-10.97 47.75,-17.85 77.34,-17.85 19,0 37.6,2.83 52.04,9.24 -27.75,0.3 -69.25,27.34 -99.28,27.34 m 90.63,470.01 c -75.59,-74.88 -146.1,-154.83 -238.61,-212.76 29.83,-102.06 137.54,-198.67 269.08,-198.68 13.57,0 27.38,1.03 41.4,3.19 50.96,7.85 117.99,46.71 129.35,91.99 23.24,92.66 -34.36,142.19 -43.11,204.11 -8.78,62.32 36.59,129.68 -45.99,146.63 -15.05,-30 -9.23,-80.82 -40.25,-94.87 -31.29,12.8 -50.66,37.51 -71.87,60.39 m 321.99,-212.76 c -7.94,-48.62 -10.17,-102.92 -34.53,-135.1 5.2,-4.33 10.33,-6.27 15.27,-6.27 38.67,0 65.75,118.71 19.26,141.37 m -702.93,713.01 c -0.45,0 -0.92,-0.02 -1.4,-0.05 -150.83,-112.7 -260.34,-266.69 -287.49,-503.08 4.53,-29.97 41.88,-27.13 54.63,-48.87 -29.28,-29.69 -120.96,-138.68 -34.52,-166.76 14.92,19.58 -2.85,71.87 20.14,83.38 -5.81,-54.21 15.61,-79.81 43.03,-79.81 17.63,0 37.74,10.57 54.71,30.94 -5.66,49.58 24,97.32 5.76,132.25 8.1,7.17 11.36,19.27 23,22.98 0.52,0.04 1.04,0.06 1.56,0.06 3.75,0 7.31,-1.15 10.6,-2.3 3.29,-1.15 6.32,-2.3 9.01,-2.3 1.71,0 3.28,0.46 4.7,1.68 51.38,27.13 118.48,100.03 137.97,160.97 9.62,30.13 5.33,63.9 37.4,71.86 6.67,1.67 13.4,2.31 20.19,2.31 11.8,0 23.78,-1.95 35.93,-3.91 12.16,-1.95 24.5,-3.9 37.01,-3.9 14.7,0 29.65,2.69 44.84,11.25 -18.59,108.33 93.28,106.87 109.24,189.78 -14.48,26.51 -28.68,35.58 -43.17,35.58 -15.69,0 -31.71,-10.62 -48.78,-21.25 -17.08,-10.62 -35.2,-21.25 -55.09,-21.25 -3.63,0 -7.32,0.36 -11.07,1.13 -63.48,13.1 -38.14,140.77 -130.03,140.77 -7.57,0 -15.92,-0.87 -25.2,-2.73 -1.82,-15.25 10.11,-16.75 8.62,-31.65 -1.78,-0.36 -3.35,-0.51 -4.76,-0.51 -3.37,0 -5.9,0.85 -8.42,1.71 -2.52,0.86 -5.04,1.72 -8.41,1.72 m 7.21,-523.26 c -34.93,-14.05 -80.16,-42.4 -126.47,-54.63 -4.02,-36.57 4.4,-60.75 22.99,-74.76 20.5,16.54 41.04,33.04 78.09,33.04 6.08,0 12.61,-0.44 19.66,-1.41 7.5,25.31 10.29,69.86 5.73,97.76 m 140.79,132.25 c -57.6,0 -63.54,-76.28 -106.3,-100.61 2.04,-53.58 20.93,-90.28 37.4,-129.4 61.81,37.85 48.22,151.12 68.99,230.01 -0.03,0 -0.06,0 -0.09,0 M 3577.7,1654.84 c -68.77,21.96 -136.26,46.83 -202.3,74.43 0.5,2.07 1.04,4.17 1.6,6.28 14.19,19.32 44.32,32.75 72.62,32.75 21.7,0 42.32,-7.89 53.88,-27.04 3.78,-12.51 3.07,-29.52 5.76,-43.11 12.08,-16.85 39.71,-30.12 68.44,-43.31 m 1598.8,24.05 c 90.87,191.48 169.89,403.38 307.76,536.73 -51.99,-169.4 -127.95,-328.55 -189.49,-491.54 -39,-16.05 -78.31,-31.08 -118.27,-45.19"
             style="fill:url(#radialGradient3108);fill-opacity:1;fill-rule:nonzero;stroke:none"
             id="path3110" /></g></g></g></g></svg>
