<?xml version="1.0" encoding="UTF-8" standalone="no"?>
<!-- Created with Inkscape (http://www.inkscape.org/) -->

<svg
   version="1.1"
   id="svg2"
   xml:space="preserve"
   width="684.83398"
   height="637.97974"
   viewBox="0 0 684.83398 637.97974"
   sodipodi:docname="sausages.svg"
   inkscape:version="1.1.2 (0a00cf5339, 2022-02-04)"
   xmlns:inkscape="http://www.inkscape.org/namespaces/inkscape"
   xmlns:sodipodi="http://sodipodi.sourceforge.net/DTD/sodipodi-0.dtd"
   xmlns="http://www.w3.org/2000/svg"
   xmlns:svg="http://www.w3.org/2000/svg"><defs
     id="defs6"><clipPath
       clipPathUnits="userSpaceOnUse"
       id="clipPath34"><path
         d="m 4801.26,868.391 c -7.75,244.799 25.09,526.779 -1.1,774.629 -10.61,100.48 -7.6,204.98 -51.9,269.11 -24.06,18.06 -53.52,30.75 -93.99,32.4 18.8,121.49 -138.25,92.28 -226.97,116.7 168.36,103.96 140.22,348.46 116.7,638.75 -11.52,142.7 -30.01,369.43 19.48,434.47 139.38,0.03 230.76,48.07 272.36,145.92 17.87,185.89 -143.25,208.45 -298.3,210.75 -35.96,73.75 -2.18,150.97 -55.15,213.93 -10.57,12.67 -70.87,42.22 -94.02,51.9 -16.94,7.11 -64.08,19.27 -102.73,19.27 -33.53,0 -60.66,-9.16 -56.12,-38.7 6.96,-45.46 120.87,-32.16 119.95,-94.02 -0.4,-25.87 -58.91,-55.02 -81.05,-64.86 -56.77,-25.23 -130.19,-38.69 -194.53,-45.4 3.43,22.53 24.61,27.25 38.9,38.93 161.24,313.87 332.02,698.31 509.05,1031 24.64,46.35 47.03,129.7 84.3,145.92 8.83,-7.39 6.6,-25.81 16.18,-32.41 24.66,-3.35 49.15,-6.9 77.14,-6.9 5.49,0 11.13,0.14 16.92,0.44 119.91,-145.95 207.25,-346.89 350.16,-492.87 27.86,-28.44 95.46,-83.83 97.27,-113.45 1.86,-31.02 -54.07,-93.16 -71.34,-139.42 -38.78,-103.91 -39.84,-257.34 -45.36,-395.56 -1.82,-44.05 -28.82,-85.31 -38.94,-119.96 -28.87,-98.79 -39.32,-221.13 -45.4,-333.98 -7.2,-133.81 7.67,-295.51 -9.71,-405.27 -29.31,-184.97 10.57,-426.32 35.65,-609.52 25.96,-189.87 55.98,-399.06 106.98,-538.23 6.68,-18.11 34.86,-54.28 32.43,-74.55 -2.39,-20.56 -32.7,-31.3 -32.43,-51.89 0.43,-29.9 18.06,-39.36 41.02,-39.35 29.06,0 66.66,15.15 88.68,23.13 53.53,-45.09 26.34,-118.21 32.43,-191.28 3.68,-44.27 43.68,-83.88 42.18,-129.71 -0.33,-9.87 -3.67,-21.78 -8.98,-34.5 C 5203.2,980.441 5006.01,914.641 4801.26,868.391 m 757.57,333.689 c -21.74,25.78 -39.91,55.18 -81.06,61.61 1.18,61.68 -46.68,74.31 -71.33,110.21 46.95,34.42 126.73,56.02 205.12,56.02 19.42,0 38.77,-1.33 57.5,-4.12 6.19,-81.08 -67.47,-123.09 -51.83,-214 -14.51,-8.22 -36.06,-9.35 -58.4,-9.72 m -3055.01,7.74 C 1537.24,1761.97 885.727,2802.7 885.727,3995.6 c 0,744.74 253.993,1430.14 680.013,1974.4 h 5051.94 c 426.01,-544.26 680,-1229.66 680,-1974.4 0,-889.33 -361.99,-1693.97 -946.78,-2274.75 -29.63,62.55 -66.62,134.2 -75.49,194.53 -18.57,126.08 -41.17,213.39 -55.18,337.17 55.39,165.17 27.59,387.96 12.99,573.89 -0.52,0.05 -1.01,0.07 -1.48,0.07 -7.28,0 -8.77,-5.8 -10.26,-11.61 -1.49,-5.8 -2.99,-11.61 -10.28,-11.61 -1.15,0 -2.45,0.15 -3.9,0.46 -14.94,70.45 -42.58,128.16 -51.91,204.26 89.05,-72.97 195.12,-120.57 275.62,-201.04 35.22,-35.19 60.3,-90.95 119.95,-97.26 2.2,191.42 -216.48,235.23 -298.27,353.42 95.09,1 231.54,10.17 197.79,110.25 -27.93,82.8 -178.45,65.73 -269.12,93.99 66.16,79.94 5.34,171.21 -64.71,171.21 -25.58,0 -52.4,-12.17 -74.71,-41.51 -27.04,146.99 25.73,321.66 -9.71,457.15 15.26,29 36.87,48.53 42.14,77.86 17.02,94.64 -32.49,179.3 -48.65,230.16 -18.6,58.67 -11.52,107.72 -48.61,139.44 6.05,19.48 20.02,21.03 35.21,21.03 1.45,0 2.9,-0.01 4.36,-0.02 1.45,-0.02 2.91,-0.03 4.36,-0.03 6.03,0 12.04,0.23 17.65,1.68 66.8,17.35 116.77,85.22 162.1,126.45 14.17,-20.08 35.03,-27.45 56.47,-27.45 24.52,0 49.82,9.65 66.76,20.98 -133.89,-313.87 -111.48,-833.41 188.07,-936.99 28.56,-9.88 76.54,-19.34 122.15,-19.34 58.08,0 112.33,15.35 117.72,64.71 -102.97,39.7 -243.73,41.57 -285.3,142.67 10.98,8.46 34.15,4.78 38.94,19.46 -89.86,214.8 77.46,550.87 0,787.86 -18.4,56.27 -49.58,92.32 -95.67,92.32 -21.12,0 -45.38,-7.57 -72.97,-24.24 -49.01,112.99 104.47,151.65 145.95,226.97 31.54,-11.89 65.04,-17.58 97.54,-17.58 118.58,0 223.84,75.74 171.51,202.36 -0.89,18.21 26.64,8.04 22.72,29.18 -65.08,46.26 -92.7,129.92 -142.64,191.29 40.13,-63.91 -9.53,-156.25 38.91,-204.22 13.08,-12.97 42.51,-12.91 45.4,-32.46 8.27,-56.5 -119.71,-43.99 -152.4,-58.31 -44.01,-19.34 -79.85,-70.32 -126.44,-94.04 -90.16,-45.93 -152.41,-115.58 -230.21,-152.42 -66.72,29.4 -122.51,72.84 -158.89,132.95 -15.26,25.28 -61.1,93.56 -58.33,132.95 3.49,49.93 74.21,162.22 119.95,175.06 2.99,0.84 5.87,1.21 8.67,1.21 8.76,0 16.77,-3.55 25.14,-7.09 8.37,-3.54 17.12,-7.08 27.36,-7.08 0.15,0 0.29,0 0.44,0 17.07,0.18 28.56,12.97 41.55,12.97 0.2,0 0.4,0 0.6,-0.01 11.88,-0.35 56.03,-23.3 86.84,-23.29 14.52,0 26.08,5.09 29.9,20.05 18.85,74.27 -179.03,72.06 -226.98,90.76 -98.21,38.38 57.54,153.98 84.28,165.39 49.87,21.24 121.2,3.71 126.45,42.14 4.84,35.48 -34.44,48.25 -81.19,48.25 -59.69,0 -131.56,-20.82 -139.28,-41.78 -50.61,-38.13 -94.33,-141.84 -48.62,-217.18 -30.13,-16.83 -11.4,-52.63 -22.68,-81.09 -11.78,-29.52 -56.22,-36.14 -81.08,-58.36 -28.54,-25.5 -31.46,-65.08 -55.09,-84.27 -53.62,-43.56 -122.28,-55.98 -171.88,-94.05 -91.81,-70.53 -143.06,-186.72 -175.07,-314.48 -201.86,82.36 -308.6,259.82 -518.74,333.95 6.01,88.55 -125.03,131.19 -129.72,184.78 -4.3,49.29 53.05,106.31 77.83,145.89 117.33,-33.61 179.65,-150.65 316.31,-150.64 8.8,0 17.9,0.48 27.35,1.5 28.76,28.17 1.85,100.52 -19.43,132.92 -29.4,44.82 -180.4,136.75 -246.43,149.16 -25.23,4.78 -72.66,13.2 -90.02,13.2 -1.6,0 -2.95,-0.07 -4,-0.22 -82.71,-12 -99.23,-207.5 -155.64,-246.41 -112.01,-25.72 -117.21,-136.6 -132.92,-243.18 -45.67,-119.68 -111.61,-219.18 -168.59,-333.95 -103.49,-208.36 -197.88,-414.73 -308.02,-629 -10.41,-20.21 -39.89,-113.65 -72.24,-113.65 -0.78,0 -1.56,0.05 -2.34,0.16 -19.77,2.85 -33.84,52.14 -45.37,61.62 -25.26,20.69 -85.77,39.3 -123.23,51.87 -63.19,21.24 -166.74,48.49 -256.21,48.49 -33.06,0 -64.21,-3.72 -90.68,-12.84 -48.74,-16.74 -46.99,-66.09 -77.86,-87.52 -16.21,-11.25 -56.54,-12.89 -94.74,-12.89 -7.9,0 -15.71,0.07 -23.2,0.14 -7.51,0.07 -14.69,0.14 -21.32,0.14 -7.3,0 -13.93,-0.09 -19.56,-0.36 -389.81,-18.58 -771.24,-53.77 -771.7,-450.68 -24.97,2.39 -49.26,3.65 -72.6,3.65 -99.26,0 -181.4,-22.79 -225.67,-78.2 -150.91,-188.83 169.43,-301.09 330.7,-317.73 35.96,-101.35 31.21,-243.34 45.43,-366.39 2.74,-0.18 5.38,-0.27 7.94,-0.27 13.63,0 24.79,2.48 34.18,6.73 5.28,51.26 20.67,110.37 25.93,152.43 8.71,69.16 -23.57,174.29 -3.21,217.21 21.46,45.34 161,34.76 110.2,129.67 -24.15,45.21 -89.63,26.79 -129.67,71.33 0.28,99.88 -31.6,244.78 9.75,324.24 196.29,-106.16 516.85,-155.44 838.65,-155.43 300.84,0 602.76,43.07 805.14,123.02 16.03,16.41 33.72,31.09 61.61,35.65 -10.51,-70.44 46.54,-171.08 16.22,-230.18 -11.31,-22.01 -52.72,-23.7 -64.86,-48.65 -31.49,-64.93 33.6,-92.79 68.08,-119.98 1.01,-133.16 -2.94,-274.7 9.75,-424.72 13.49,-159.99 38.77,-366.23 -9.75,-483.08 -19.84,-47.77 -81.3,-88.29 -126.42,-106.98 -106.47,-44.09 -255.08,-50.84 -415.15,-50.84 -35.35,0 -71.27,0.33 -107.41,0.66 -36.16,0.33 -72.53,0.66 -108.81,0.66 -82.07,0 -163.63,-1.69 -240.81,-8.88 -80.76,-7.52 -167.02,-13.37 -251.36,-13.37 -101.74,0 -200.66,8.51 -283.63,32.83 0.65,61.43 -58.24,58.86 -87.55,100.52 -64,91.07 -51.59,239.31 -126.45,324.23 -23.35,-45.15 -19.95,-128.69 -16.21,-184.82 7.42,-110.05 58.92,-184.7 103.79,-249.68 -7.21,0.75 -14.39,1.11 -21.52,1.11 -112.14,0 -208.75,-89.75 -124.39,-182.68 -7.93,-3.2 -19.01,-4.16 -31.59,-4.16 -9.24,0 -19.29,0.52 -29.48,1.03 -10.18,0.51 -20.51,1.03 -30.33,1.03 -22.35,0 -42.04,-2.67 -51.27,-14.05 -23.17,-28.58 -6.25,-98.47 0,-129.73 24.62,-122.8 -3.03,-299.93 3.25,-466.9 0.96,-25.54 1.75,-51.1 2.42,-76.53 m 999.43,1143.28 c 0.83,-77.89 9.05,-134.97 48.65,-168.64 23.26,-19.74 47.38,-27.77 71.66,-27.77 90.7,0 183.4,112.18 239.58,144.51 25.45,-45.78 63.83,-64.28 105.16,-64.28 94.05,0.02 203.26,95.87 209.36,184.23 -11.68,5.03 -22.45,7.16 -32.58,7.16 -52.99,0 -88.32,-58.32 -142.49,-65.5 21.42,83.11 63.39,146.41 103.7,210.75 39.11,62.32 111.24,112.2 110.26,200.97 -11.06,9.86 -23.18,14.16 -35.5,14.16 -16.66,0 -33.65,-7.88 -48.79,-20.58 -172.38,-144.83 -254.13,-447.5 -502.56,-518.81 -32.09,29.52 -19.03,86.35 -9.74,116.73 51.34,167.49 173.04,302.78 278.86,421.53 28.51,31.97 155.54,157.23 71.33,165.33 -1.76,0.17 -3.54,0.25 -5.34,0.25 -73.16,0 -181.27,-137 -228.12,-191.54 -75.75,-88.22 -116,-169.67 -171.85,-256.15 -41.42,-64.19 -168.51,-164.19 -243.15,-184.79 -10.26,-2.83 -19.47,-4.14 -27.73,-4.14 -70.83,0.01 -71.1,96.42 -50.07,153.27 85.31,230.62 275.18,396.4 385.81,557.65 -2.14,0 -4.32,0 -6.46,0 -1.08,0 -2.18,0 -3.28,0 -0.03,-4.27 -5.67,-2.92 -6.47,-6.47 -178.32,-108.92 -388.61,-317.71 -453.91,-551.18 -21.21,-75.89 -0.09,-149.93 35.65,-184.81 28.55,-24.89 58.3,-34.56 88.11,-34.56 80.71,0 161.77,70.93 219.91,102.68 m -379.35,570.6 c -71.61,-95.43 -188.31,-209.4 -194.53,-356.63 -1.11,-26.87 10.47,-68.46 32.07,-68.46 1.18,0 2.38,0.12 3.61,0.38 18.73,3.88 26.03,59.5 29.18,74.57 27.29,130.83 103.83,258.42 129.67,350.14 m 3229.31,2175.56 c -30.26,-79.18 28.48,-152.53 102.31,-152.53 8.95,0 18.13,1.08 27.39,3.36 5.17,85.62 -128.2,59.62 -129.7,149.17 m 18.28,272.73 c 88.95,0 77.63,-126.93 117.89,-181.97 9.57,-13.07 29.83,-20.66 48.82,-20.66 10.81,0 21.2,2.46 28.98,7.76 89.17,60.42 -16.9,201.24 -71.34,223.69 -26.13,10.78 -54.78,16.78 -81.47,16.78 -51.23,0 -95.19,-22.14 -100.09,-75.15 16.03,5.79 22.8,26.97 48.65,29.18 2.96,0.25 5.8,0.37 8.56,0.37 M 5778.51,1268.7 c 17.65,37.16 32.25,77.31 30,127.91 45.24,15.26 98.98,22.07 158.88,22.69 3.03,-5.78 5.95,-11.69 8.78,-17.67 -64.13,-46.67 -130.07,-91.03 -197.66,-132.93 m -92.28,199.92 c -51.79,0 -103.25,6.24 -154.17,12.48 -50.93,6.25 -101.33,12.49 -151.03,12.49 -26.31,0 -52.43,-1.75 -78.33,-6.18 -135.4,434.62 -187.45,1039.86 -145.87,1588.7 99.27,-44.05 250.04,-64.37 394.49,-64.37 66.2,0 131.1,4.27 189.07,12.48 117.69,-404.49 140.16,-921.57 249.69,-1342.31 7.16,-27.61 44.17,-117.28 12.93,-158.84 -15.85,-21.13 -121.82,-31.03 -152.36,-35.66 -26.45,-4.04 -57.32,-8.8 -84.29,-13 -26.79,-4.14 -53.5,-5.79 -80.13,-5.79 m 419.3,32.26 c -94.6,499.32 -219.95,984.86 -251.62,1533.08 31.28,13.21 93.37,52.71 135.87,52.71 3.48,0 6.83,-0.27 10.02,-0.83 23.5,-4.2 19.83,-31.15 29.15,-68.12 10.94,-43.13 33.35,-81.57 51.89,-132.9 29.49,-81.6 35.78,-186.27 51.9,-288.57 15.85,-100.73 11.31,-214.34 35.68,-301.52 21.65,-77.74 -9.1,-137.94 -16.24,-223.74 -9.32,-112.42 28.75,-229.64 68.05,-311.24 17.02,-35.26 42.25,-68.15 62.28,-104.85 -57.03,-53.4 -116.16,-104.86 -176.98,-154.02 m -3360.97,61.08 c 35.86,51.75 74.48,145.95 158.88,149.13 -43.99,-58.67 -105.06,-100.26 -158.88,-149.13 m 308.01,90.78 c 20.63,17.25 27.62,48.06 58.37,55.11 5.54,-28.51 -41.05,-49.35 -58.37,-55.11 m 558.16,278.18 c -60.85,0 -122.12,1.22 -182.06,3.9 10.48,18.73 15.54,42.85 25.93,61.62 46.27,2.79 103.51,4.07 162.28,4.07 62.52,0 126.78,-1.45 181.39,-4.07 6.96,-14.69 1.57,-41.7 3.25,-61.62 -61.77,-2.52 -126.04,-3.91 -190.79,-3.9 m 665.86,17.4 c -88.14,0.01 -180.55,6.8 -254.57,9.21 66.93,26.67 151.64,35.64 239.01,35.64 80.94,0 164.17,-7.7 237.61,-16.18 -56.8,-22.41 -137.46,-28.67 -222.05,-28.67 m -1318.62,1.81 c -56.96,0 -113.66,2.26 -168.02,7.4 76.39,25.71 199.29,46.24 313.41,46.24 73.91,0 144.16,-8.62 195.64,-30.02 -102.7,-13.85 -222.47,-23.62 -341.03,-23.62 m -331.3,1148.89 c -99.99,0 -206.48,40.41 -267.91,84.08 47.7,-25.46 119.89,-26.42 193.03,-26.42 2.97,0 5.94,0 8.91,0 2.92,0.01 5.82,0.01 8.73,0.01 72.26,0 143.62,-0.92 191.34,-25.46 -39.37,-22.86 -85.98,-32.21 -134.1,-32.21 m 2894.22,1.08 c -75.72,0 -151.32,4.89 -221.44,14.88 -3.61,154.11 -5.51,340.24 -6.46,489.59 -68.21,-118.76 -68.82,-305.11 -81.05,-479.84 -5.45,-2.32 -12,-3.4 -18.58,-3.4 -12.08,0 -24.28,3.63 -30.1,9.9 17.96,271.91 31.2,558.25 129.73,761.89 16,-9.93 12.57,-39.3 32.4,-45.37 58.56,34.4 35.22,150.7 71.34,207.5 -48.07,-35.16 -66.01,-100.42 -90.77,-158.85 -16.31,90.55 26.91,196.83 9.71,282.09 -0.04,0 -0.09,0 -0.13,0 -23.73,0 -15.12,-32.35 -38.76,-32.47 -53.71,108.43 -126.36,197.91 -184.83,301.55 65.05,-84.24 162.47,-145.64 194.54,-252.87 0.95,-0.11 1.83,-0.17 2.66,-0.17 4.8,0 7.82,1.79 10.84,3.57 3.02,1.78 6.04,3.57 10.84,3.57 1.44,0 3.04,-0.16 4.84,-0.53 89.33,-78.66 199.88,-231.01 320.99,-282.05 14.14,-5.97 30.96,-10.87 46.61,-10.87 16.42,0 31.55,5.39 40.94,20.58 8,47.03 -24.77,72.23 -55.15,90.77 -204.74,125.35 -427.72,371.23 -570.63,564.2 -50.74,68.51 -205.54,144.97 -110.21,252.87 293.19,-185.56 568.46,-389.07 865.69,-570.64 56,-102.57 144.59,-212.62 132.92,-379.31 -1.02,-13.96 -8.04,-39.24 -13,-51.9 -51.47,-131.51 -67.44,-294.87 -16.18,-440.97 14.13,-40.28 25.41,-60.82 16.18,-90.77 -15.73,-51.32 -73.64,-90.21 -38.87,-145.88 -110.4,-37.49 -262.53,-57.07 -414.07,-57.07 m -112.24,381.79 c -8.95,0 -20.4,-4.93 -34.61,-16.7 -0.58,-32.57 -40.73,-113.52 9.04,-113.52 0.22,0 0.45,0 0.68,0 50.81,0.8 70.72,130.22 24.89,130.22 m 48.26,380.56 c -58.27,0 -87.1,-88.84 -56.91,-137.9 66.47,0.19 98.41,82.92 71.28,136.17 -4.97,1.18 -9.76,1.73 -14.37,1.73 m 734.3,-704.24 c -39.29,0 -77.68,5.17 -97.4,18.39 16.85,33.28 48.18,46.68 81.84,46.68 43.5,0 90.89,-22.38 115.94,-53.18 -23.61,-7.06 -62.41,-11.89 -100.38,-11.89 m -1631.09,42.21 c -39.17,0 -75.82,9.05 -103.63,31.3 77.55,62.6 255.69,5.06 337.17,61.61 -40.02,-45.06 -143.45,-92.92 -233.54,-92.91 m -2030.71,23.29 c -36.77,0.01 -72.39,5.95 -79.87,30.69 11.21,1.49 22.67,2.2 34.14,2.2 45.62,0 91.33,-11.13 121.49,-28.1 -17.21,-1.11 -46.84,-4.79 -75.76,-4.79 m 3509.28,37.19 c -16.61,14.75 -19.71,42.95 -25.93,68.08 2.71,2.9 7.8,3.39 13.37,3.39 1.47,0 2.98,-0.03 4.48,-0.06 1.53,-0.04 3.06,-0.07 4.56,-0.07 0.09,0 0.18,0 0.27,0 7.58,-17.54 22.08,-56.65 3.25,-71.34 m 25.94,22.72 c -16.13,39.19 -1.95,90.86 42.1,90.86 1.08,0 2.18,-0.03 3.3,-0.09 20.05,-32.65 -19.47,-73.52 -45.4,-90.77 m -1455.16,43.99 c -25.23,0 -49.08,2.97 -65.47,11.13 17.21,12.29 55.19,20.73 90.84,20.73 30.04,0 58.43,-6 71.3,-20.73 -24.07,-5.44 -61.69,-11.13 -96.67,-11.13 m -1623.09,218.56 c -12.53,0 -7.47,17.6 -18.11,19.5 -13.43,-11.32 -31.9,-15.85 -52.09,-15.85 -44.44,0 -97.22,21.96 -122.98,41.82 43.96,115.62 172.65,104.41 301.55,132.91 97.94,21.68 226.06,46.76 347.95,46.76 15.99,0 31.9,-0.43 47.59,-1.36 14.01,-11.19 18.42,-44.45 12.96,-64.9 -202.41,-9.38 -396.36,-27.25 -538.2,-97.23 10.19,-5.93 24.76,-7.47 40.89,-7.47 8.79,0 18.05,0.46 27.3,0.92 9.26,0.46 18.51,0.92 27.3,0.92 16,0 30.49,-1.52 40.68,-7.34 -23.45,-30.59 -82.46,-25.63 -113.49,-48.61 -0.47,-0.05 -0.92,-0.07 -1.35,-0.07 m 876.75,16.49 c -37.08,0 -72.75,4.01 -103.73,15.98 -26.54,10.24 -48.68,39.2 -81.05,55.14 -53.74,26.46 -120.87,46.04 -94.04,126.45 0.67,8.39 8.05,10.06 17.11,10.06 2.99,0 6.16,-0.18 9.32,-0.36 3.17,-0.18 6.34,-0.36 9.33,-0.36 2.26,0 4.41,0.1 6.39,0.38 91.41,-79 213.62,-139.81 376.03,-139.81 7.5,0 15.11,0.13 22.78,0.39 -0.18,-20.38 -3.13,-37.98 -6.5,-55.14 -48.54,-4.81 -103.48,-12.73 -155.64,-12.73 m 15.35,158.07 c -123.19,0 -252.8,48.86 -242.31,152.96 0.1,3.16 3.99,2.51 6.5,3.24 -0.58,2.76 1.29,3.07 3.25,3.26 0.71,0 1.42,0 2.13,0 154.87,0 266.92,-42.9 373.97,-90.81 4.42,-7.6 6.07,-34.82 0,-42.14 -38.95,-17.51 -90.64,-26.52 -143.54,-26.51 m 2481.2,370.2 c 7.94,155.61 -17.33,307.04 -9.72,460.37 5.1,5.15 15.05,7.33 25.6,7.33 14.69,0 30.54,-4.23 36.01,-10.54 -17.1,-152.57 -4.5,-334.87 -51.89,-457.16 m -499.27,236.66 c -43.38,17.17 -71.04,50.12 -103.8,77.83 6.05,11.52 20.35,17.69 33.99,17.69 16.17,0 31.4,-8.67 30.88,-27.41 9.71,0 19.43,0 29.17,0 3.77,-22.16 9.33,-42.52 9.76,-68.11 m -10.29,141.39 c -13.81,0 -27.79,8.13 -48.11,14.27 -7.72,2.33 -16.42,3.24 -25.71,3.24 -16.97,0 -35.91,-3.05 -54.46,-6.1 -18.55,-3.06 -36.69,-6.11 -52.09,-6.11 -33.9,0 -54.42,14.81 -36.34,77.02 40.4,9.38 38.5,57.54 55.11,94.05 43.23,94.76 135.93,167.62 184.82,252.9 19.4,-101.65 3.31,-245.54 90.77,-285.33 -43.99,-25.14 -85.68,-52.63 -81.05,-126.45 -12.57,-13.03 -22.71,-17.49 -32.94,-17.49 m -784.09,14.27 c -37.68,25.11 -83.6,58.92 -81.06,113.45 45.5,-19.31 71.58,-58.06 81.06,-113.45 m 1186.89,48.5 c -1.12,0 -2.28,0.04 -3.48,0.12 -18.73,19.44 0.41,48.64 18.48,48.64 6.47,0 12.8,-3.73 17.21,-12.99 -3.46,-19.22 -9.57,-35.77 -32.21,-35.77 m -1432.43,200.53 c -41.01,0 -92.94,46.42 -85.17,75.2 1.56,5.76 5.19,8.2 10.28,8.2 25.61,0 87.78,-62.01 103.21,-73.06 -7.91,-7.26 -17.75,-10.34 -28.32,-10.34 m 47.78,104.36 c -36.57,26.15 -75.38,50.03 -110.29,77.8 5.42,18.15 8.86,37.52 3.28,58.4 13.15,7.68 30.2,11.13 48.35,11.13 54.86,0 119.72,-31.53 117,-72.78 -2.22,-33.23 -54.27,-35.32 -58.34,-74.55 m 424.72,269.11 c -45.09,3.59 -56.22,41.08 -87.55,58.34 0.96,0.13 2,0.19 3.12,0.19 20.24,0 64.61,-20.25 90.89,-29.34 1.69,-13.55 -1.77,-21.98 -6.46,-29.19 m 813.82,45.4 c -12.05,0.93 -22.29,3.65 -25.97,12.94 0.38,8.92 5.32,12.19 11.29,12.19 8.14,0 18.19,-6.08 21.14,-12.19 2.36,-8.82 -6.43,-6.5 -6.46,-12.94"
         id="path32" /></clipPath><radialGradient
       fx="0"
       fy="0"
       cx="0"
       cy="0"
       r="1"
       gradientUnits="userSpaceOnUse"
       gradientTransform="matrix(3205.99,0,0,-3205.99,4091.71,3995.6)"
       spreadMethod="pad"
       id="radialGradient42"><stop
         style="stop-opacity:1;stop-color:#ffffff"
         offset="0"
         id="stop36" /><stop
         style="stop-opacity:1;stop-color:#ffffff"
         offset="0.248485"
         id="stop38" /><stop
         style="stop-opacity:1;stop-color:#ffffff"
         offset="1"
         id="stop40" /></radialGradient><clipPath
       clipPathUnits="userSpaceOnUse"
       id="clipPath52"><path
         d="m 6538.2,5169.36 c -18.99,0 -39.25,7.59 -48.82,20.66 -40.26,55.04 -28.94,181.97 -117.89,181.97 -2.76,0 -5.6,-0.12 -8.56,-0.37 -25.85,-2.21 -32.62,-23.39 -48.65,-29.18 4.9,53.01 48.86,75.15 100.09,75.15 26.69,0 55.34,-6 81.47,-16.78 54.44,-22.45 160.51,-163.27 71.34,-223.69 -7.78,-5.3 -18.17,-7.76 -28.98,-7.76"
         id="path50" /></clipPath><radialGradient
       fx="0"
       fy="0"
       cx="0"
       cy="0"
       r="1"
       gradientUnits="userSpaceOnUse"
       gradientTransform="matrix(3205.99,0,0,-3205.99,4091.71,3995.6)"
       spreadMethod="pad"
       id="radialGradient60"><stop
         style="stop-opacity:1;stop-color:#fbcc2a"
         offset="0"
         id="stop54" /><stop
         style="stop-opacity:1;stop-color:#f1483c"
         offset="0.248485"
         id="stop56" /><stop
         style="stop-opacity:1;stop-color:#3b3a3d"
         offset="1"
         id="stop58" /></radialGradient><clipPath
       clipPathUnits="userSpaceOnUse"
       id="clipPath70"><path
         d="m 6455.52,4946.73 c -73.83,0 -132.57,73.35 -102.31,152.53 1.5,-89.55 134.87,-63.55 129.7,-149.17 -9.26,-2.28 -18.44,-3.36 -27.39,-3.36"
         id="path68" /></clipPath><radialGradient
       fx="0"
       fy="0"
       cx="0"
       cy="0"
       r="1"
       gradientUnits="userSpaceOnUse"
       gradientTransform="matrix(3205.99,0,0,-3205.99,4091.71,3995.6)"
       spreadMethod="pad"
       id="radialGradient78"><stop
         style="stop-opacity:1;stop-color:#fbcc2a"
         offset="0"
         id="stop72" /><stop
         style="stop-opacity:1;stop-color:#f1483c"
         offset="0.248485"
         id="stop74" /><stop
         style="stop-opacity:1;stop-color:#3b3a3d"
         offset="1"
         id="stop76" /></radialGradient><clipPath
       clipPathUnits="userSpaceOnUse"
       id="clipPath88"><path
         d="m 5400,3724.55 c -30.19,49.06 -1.36,137.9 56.91,137.9 4.61,0 9.4,-0.55 14.37,-1.73 27.13,-53.25 -4.81,-135.98 -71.28,-136.17"
         id="path86" /></clipPath><radialGradient
       fx="0"
       fy="0"
       cx="0"
       cy="0"
       r="1"
       gradientUnits="userSpaceOnUse"
       gradientTransform="matrix(3205.99,0,0,-3205.99,4091.71,3995.6)"
       spreadMethod="pad"
       id="radialGradient96"><stop
         style="stop-opacity:1;stop-color:#fbcc2a"
         offset="0"
         id="stop90" /><stop
         style="stop-opacity:1;stop-color:#f1483c"
         offset="0.248485"
         id="stop92" /><stop
         style="stop-opacity:1;stop-color:#3b3a3d"
         offset="1"
         id="stop94" /></radialGradient><clipPath
       clipPathUnits="userSpaceOnUse"
       id="clipPath106"><path
         d="m 5383.08,3351.67 c -49.77,0 -9.62,80.95 -9.04,113.52 14.21,11.77 25.66,16.7 34.61,16.7 45.83,0 25.92,-129.42 -24.89,-130.22 -0.23,0 -0.46,0 -0.68,0"
         id="path104" /></clipPath><radialGradient
       fx="0"
       fy="0"
       cx="0"
       cy="0"
       r="1"
       gradientUnits="userSpaceOnUse"
       gradientTransform="matrix(3205.99,0,0,-3205.99,4091.71,3995.6)"
       spreadMethod="pad"
       id="radialGradient114"><stop
         style="stop-opacity:1;stop-color:#fbcc2a"
         offset="0"
         id="stop108" /><stop
         style="stop-opacity:1;stop-color:#f1483c"
         offset="0.248485"
         id="stop110" /><stop
         style="stop-opacity:1;stop-color:#3b3a3d"
         offset="1"
         id="stop112" /></radialGradient><clipPath
       clipPathUnits="userSpaceOnUse"
       id="clipPath124"><path
         d="m 3623.56,2156.69 c -24.28,0 -48.4,8.03 -71.66,27.77 -39.6,33.67 -47.82,90.75 -48.65,168.64 -58.14,-31.75 -139.2,-102.68 -219.91,-102.68 -29.81,0 -59.56,9.67 -88.11,34.56 -35.74,34.88 -56.86,108.92 -35.65,184.81 65.3,233.47 275.59,442.26 453.91,551.18 0.8,3.55 6.44,2.2 6.47,6.47 1.1,0 2.2,0 3.28,0 2.14,0 4.32,0 6.46,0 -110.63,-161.25 -300.5,-327.03 -385.81,-557.65 -21.03,-56.85 -20.76,-153.26 50.07,-153.27 8.26,0 17.47,1.31 27.73,4.14 74.64,20.6 201.73,120.6 243.15,184.79 55.85,86.48 96.1,167.93 171.85,256.15 46.85,54.54 154.96,191.54 228.12,191.54 1.8,0 3.58,-0.08 5.34,-0.25 84.21,-8.1 -42.82,-133.36 -71.33,-165.33 -105.82,-118.75 -227.52,-254.04 -278.86,-421.53 -9.29,-30.38 -22.35,-87.21 9.74,-116.73 248.43,71.31 330.18,373.98 502.56,518.81 15.14,12.7 32.13,20.58 48.79,20.58 12.32,0 24.44,-4.3 35.5,-14.16 0.98,-88.77 -71.15,-138.65 -110.26,-200.97 -40.31,-64.34 -82.28,-127.64 -103.7,-210.75 54.17,7.18 89.5,65.5 142.49,65.5 10.13,0 20.9,-2.13 32.58,-7.16 -6.1,-88.36 -115.31,-184.21 -209.36,-184.23 -41.33,0 -79.71,18.5 -105.16,64.28 -56.18,-32.33 -148.88,-144.51 -239.58,-144.51"
         id="path122" /></clipPath><radialGradient
       fx="0"
       fy="0"
       cx="0"
       cy="0"
       r="1"
       gradientUnits="userSpaceOnUse"
       gradientTransform="matrix(3205.99,0,0,-3205.99,4091.71,3995.6)"
       spreadMethod="pad"
       id="radialGradient132"><stop
         style="stop-opacity:1;stop-color:#fbcc2a"
         offset="0"
         id="stop126" /><stop
         style="stop-opacity:1;stop-color:#f1483c"
         offset="0.248485"
         id="stop128" /><stop
         style="stop-opacity:1;stop-color:#3b3a3d"
         offset="1"
         id="stop130" /></radialGradient><clipPath
       clipPathUnits="userSpaceOnUse"
       id="clipPath142"><path
         d="m 2961.44,2498.61 c -21.6,0 -33.18,41.59 -32.07,68.46 6.22,147.23 122.92,261.2 194.53,356.63 -25.84,-91.72 -102.38,-219.31 -129.67,-350.14 -3.15,-15.07 -10.45,-70.69 -29.18,-74.57 -1.23,-0.26 -2.43,-0.38 -3.61,-0.38"
         id="path140" /></clipPath><radialGradient
       fx="0"
       fy="0"
       cx="0"
       cy="0"
       r="1"
       gradientUnits="userSpaceOnUse"
       gradientTransform="matrix(3205.99,0,0,-3205.99,4091.71,3995.6)"
       spreadMethod="pad"
       id="radialGradient150"><stop
         style="stop-opacity:1;stop-color:#fbcc2a"
         offset="0"
         id="stop144" /><stop
         style="stop-opacity:1;stop-color:#f1483c"
         offset="0.248485"
         id="stop146" /><stop
         style="stop-opacity:1;stop-color:#3b3a3d"
         offset="1"
         id="stop148" /></radialGradient><clipPath
       clipPathUnits="userSpaceOnUse"
       id="clipPath160"><path
         d="m 4091.73,789.602 c -577.75,0 -1119.77,152.796 -1587.91,420.218 -0.67,25.43 -1.46,50.99 -2.42,76.53 -6.28,166.97 21.37,344.1 -3.25,466.9 -6.25,31.26 -23.17,101.15 0,129.73 9.23,11.38 28.92,14.05 51.27,14.05 9.82,0 20.15,-0.52 30.33,-1.03 10.19,-0.51 20.24,-1.03 29.48,-1.03 12.58,0 23.66,0.96 31.59,4.16 -84.36,92.93 12.25,182.68 124.39,182.68 7.13,0 14.31,-0.36 21.52,-1.11 v 0 0 c -44.87,64.98 -96.37,139.63 -103.79,249.68 -3.74,56.13 -7.14,139.67 16.21,184.82 74.86,-84.92 62.45,-233.16 126.45,-324.23 29.31,-41.66 88.2,-39.09 87.55,-100.52 82.97,-24.32 181.89,-32.83 283.63,-32.83 84.34,0 170.6,5.85 251.36,13.37 77.18,7.19 158.74,8.88 240.81,8.88 36.28,0 72.65,-0.33 108.81,-0.66 36.14,-0.33 72.06,-0.66 107.41,-0.66 160.07,0 308.68,6.75 415.15,50.84 45.12,18.69 106.58,59.21 126.42,106.98 48.52,116.85 23.24,323.09 9.75,483.08 -12.69,150.02 -8.74,291.56 -9.75,424.72 -34.48,27.19 -99.57,55.05 -68.08,119.98 12.14,24.95 53.55,26.64 64.86,48.65 30.32,59.1 -26.73,159.74 -16.22,230.18 -27.89,-4.56 -45.58,-19.24 -61.61,-35.65 -202.38,-79.95 -504.3,-123.02 -805.14,-123.02 -321.8,-0.01 -642.36,49.27 -838.65,155.43 -41.35,-79.46 -9.47,-224.36 -9.75,-324.24 40.04,-44.54 105.52,-26.12 129.67,-71.33 50.8,-94.91 -88.74,-84.33 -110.2,-129.67 -20.36,-42.92 11.92,-148.05 3.21,-217.21 -5.26,-42.06 -20.65,-101.17 -25.93,-152.43 -9.39,-4.25 -20.55,-6.73 -34.18,-6.73 -2.56,0 -5.2,0.09 -7.94,0.27 -14.22,123.05 -9.47,265.04 -45.43,366.39 -161.27,16.64 -481.61,128.9 -330.7,317.73 44.27,55.41 126.41,78.2 225.67,78.2 23.34,0 47.63,-1.26 72.6,-3.65 0.46,396.91 381.89,432.1 771.7,450.68 5.63,0.27 12.26,0.36 19.56,0.36 6.63,0 13.81,-0.07 21.32,-0.14 7.49,-0.07 15.3,-0.14 23.2,-0.14 38.2,0 78.53,1.64 94.74,12.89 30.87,21.43 29.12,70.78 77.86,87.52 26.47,9.12 57.62,12.84 90.68,12.84 89.47,0 193.02,-27.25 256.21,-48.49 37.46,-12.57 97.97,-31.18 123.23,-51.87 11.53,-9.48 25.6,-58.77 45.37,-61.62 0.78,-0.11 1.56,-0.16 2.34,-0.16 32.35,0 61.83,93.44 72.24,113.65 110.14,214.27 204.53,420.64 308.02,629 56.98,114.77 122.92,214.27 168.59,333.95 15.71,106.58 20.91,217.46 132.92,243.18 56.41,38.91 72.93,234.41 155.64,246.41 1.05,0.15 2.4,0.22 4,0.22 17.36,0 64.79,-8.42 90.02,-13.2 66.03,-12.41 217.03,-104.34 246.43,-149.16 21.28,-32.4 48.19,-104.75 19.43,-132.92 -9.45,-1.02 -18.55,-1.5 -27.35,-1.5 -136.66,-0.01 -198.98,117.03 -316.31,150.64 -24.78,-39.58 -82.13,-96.6 -77.83,-145.89 4.69,-53.59 135.73,-96.23 129.72,-184.78 210.14,-74.13 316.88,-251.59 518.74,-333.95 32.01,127.76 83.26,243.95 175.07,314.48 49.6,38.07 118.26,50.49 171.88,94.05 23.63,19.19 26.55,58.77 55.09,84.27 24.86,22.22 69.3,28.84 81.08,58.36 11.28,28.46 -7.45,64.26 22.68,81.09 -45.71,75.34 -1.99,179.05 48.62,217.18 7.72,20.96 79.59,41.78 139.28,41.78 46.75,0 86.03,-12.77 81.19,-48.25 -5.25,-38.43 -76.58,-20.9 -126.45,-42.14 -26.74,-11.41 -182.49,-127.01 -84.28,-165.39 47.95,-18.7 245.83,-16.49 226.98,-90.76 -3.82,-14.96 -15.38,-20.05 -29.9,-20.05 -30.81,-0.01 -74.96,22.94 -86.84,23.29 -0.2,0.01 -0.4,0.01 -0.6,0.01 -12.99,0 -24.48,-12.79 -41.55,-12.97 -0.15,0 -0.29,0 -0.44,0 -10.24,0 -18.99,3.54 -27.36,7.08 -8.37,3.54 -16.38,7.09 -25.14,7.09 -2.8,0 -5.68,-0.37 -8.67,-1.21 -45.74,-12.84 -116.46,-125.13 -119.95,-175.06 -2.77,-39.39 43.07,-107.67 58.33,-132.95 36.38,-60.11 92.17,-103.55 158.89,-132.95 77.8,36.84 140.05,106.49 230.21,152.42 46.59,23.72 82.43,74.7 126.44,94.04 32.69,14.32 160.67,1.81 152.4,58.31 -2.89,19.55 -32.32,19.49 -45.4,32.46 -48.44,47.97 1.22,140.31 -38.91,204.22 49.94,-61.37 77.56,-145.03 142.64,-191.29 3.92,-21.14 -23.61,-10.97 -22.72,-29.18 52.33,-126.62 -52.93,-202.36 -171.51,-202.36 -32.5,0 -66,5.69 -97.54,17.58 -41.48,-75.32 -194.96,-113.98 -145.95,-226.97 27.59,16.67 51.85,24.24 72.97,24.24 46.09,0 77.27,-36.05 95.67,-92.32 77.46,-236.99 -89.86,-573.06 0,-787.86 -4.79,-14.68 -27.96,-11 -38.94,-19.46 41.57,-101.1 182.33,-102.97 285.3,-142.67 -5.39,-49.36 -59.64,-64.71 -117.72,-64.71 -45.61,0 -93.59,9.46 -122.15,19.34 -299.55,103.58 -321.96,623.12 -188.07,936.99 -16.94,-11.33 -42.24,-20.98 -66.76,-20.98 -21.44,0 -42.3,7.37 -56.47,27.45 -45.33,-41.23 -95.3,-109.1 -162.1,-126.45 -5.61,-1.45 -11.62,-1.68 -17.65,-1.68 -1.45,0 -2.91,0.01 -4.36,0.03 -1.46,0.01 -2.91,0.02 -4.36,0.02 -15.19,0 -29.16,-1.55 -35.21,-21.03 37.09,-31.72 30.01,-80.77 48.61,-139.44 16.16,-50.86 65.67,-135.52 48.65,-230.16 -5.27,-29.33 -26.88,-48.86 -42.14,-77.86 35.44,-135.49 -17.33,-310.16 9.71,-457.15 22.31,29.34 49.13,41.51 74.71,41.51 70.05,0 130.87,-91.27 64.71,-171.21 90.67,-28.26 241.19,-11.19 269.12,-93.99 33.75,-100.08 -102.7,-109.25 -197.79,-110.25 81.79,-118.19 300.47,-162 298.27,-353.42 -59.65,6.31 -84.73,62.07 -119.95,97.26 -80.5,80.47 -186.57,128.07 -275.62,201.04 9.33,-76.1 36.97,-133.81 51.91,-204.26 1.45,-0.31 2.75,-0.46 3.9,-0.46 7.29,0 8.79,5.81 10.28,11.61 1.49,5.81 2.98,11.61 10.26,11.61 0.47,0 0.96,-0.02 1.48,-0.07 14.6,-185.93 42.4,-408.72 -12.99,-573.89 14.01,-123.78 36.61,-211.09 55.18,-337.17 8.87,-60.33 45.86,-131.98 75.49,-194.53 -22.46,-22.3 -45.28,-44.31 -68.39,-65.95 -20.03,36.7 -45.26,69.59 -62.28,104.85 -39.3,81.6 -77.37,198.82 -68.05,311.24 7.14,85.8 37.89,146 16.24,223.74 -24.37,87.18 -19.83,200.79 -35.68,301.52 -16.12,102.3 -22.41,206.97 -51.9,288.57 -18.54,51.33 -40.95,89.77 -51.89,132.9 -9.32,36.97 -5.65,63.92 -29.15,68.12 -3.19,0.56 -6.54,0.83 -10.02,0.83 -42.5,0 -104.59,-39.5 -135.87,-52.71 31.67,-548.22 157.02,-1033.76 251.62,-1533.08 -42.26,-34.16 -85.37,-67.24 -129.36,-99.25 -2.83,5.98 -5.75,11.89 -8.78,17.67 -59.9,-0.62 -113.64,-7.43 -158.88,-22.69 2.25,-50.6 -12.35,-90.75 -30,-127.91 -123.81,-76.75 -253.22,-145.29 -387.49,-204.89 5.31,12.72 8.65,24.63 8.98,34.5 1.5,45.83 -38.5,85.44 -42.18,129.71 -6.09,73.07 21.1,146.19 -32.43,191.28 -22.02,-7.98 -59.62,-23.13 -88.68,-23.13 -22.96,-0.01 -40.59,9.45 -41.02,39.35 -0.27,20.59 30.04,31.33 32.43,51.89 2.43,20.27 -25.75,56.44 -32.43,74.55 -51,139.17 -81.02,348.36 -106.98,538.23 -25.08,183.2 -64.96,424.55 -35.65,609.52 17.38,109.76 2.51,271.46 9.71,405.27 6.08,112.85 16.53,235.19 45.4,333.98 10.12,34.65 37.12,75.91 38.94,119.96 5.52,138.22 6.58,291.65 45.36,395.56 17.27,46.26 73.2,108.4 71.34,139.42 -1.81,29.62 -69.41,85.01 -97.27,113.45 -142.91,145.98 -230.25,346.92 -350.16,492.87 -5.79,-0.3 -11.43,-0.44 -16.92,-0.44 -27.99,0 -52.48,3.55 -77.14,6.9 -9.58,6.6 -7.35,25.02 -16.18,32.41 -37.27,-16.22 -59.66,-99.57 -84.3,-145.92 -177.03,-332.69 -347.81,-717.13 -509.05,-1031 -14.29,-11.68 -35.47,-16.4 -38.9,-38.93 64.34,6.71 137.76,20.17 194.53,45.4 22.14,9.84 80.65,38.99 81.05,64.86 0.92,61.86 -112.99,48.56 -119.95,94.02 -4.54,29.54 22.59,38.7 56.12,38.7 38.65,0 85.79,-12.16 102.73,-19.27 23.15,-9.68 83.45,-39.23 94.02,-51.9 52.97,-62.96 19.19,-140.18 55.15,-213.93 155.05,-2.3 316.17,-24.86 298.3,-210.75 -41.6,-97.85 -132.98,-145.89 -272.36,-145.92 -49.49,-65.04 -31,-291.77 -19.48,-434.47 23.52,-290.29 51.66,-534.79 -116.7,-638.75 88.72,-24.42 245.77,4.79 226.97,-116.7 40.47,-1.65 69.93,-14.34 93.99,-32.4 44.3,-64.13 41.29,-168.63 51.9,-269.11 26.19,-247.85 -6.65,-529.83 1.1,-774.629 -228.22,-51.559 -465.73,-78.789 -709.53,-78.789 m 1519.83,640.318 c -78.39,0 -158.17,-21.6 -205.12,-56.02 24.65,-35.9 72.51,-48.53 71.33,-110.21 41.15,-6.43 59.32,-35.83 81.06,-61.61 22.34,0.37 43.89,1.5 58.4,9.72 -15.64,90.91 58.02,132.92 51.83,214 -18.73,2.79 -38.08,4.12 -57.5,4.12 m -230.53,63.67 c 49.7,0 100.1,-6.24 151.03,-12.49 50.92,-6.24 102.38,-12.48 154.17,-12.48 26.63,0 53.34,1.65 80.13,5.79 26.97,4.2 57.84,8.96 84.29,13 30.54,4.63 136.51,14.53 152.36,35.66 31.24,41.56 -5.77,131.23 -12.93,158.84 -109.53,420.74 -132,937.82 -249.69,1342.31 -57.97,-8.21 -122.87,-12.48 -189.07,-12.48 -144.45,0 -295.22,20.32 -394.49,64.37 -41.58,-548.84 10.47,-1154.08 145.87,-1588.7 25.9,4.43 52.02,6.18 78.33,6.18 m -2477.59,217.5 c -84.4,-3.18 -123.02,-97.38 -158.88,-149.13 53.82,48.87 114.89,90.46 158.88,149.13 m 207.5,-3.24 c -30.75,-7.05 -37.74,-37.86 -58.37,-55.11 17.32,5.76 63.91,26.6 58.37,55.11 m 505.94,292.66 c -58.77,0 -116.01,-1.28 -162.28,-4.07 -10.39,-18.77 -15.45,-42.89 -25.93,-61.62 59.94,-2.68 121.21,-3.9 182.06,-3.9 64.75,-0.01 129.02,1.38 190.79,3.9 -1.68,19.92 3.71,46.93 -3.25,61.62 -54.61,2.62 -118.87,4.07 -181.39,4.07 m 644.15,-7.34 c -87.37,0 -172.08,-8.97 -239.01,-35.64 74.02,-2.41 166.43,-9.2 254.57,-9.21 84.59,0 165.25,6.26 222.05,28.67 -73.44,8.48 -156.67,16.18 -237.61,16.18 m -1157.67,10.6 c -114.12,0 -237.02,-20.53 -313.41,-46.24 54.36,-5.14 111.06,-7.4 168.02,-7.4 118.56,0 238.33,9.77 341.03,23.62 -51.48,21.4 -121.73,30.02 -195.64,30.02 m -744.6,1179.33 c 61.43,-43.67 167.92,-84.08 267.91,-84.08 48.12,0 94.73,9.35 134.1,32.21 -47.72,24.54 -119.08,25.46 -191.34,25.46 -2.91,0 -5.81,0 -8.73,-0.01 -2.97,0 -5.94,0 -8.91,0 -73.14,0 -145.33,0.96 -193.03,26.42 m 2934.23,421.47 c 0.95,-149.35 2.85,-335.48 6.46,-489.59 70.12,-9.99 145.72,-14.88 221.44,-14.88 151.54,0 303.67,19.58 414.07,57.07 -34.77,55.67 23.14,94.56 38.87,145.88 9.23,29.95 -2.05,50.49 -16.18,90.77 -51.26,146.1 -35.29,309.46 16.18,440.97 4.96,12.66 11.98,37.94 13,51.9 11.67,166.69 -76.92,276.74 -132.92,379.31 -297.23,181.57 -572.5,385.08 -865.69,570.64 -95.33,-107.9 59.47,-184.36 110.21,-252.87 142.91,-192.97 365.89,-438.85 570.63,-564.2 30.38,-18.54 63.15,-43.74 55.15,-90.77 -9.39,-15.19 -24.52,-20.58 -40.94,-20.58 -15.65,0 -32.47,4.9 -46.61,10.87 -121.11,51.04 -231.66,203.39 -320.99,282.05 -1.8,0.37 -3.4,0.53 -4.84,0.53 -4.8,0 -7.82,-1.79 -10.84,-3.57 -3.02,-1.78 -6.04,-3.57 -10.84,-3.57 -0.83,0 -1.71,0.06 -2.66,0.17 -32.07,107.23 -129.49,168.63 -194.54,252.87 58.47,-103.64 131.12,-193.12 184.83,-301.55 23.64,0.12 15.03,32.47 38.76,32.47 0.04,0 0.09,0 0.13,0 17.2,-85.26 -26.02,-191.54 -9.71,-282.09 24.76,58.43 42.7,123.69 90.77,158.85 -36.12,-56.8 -12.78,-173.1 -71.34,-207.5 -19.83,6.07 -16.4,35.44 -32.4,45.37 -98.53,-203.64 -111.77,-489.98 -129.73,-761.89 5.82,-6.27 18.02,-9.9 30.1,-9.9 6.58,0 13.13,1.08 18.58,3.4 12.23,174.73 12.84,361.08 81.05,479.84 m 882.66,-381.29 c -33.66,0 -64.99,-13.4 -81.84,-46.68 19.72,-13.22 58.11,-18.39 97.4,-18.39 37.97,0 76.77,4.83 100.38,11.89 -25.05,30.8 -72.44,53.18 -115.94,53.18 m -1381.99,70.05 c -81.48,-56.55 -259.62,0.99 -337.17,-61.61 27.81,-22.25 64.46,-31.3 103.63,-31.3 90.09,-0.01 193.52,47.85 233.54,92.91 M 2483.68,3256.6 c -11.47,0 -22.93,-0.71 -34.14,-2.2 7.48,-24.74 43.1,-30.68 79.87,-30.69 28.92,0 58.55,3.68 75.76,4.79 -30.16,16.97 -75.87,28.1 -121.49,28.1 m 3542.45,75.77 c -5.57,0 -10.66,-0.49 -13.37,-3.39 6.22,-25.13 9.32,-53.33 25.93,-68.08 18.83,14.69 4.33,53.8 -3.25,71.34 -0.09,0 -0.18,0 -0.27,0 -1.5,0 -3.03,0.03 -4.56,0.07 -1.5,0.03 -3.01,0.06 -4.48,0.06 m 80.6,42.11 c -44.05,0 -58.23,-51.67 -42.1,-90.86 25.93,17.25 65.45,58.12 45.4,90.77 -1.12,0.06 -2.22,0.09 -3.3,0.09 m -1471.89,-15.01 c -35.65,0 -73.63,-8.44 -90.84,-20.73 16.39,-8.16 40.24,-11.13 65.47,-11.13 34.98,0 72.6,5.69 96.67,11.13 -12.87,14.73 -41.26,20.73 -71.3,20.73 m -1666.57,206.2 c 10.64,-1.9 5.58,-19.5 18.11,-19.5 0.43,0 0.88,0.02 1.35,0.07 31.03,22.98 90.04,18.02 113.49,48.61 -10.19,5.82 -24.68,7.34 -40.68,7.34 -8.79,0 -18.04,-0.46 -27.3,-0.92 -9.25,-0.46 -18.51,-0.92 -27.3,-0.92 -16.13,0 -30.7,1.54 -40.89,7.47 141.84,69.98 335.79,87.85 538.2,97.23 5.46,20.45 1.05,53.71 -12.96,64.9 -15.69,0.93 -31.6,1.36 -47.59,1.36 -121.89,0 -250.01,-25.08 -347.95,-46.76 -128.9,-28.5 -257.59,-17.29 -301.55,-132.91 25.76,-19.86 78.54,-41.82 122.98,-41.82 20.19,0 38.66,4.53 52.09,15.85 m 633.15,204.62 c -9.06,0 -16.44,-1.67 -17.11,-10.06 -26.83,-80.41 40.3,-99.99 94.04,-126.45 32.37,-15.94 54.51,-44.9 81.05,-55.14 30.98,-11.97 66.65,-15.98 103.73,-15.98 52.16,0 107.1,7.92 155.64,12.73 3.37,17.16 6.32,34.76 6.5,55.14 -7.67,-0.26 -15.28,-0.39 -22.78,-0.39 -162.41,0 -284.62,60.81 -376.03,139.81 -1.98,-0.28 -4.13,-0.38 -6.39,-0.38 -2.99,0 -6.16,0.18 -9.33,0.36 -3.16,0.18 -6.33,0.36 -9.32,0.36 m 46.63,109.9 c -0.71,0 -1.42,0 -2.13,0 -1.96,-0.19 -3.83,-0.5 -3.25,-3.26 -2.51,-0.73 -6.4,-0.08 -6.5,-3.24 -10.49,-104.1 119.12,-152.96 242.31,-152.96 52.9,-0.01 104.59,9 143.54,26.51 6.07,7.32 4.42,34.54 0,42.14 -107.05,47.91 -219.1,90.81 -373.97,90.81 m 2727.51,678.44 c -10.55,0 -20.5,-2.18 -25.6,-7.33 -7.61,-153.33 17.66,-304.76 9.72,-460.37 47.39,122.29 34.79,304.59 51.89,457.16 -5.47,6.31 -21.32,10.54 -36.01,10.54 M 5790.6,4423.11 c -13.64,0 -27.94,-6.17 -33.99,-17.69 32.76,-27.71 60.42,-60.66 103.8,-77.83 -0.43,25.59 -5.99,45.95 -9.76,68.11 -9.74,0 -19.46,0 -29.17,0 0.52,18.74 -14.71,27.41 -30.88,27.41 m -14.3,63.38 c 9.29,0 17.99,-0.91 25.71,-3.24 20.32,-6.14 34.3,-14.27 48.11,-14.27 10.23,0 20.37,4.46 32.94,17.49 -4.63,73.82 37.06,101.31 81.05,126.45 -87.46,39.79 -71.37,183.68 -90.77,285.33 -48.89,-85.28 -141.59,-158.14 -184.82,-252.9 -16.61,-36.51 -14.71,-84.67 -55.11,-94.05 -18.08,-62.21 2.44,-77.02 36.34,-77.02 15.4,0 33.54,3.05 52.09,6.11 18.55,3.05 37.49,6.1 54.46,6.1 m -791.33,110.21 c -2.54,-54.53 43.38,-88.34 81.06,-113.45 -9.48,55.39 -35.56,94.14 -81.06,113.45 m 1282.95,-16.19 c -18.07,0 -37.21,-29.2 -18.48,-48.64 1.2,-0.08 2.36,-0.12 3.48,-0.12 22.64,0 28.75,16.55 32.21,35.77 -4.41,9.26 -10.74,12.99 -17.21,12.99 M 4745.6,4815.68 c -5.09,0 -8.72,-2.44 -10.28,-8.2 -7.77,-28.78 44.16,-75.2 85.17,-75.2 10.57,0 20.41,3.08 28.32,10.34 -15.43,11.05 -77.6,73.06 -103.21,73.06 m 64.01,168.29 c -18.15,0 -35.2,-3.45 -48.35,-11.13 5.58,-20.88 2.14,-40.25 -3.28,-58.4 34.91,-27.77 73.72,-51.65 110.29,-77.8 4.07,39.23 56.12,41.32 58.34,74.55 2.72,41.25 -62.14,72.78 -117,72.78 m 398.95,180.31 c -1.12,0 -2.16,-0.06 -3.12,-0.19 31.33,-17.26 42.46,-54.75 87.55,-58.34 4.69,7.21 8.15,15.64 6.46,29.19 -26.28,9.09 -70.65,29.34 -90.89,29.34 m 883.57,12 c -5.97,0 -10.91,-3.27 -11.29,-12.19 3.68,-9.29 13.92,-12.01 25.97,-12.94 0.03,6.44 8.82,4.12 6.46,12.94 -2.95,6.11 -13,12.19 -21.14,12.19"
         id="path158" /></clipPath><radialGradient
       fx="0"
       fy="0"
       cx="0"
       cy="0"
       r="1"
       gradientUnits="userSpaceOnUse"
       gradientTransform="matrix(3205.99,0,0,-3205.99,4091.71,3995.6)"
       spreadMethod="pad"
       id="radialGradient168"><stop
         style="stop-opacity:1;stop-color:#fbcc2a"
         offset="0"
         id="stop162" /><stop
         style="stop-opacity:1;stop-color:#f1483c"
         offset="0.248485"
         id="stop164" /><stop
         style="stop-opacity:1;stop-color:#3b3a3d"
         offset="1"
         id="stop166" /></radialGradient></defs><sodipodi:namedview
     id="namedview4"
     pagecolor="#ffffff"
     bordercolor="#666666"
     borderopacity="1.0"
     inkscape:pageshadow="2"
     inkscape:pageopacity="0.0"
     inkscape:pagecheckerboard="0"
     showgrid="false"
     fit-margin-top="0"
     fit-margin-left="0"
     fit-margin-right="0"
     fit-margin-bottom="0"
     inkscape:zoom="0.31442831"
     inkscape:cx="-84.279942"
     inkscape:cy="-22.262626"
     inkscape:window-width="1920"
     inkscape:window-height="1023"
     inkscape:window-x="0"
     inkscape:window-y="0"
     inkscape:window-maximized="1"
     inkscape:current-layer="g10" /><g
     id="g8"
     inkscape:groupmode="layer"
     inkscape:label="ink_ext_XXXXXX"
     transform="matrix(1.3333333,0,0,-1.3333333,-258.22998,726.10665)"><g
       id="g10"
       transform="scale(0.1)"><path
         d="m 6314.28,5342.44 c 7.45,80.62 105.26,89.85 181.56,58.37 54.44,-22.45 160.51,-163.27 71.34,-223.69 -21.46,-14.62 -62.79,-7.6 -77.8,12.9 -41.51,56.75 -28.18,189.91 -126.45,181.6 -25.85,-2.21 -32.62,-23.39 -48.65,-29.18"
         style="fill:#3b393d;fill-opacity:1;fill-rule:evenodd;stroke:none"
         id="path14" /><path
         d="m 6353.21,5099.26 c 1.5,-89.55 134.87,-63.55 129.7,-149.17 -85.66,-21.06 -163.63,60.39 -129.7,149.17"
         style="fill:#3b393d;fill-opacity:1;fill-rule:evenodd;stroke:none"
         id="path16" /><path
         d="m 5471.28,3860.72 c 27.13,-53.25 -4.81,-135.98 -71.28,-136.17 -32.58,52.94 3.57,152.2 71.28,136.17"
         style="fill:#3b393d;fill-opacity:1;fill-rule:evenodd;stroke:none"
         id="path18" /><path
         d="m 5374.04,3465.19 c 87.03,72.13 70.44,-112.57 9.72,-113.52 -50.8,-0.74 -10.3,80.81 -9.72,113.52"
         style="fill:#3b393d;fill-opacity:1;fill-rule:evenodd;stroke:none"
         id="path20" /><path
         d="m 3623.24,3027.44 c 2.14,0 4.32,0 6.46,0 -110.63,-161.25 -300.5,-327.03 -385.81,-557.65 -23.48,-63.48 -20.42,-176.28 77.8,-149.13 74.64,20.6 201.73,120.6 243.15,184.79 55.85,86.48 96.1,167.93 171.85,256.15 48,55.88 160.32,198.34 233.46,191.29 84.21,-8.1 -42.82,-133.36 -71.33,-165.33 -105.82,-118.75 -227.52,-254.04 -278.86,-421.53 -9.29,-30.38 -22.35,-87.21 9.74,-116.73 248.43,71.31 330.18,373.98 502.56,518.81 26.33,22.09 58.27,29.61 84.29,6.42 0.98,-88.77 -71.15,-138.65 -110.26,-200.97 -40.31,-64.34 -82.28,-127.64 -103.7,-210.75 64.53,8.56 102.32,89.67 175.07,58.34 -8.77,-127.19 -231.17,-269.91 -314.52,-119.95 -71.21,-40.98 -201.1,-210.26 -311.24,-116.74 -39.6,33.67 -47.82,90.75 -48.65,168.64 -79.61,-43.47 -202.2,-160.42 -308.02,-68.12 -35.74,34.88 -56.86,108.92 -35.65,184.81 65.3,233.47 275.59,442.26 453.91,551.18 0.8,3.55 6.44,2.2 6.47,6.47 1.1,0 2.2,0 3.28,0"
         style="fill:#3b393d;fill-opacity:1;fill-rule:evenodd;stroke:none"
         id="path22" /><path
         d="m 3123.9,2923.7 c -25.84,-91.72 -102.38,-219.31 -129.67,-350.14 -3.15,-15.07 -10.45,-70.69 -29.18,-74.57 -23.91,-4.95 -36.85,39.75 -35.68,68.08 6.22,147.23 122.92,261.2 194.53,356.63"
         style="fill:#3b393d;fill-opacity:1;fill-rule:evenodd;stroke:none"
         id="path24" /><path
         d="m 5477.77,1033.45 c 7.64,-6.62 24.92,-3.31 25.94,6.5 -6.75,1.9 -9.23,8.09 -19.43,6.49 -1.69,-4.78 -4.79,-8.15 -6.51,-12.99 m 74.62,29.25 c 23.78,-1.11 45,0.3 61.58,6.43 3.19,43.16 -65.53,25.75 -61.58,-6.43 m 256.12,333.91 c 4.72,-106.28 -64.84,-166.42 -81.05,-249.65 -7.67,-39.32 17.74,-79.98 12.93,-119.95 -11.71,-97.721 -200.85,-84.42 -204.25,-197.78 109.59,-8.769 243.8,-25.57 353.42,-13 7.24,11.161 8.73,28.02 12.97,42.18 121.48,72.84 273.04,165.91 230.21,353.39 -103.98,20.32 -122.58,125.98 -165.35,207.5 -59.9,-0.62 -113.64,-7.43 -158.88,-22.69 m -402.07,-22.71 c 24.65,-35.9 72.51,-48.53 71.33,-110.21 41.15,-6.43 59.32,-35.83 81.06,-61.61 22.34,0.37 43.89,1.5 58.4,9.72 -15.64,90.91 58.02,132.92 51.83,214 -94.32,14.03 -204.04,-8.96 -262.62,-51.9 m -2353.87,278.84 c 17.32,5.76 63.91,26.6 58.37,55.11 -30.75,-7.05 -37.74,-37.86 -58.37,-55.11 m -308.01,-90.78 c 53.82,48.87 114.89,90.46 158.88,149.13 -84.4,-3.18 -123.02,-97.38 -158.88,-149.13 m 1277.46,395.57 c 145.06,-4.72 360.65,-26.3 476.62,19.46 -152.72,17.63 -347.69,31.92 -476.62,-19.46 m -567.42,38.91 c -10.39,-18.77 -15.45,-42.89 -25.93,-61.62 123.72,-5.52 253.02,-4.88 372.85,0 -1.68,19.92 3.71,46.93 -3.25,61.62 -105.94,5.08 -248.18,5.76 -343.67,0 m -664.65,-38.91 c 167.5,-15.85 357.01,-4.29 509.05,16.22 -130.98,54.44 -383.18,26.14 -509.05,-16.22 M 5302.7,1487.41 c 74.81,12.79 151.47,3.24 229.36,-6.31 77.1,-9.45 155.41,-18.9 234.3,-6.69 26.97,4.2 57.84,8.96 84.29,13 30.54,4.63 136.51,14.53 152.36,35.66 31.24,41.56 -5.77,131.23 -12.93,158.84 -109.53,420.74 -132,937.82 -249.69,1342.31 -184.47,-26.12 -438.79,-12.36 -583.56,51.89 -41.58,-548.84 10.47,-1154.08 145.87,-1588.7 m 1008.36,19.44 c 19.04,113.36 -54.57,177.76 -90.83,252.9 -39.3,81.6 -77.37,198.82 -68.05,311.24 7.14,85.8 37.89,146 16.24,223.74 -24.37,87.18 -19.83,200.79 -35.68,301.52 -16.12,102.3 -22.41,206.97 -51.9,288.57 -18.54,51.33 -40.95,89.77 -51.89,132.9 -9.32,36.97 -5.65,63.92 -29.15,68.12 -42.15,7.47 -112.05,-37.59 -145.89,-51.88 32.91,-569.74 167.01,-1071.77 262.61,-1591.95 -30.13,-14.22 -68.66,-19.95 -103.76,-29.21 8.89,-32.56 27.57,-19.8 47.01,-7.04 10.51,6.91 21.25,13.81 30.79,13.54 36.51,-0.98 56.29,-41.75 71.33,-74.55 35.87,-2.86 73.72,-31.67 107.02,-16.22 -37.58,62.59 33.29,125.53 42.15,178.32 M 2760.77,3131.23 c -49.65,25.53 -124.85,25.49 -200.07,25.45 -76.15,-0.04 -152.31,-0.07 -201.94,26.42 90.99,-64.68 280.83,-122.22 402.01,-51.87 m 3333.04,45.37 c 38.78,-25.99 149.74,-20.87 197.78,-6.5 -44.44,54.63 -159.16,82.77 -197.78,6.5 m -3644.27,77.8 c 13.36,-44.2 116.54,-28.41 155.63,-25.9 -37.74,21.24 -99.84,33.32 -155.63,25.9 m 2006.95,-22.68 c 91.78,-73.45 279.75,-3.04 337.17,61.61 -81.48,-56.55 -259.62,0.99 -337.17,-61.61 m 1556.27,97.26 c 6.22,-25.13 9.32,-53.33 25.93,-68.08 18.83,14.69 4.33,53.8 -3.25,71.34 -1.58,-0.01 -3.2,0.03 -4.83,0.07 -7.2,0.16 -14.42,0.33 -17.85,-3.33 M 4544,3338.74 c 39.1,-19.47 120.7,-9.35 162.14,0 -28.14,32.21 -130.44,22.65 -162.14,0 m 1520.63,-55.12 c 25.93,17.25 65.45,58.12 45.4,90.77 -46.63,2.63 -61.92,-50.61 -45.4,-90.77 m -2438.17,486.33 c -4.6,-0.66 -10.16,-0.34 -15.72,-0.02 -12.78,0.73 -25.54,1.46 -26.43,-9.7 -26.83,-80.41 40.3,-99.99 94.04,-126.45 32.37,-15.94 54.51,-44.9 81.05,-55.14 74.56,-28.82 176.33,-11.47 259.37,-3.25 3.37,17.16 6.32,34.76 6.5,55.14 -173.81,-5.97 -303.18,56.78 -398.81,139.42 m -531.71,-45.4 c -128.9,-28.5 -257.59,-17.29 -301.55,-132.91 37.46,-28.88 132.06,-62.21 175.07,-25.97 11.01,-1.96 5.21,-20.72 19.46,-19.43 31.03,22.98 90.04,18.02 113.49,48.61 -15.8,9.01 -41.89,7.71 -67.98,6.42 -26.22,-1.31 -52.44,-2.61 -68.19,6.55 141.84,69.98 335.79,87.85 538.2,97.23 5.46,20.45 1.05,53.71 -12.96,64.9 -135.31,8.01 -284.75,-20.87 -395.54,-45.4 m 541.42,149.14 c -14.99,-148.8 256.21,-184.73 385.85,-126.45 6.07,7.32 4.42,34.54 0,42.14 -107.54,48.13 -220.13,91.2 -376.1,90.81 -1.96,-0.19 -3.83,-0.5 -3.25,-3.26 -2.51,-0.73 -6.4,-0.08 -6.5,-3.24 m 2120.44,531.73 c 32.76,-27.71 60.42,-60.66 103.8,-77.83 -0.43,25.59 -5.99,45.95 -9.76,68.11 -9.74,0 -19.46,0 -29.17,0 0.97,34.55 -51.66,34.89 -64.87,9.72 m 593.35,145.88 c -7.61,-153.33 17.66,-304.76 9.72,-460.37 47.39,122.29 34.79,304.59 51.89,457.16 -9.4,10.85 -49.41,15.54 -61.61,3.21 m -100.52,-19.43 c 25.51,-1.75 32.06,15.48 35.69,35.65 -16.74,35.13 -61.13,-9.26 -35.69,-35.65 m -1183.41,-48.62 c -9.48,55.39 -35.56,94.14 -81.06,113.45 -2.54,-54.53 43.38,-88.34 81.06,-113.45 m -359.89,265.84 c -37.27,-16.22 -59.66,-99.57 -84.3,-145.92 -177.03,-332.69 -347.81,-717.13 -509.05,-1031 -14.29,-11.68 -35.47,-16.4 -38.9,-38.93 64.34,6.71 137.76,20.17 194.53,45.4 22.14,9.84 80.65,38.99 81.05,64.86 0.92,61.86 -112.99,48.56 -119.95,94.02 -9.78,63.61 127.22,32.7 158.85,19.43 23.15,-9.68 83.45,-39.23 94.02,-51.9 52.97,-62.96 19.19,-140.18 55.15,-213.93 155.05,-2.3 316.17,-24.86 298.3,-210.75 -41.6,-97.85 -132.98,-145.89 -272.36,-145.92 -49.49,-65.04 -31,-291.77 -19.48,-434.47 23.52,-290.29 51.66,-534.79 -116.7,-638.75 88.72,-24.42 245.77,4.79 226.97,-116.7 40.47,-1.65 69.93,-14.34 93.99,-32.4 44.3,-64.13 41.29,-168.63 51.9,-269.11 27.95,-264.52 -11.34,-567.94 3.25,-823.54 26.03,0.149 52.83,0.141 80.08,0.141 74.85,-0.019 153.05,-0.039 227.93,3.109 26.43,86.872 136.29,81.911 204.25,136.172 32.06,25.618 82.98,99.308 84.33,139.408 1.5,45.83 -38.5,85.44 -42.18,129.71 -6.09,73.07 21.1,146.19 -32.43,191.28 -39.42,-14.29 -128.72,-51.54 -129.7,16.22 -0.27,20.59 30.04,31.33 32.43,51.89 2.43,20.27 -25.75,56.44 -32.43,74.55 -51,139.17 -81.02,348.36 -106.98,538.23 -25.08,183.2 -64.96,424.55 -35.65,609.52 17.38,109.76 2.51,271.46 9.71,405.27 6.08,112.85 16.53,235.19 45.4,333.98 10.12,34.65 37.12,75.91 38.94,119.96 5.52,138.22 6.58,291.65 45.36,395.56 17.27,46.26 73.2,108.4 71.34,139.42 -1.81,29.62 -69.41,85.01 -97.27,113.45 -142.91,145.98 -230.25,346.92 -350.16,492.87 -35.29,-1.84 -64.56,2.45 -94.06,6.46 -9.58,6.6 -7.35,25.02 -16.18,32.41 m 29.18,58.39 c -9.77,-36.2 74.89,-100.3 113.49,-64.86 -18.49,13.24 -104.1,99.66 -113.49,64.86 m 541.46,-661.46 c 23.69,0.12 14.99,32.59 38.89,32.47 17.2,-85.26 -26.02,-191.54 -9.71,-282.09 24.76,58.43 42.7,123.69 90.77,158.85 -36.12,-56.8 -12.78,-173.1 -71.34,-207.5 -19.83,6.07 -16.4,35.44 -32.4,45.37 -98.53,-203.64 -111.77,-489.98 -129.73,-761.89 8.99,-9.68 33.22,-13.08 48.68,-6.5 12.23,174.73 12.84,361.08 81.05,479.84 0.95,-149.35 2.85,-335.48 6.46,-489.59 210.45,-29.98 469.94,-14.03 635.51,42.19 -34.77,55.67 23.14,94.56 38.87,145.88 9.23,29.95 -2.05,50.49 -16.18,90.77 -51.26,146.1 -35.29,309.46 16.18,440.97 4.96,12.66 11.98,37.94 13,51.9 11.67,166.69 -76.92,276.74 -132.92,379.31 -297.23,181.57 -572.5,385.08 -865.69,570.64 -95.33,-107.9 59.47,-184.36 110.21,-252.87 142.91,-192.97 365.89,-438.85 570.63,-564.2 30.38,-18.54 63.15,-43.74 55.15,-90.77 -18.33,-29.67 -58.59,-21.95 -87.55,-9.71 -121.11,51.04 -231.66,203.39 -320.99,282.05 -7.83,1.59 -11.75,-0.72 -15.68,-3.04 -3.54,-2.09 -7.09,-4.18 -13.5,-3.4 -32.07,107.23 -129.49,168.63 -194.54,252.87 58.47,-103.64 131.12,-193.12 184.83,-301.55 m 596.56,752.23 c -48.89,-85.28 -141.59,-158.14 -184.82,-252.9 -16.61,-36.51 -14.71,-84.67 -55.11,-94.05 -26.3,-90.46 29.04,-80.69 88.43,-70.91 28.69,4.72 58.33,9.44 80.17,2.86 35.37,-10.7 51.52,-27.4 81.05,3.22 -4.63,73.82 37.06,101.31 81.05,126.45 -87.46,39.79 -71.37,183.68 -90.77,285.33 m -946.73,12.94 c 3.61,54.9 -112.44,92.58 -165.35,61.65 5.58,-20.88 2.14,-40.25 -3.28,-58.4 34.91,-27.77 73.72,-51.65 110.29,-77.8 4.07,39.23 56.12,41.32 58.34,74.55 m 278.83,252.9 c 31.33,-17.26 42.46,-54.75 87.55,-58.34 4.69,7.21 8.15,15.64 6.46,29.19 -27.73,9.59 -75.58,31.6 -94.01,29.15 m 875.4,0 c 3.68,-9.29 13.92,-12.01 25.97,-12.94 0.03,6.44 8.82,4.12 6.46,12.94 -5.12,10.58 -31.54,21.09 -32.43,0 m 126.46,-502.55 c 77.8,36.84 140.05,106.49 230.21,152.42 46.59,23.72 82.43,74.7 126.44,94.04 32.69,14.32 160.67,1.81 152.4,58.31 -2.89,19.55 -32.32,19.49 -45.4,32.46 -48.44,47.97 1.22,140.31 -38.91,204.22 49.94,-61.37 77.56,-145.03 142.64,-191.29 3.92,-21.14 -23.61,-10.97 -22.72,-29.18 66.67,-161.33 -122.46,-240.05 -269.05,-184.78 -41.48,-75.32 -194.96,-113.98 -145.95,-226.97 87.8,53.03 141.81,13.98 168.64,-68.08 77.46,-236.99 -89.86,-573.06 0,-787.86 -4.79,-14.68 -27.96,-11 -38.94,-19.46 41.57,-101.1 182.33,-102.97 285.3,-142.67 -9.63,-88.13 -174.94,-67.84 -239.87,-45.37 -299.55,103.58 -321.96,623.12 -188.07,936.99 -31.75,-21.24 -92.85,-36.57 -123.23,6.47 -45.33,-41.23 -95.3,-109.1 -162.1,-126.45 -6.96,-1.8 -14.55,-1.72 -22.01,-1.65 -16.82,0.16 -32.95,0.32 -39.57,-21.01 37.09,-31.72 30.01,-80.77 48.61,-139.44 16.16,-50.86 65.67,-135.52 48.65,-230.16 -5.27,-29.33 -26.88,-48.86 -42.14,-77.86 35.44,-135.49 -17.33,-310.16 9.71,-457.15 83.41,109.68 229.73,-20.57 139.42,-129.7 90.67,-28.26 241.19,-11.19 269.12,-93.99 33.75,-100.08 -102.7,-109.25 -197.79,-110.25 81.79,-118.19 300.47,-162 298.27,-353.42 -59.65,6.31 -84.73,62.07 -119.95,97.26 -80.5,80.47 -186.57,128.07 -275.62,201.04 9.33,-76.1 36.97,-133.81 51.91,-204.26 10.72,-2.28 12.45,4.43 14.18,11.15 1.58,6.18 3.17,12.36 11.74,11.54 14.6,-185.93 42.4,-408.72 -12.99,-573.89 14.01,-123.78 36.61,-211.09 55.18,-337.17 12.71,-86.5 83.25,-196.28 106.98,-269.12 7.11,-21.85 5.39,-43.44 12.97,-55.12 14.32,-22.13 41.66,-27.95 51.87,-42.12 22.93,-31.93 3.09,-58.51 19.43,-107.01 9.38,-27.8 44.51,-22.13 55.15,-51.86 20.9,-58.56 -38.04,-65.54 -38.9,-113.52 -0.89,-46.32 58.79,-71.58 42.12,-142.64 -4.2,-18.08 -27.16,-35.61 -32.4,-55.11 -4.79,-17.66 3.12,-25.2 -3.25,-45.43 -19.31,-61.009 -101.84,-64.559 -162.13,-97.239 -13.03,-31.27 -12.88,-75.711 -29.15,-103.731 251.61,-19.378 551.1,3.372 774.88,-51.871 -5.4,-24.707 -16.87,-22.488 -33.84,-20.269 -7.2,0.949 -15.39,1.89 -24.53,0.769 -74.52,-8.949 -150.24,-31.449 -249.65,-35.679 -141.05,-5.93 -283.79,-4.078 -427,-2.231 -189.57,2.461 -379.97,4.91 -568.35,-10.699 -138.41,-11.461 -278.31,-19.437 -418.28,-19.437 -428.56,0 -856.83,-14.043 -1274.19,9.746 -76.06,4.293 -158.76,9.621 -230.19,0 -349.15,-47.149 -765.29,-22.379 -1157.48,-38.93 -194.78,-8.219 -390.79,2.762 -590.1,9.742 -44.18,1.539 -155.6,2.52 -162.13,38.879 -5.92,33.09 40.16,32.34 88.18,31.582 17.64,-0.273 35.55,-0.551 51.23,0.848 115.29,10.289 310.5,29.55 434.47,25.929 -4.44,136.852 -2.64,326.471 -9.72,515.491 -6.28,166.97 21.37,344.1 -3.25,466.9 -6.25,31.26 -23.17,101.15 0,129.73 13.29,16.39 48.23,14.7 81.6,13.02 24.07,-1.21 47.33,-2.43 61.07,3.13 -89.73,98.84 25.26,194.07 145.91,181.57 -44.87,64.98 -96.37,139.63 -103.79,249.68 -3.74,56.13 -7.14,139.67 16.21,184.82 74.86,-84.92 62.45,-233.16 126.45,-324.23 29.31,-41.66 88.2,-39.09 87.55,-100.52 151.74,-44.48 356.82,-36.06 534.99,-19.46 111.3,10.37 231.67,9.3 349.62,8.22 199.77,-1.82 392.57,-3.64 522.56,50.18 45.12,18.69 106.58,59.21 126.42,106.98 48.52,116.85 23.24,323.09 9.75,483.08 -12.69,150.02 -8.74,291.56 -9.75,424.72 -34.48,27.19 -99.57,55.05 -68.08,119.98 12.14,24.95 53.55,26.64 64.86,48.65 30.32,59.1 -26.73,159.74 -16.22,230.18 -27.89,-4.56 -45.58,-19.24 -61.61,-35.65 -418.86,-165.47 -1264.01,-172.98 -1643.79,32.41 -41.35,-79.46 -9.47,-224.36 -9.75,-324.24 40.04,-44.54 105.52,-26.12 129.67,-71.33 50.8,-94.91 -88.74,-84.33 -110.2,-129.67 -20.36,-42.92 11.92,-148.05 3.21,-217.21 -5.26,-42.06 -20.65,-101.17 -25.93,-152.43 -11.16,-5.05 -24.8,-7.59 -42.12,-6.46 -14.22,123.05 -9.47,265.04 -45.43,366.39 -161.27,16.64 -481.61,128.9 -330.7,317.73 54.69,68.45 167.13,87.12 298.27,74.55 0.46,396.91 381.89,432.1 771.7,450.68 10.74,0.52 25.09,0.37 40.88,0.22 43.69,-0.41 98.37,-0.82 117.94,12.75 30.87,21.43 29.12,70.78 77.86,87.52 98.09,33.81 260.35,-6.56 346.89,-35.65 37.46,-12.57 97.97,-31.18 123.23,-51.87 11.53,-9.48 25.6,-58.77 45.37,-61.62 33.26,-4.72 63.91,92.79 74.58,113.49 110.14,214.27 204.53,420.64 308.02,629 56.98,114.77 122.92,214.27 168.59,333.95 15.71,106.58 20.91,217.46 132.92,243.18 56.41,38.91 72.93,234.41 155.64,246.41 12.41,1.8 66.46,-7.76 94.02,-12.98 66.03,-12.41 217.03,-104.34 246.43,-149.16 21.28,-32.4 48.19,-104.75 19.43,-132.92 -156.21,-16.92 -218.78,113.36 -343.66,149.14 -24.78,-39.58 -82.13,-96.6 -77.83,-145.89 4.69,-53.59 135.73,-96.23 129.72,-184.78 210.14,-74.13 316.88,-251.59 518.74,-333.95 32.01,127.76 83.26,243.95 175.07,314.48 49.6,38.07 118.26,50.49 171.88,94.05 23.63,19.19 26.55,58.77 55.09,84.27 24.86,22.22 69.3,28.84 81.08,58.36 11.28,28.46 -7.45,64.26 22.68,81.09 -45.71,75.34 -1.99,179.05 48.62,217.18 13.77,37.37 231.5,74.31 220.47,-6.47 -5.25,-38.43 -76.58,-20.9 -126.45,-42.14 -26.74,-11.41 -182.49,-127.01 -84.28,-165.39 47.95,-18.7 245.83,-16.49 226.98,-90.76 -11.93,-46.69 -99.26,2.72 -116.74,3.24 -13.24,0.41 -24.83,-12.78 -42.15,-12.96 -10.43,-0.11 -19.31,3.49 -27.8,7.08 -11.05,4.68 -21.46,9.35 -33.81,5.88 -45.74,-12.84 -116.46,-125.13 -119.95,-175.06 -2.77,-39.39 43.07,-107.67 58.33,-132.95 36.38,-60.11 92.17,-103.55 158.89,-132.95"
         style="fill:#3b393d;fill-opacity:1;fill-rule:evenodd;stroke:none"
         id="path26" /><g
         id="g46"><g
           id="g48"
           clip-path="url(#clipPath52)"><path
             d="m 6538.2,5169.36 c -18.99,0 -39.25,7.59 -48.82,20.66 -40.26,55.04 -28.94,181.97 -117.89,181.97 -2.76,0 -5.6,-0.12 -8.56,-0.37 -25.85,-2.21 -32.62,-23.39 -48.65,-29.18 4.9,53.01 48.86,75.15 100.09,75.15 26.69,0 55.34,-6 81.47,-16.78 54.44,-22.45 160.51,-163.27 71.34,-223.69 -7.78,-5.3 -18.17,-7.76 -28.98,-7.76"
             style="fill:url(#radialGradient60);fill-opacity:1;fill-rule:nonzero;stroke:none"
             id="path62" /></g></g><g
         id="g64"><g
           id="g66"
           clip-path="url(#clipPath70)"><path
             d="m 6455.52,4946.73 c -73.83,0 -132.57,73.35 -102.31,152.53 1.5,-89.55 134.87,-63.55 129.7,-149.17 -9.26,-2.28 -18.44,-3.36 -27.39,-3.36"
             style="fill:url(#radialGradient78);fill-opacity:1;fill-rule:nonzero;stroke:none"
             id="path80" /></g></g><g
         id="g82"><g
           id="g84"
           clip-path="url(#clipPath88)"><path
             d="m 5400,3724.55 c -30.19,49.06 -1.36,137.9 56.91,137.9 4.61,0 9.4,-0.55 14.37,-1.73 27.13,-53.25 -4.81,-135.98 -71.28,-136.17"
             style="fill:url(#radialGradient96);fill-opacity:1;fill-rule:nonzero;stroke:none"
             id="path98" /></g></g><g
         id="g100"><g
           id="g102"
           clip-path="url(#clipPath106)"><path
             d="m 5383.08,3351.67 c -49.77,0 -9.62,80.95 -9.04,113.52 14.21,11.77 25.66,16.7 34.61,16.7 45.83,0 25.92,-129.42 -24.89,-130.22 -0.23,0 -0.46,0 -0.68,0"
             style="fill:url(#radialGradient114);fill-opacity:1;fill-rule:nonzero;stroke:none"
             id="path116" /></g></g><g
         id="g118"><g
           id="g120"
           clip-path="url(#clipPath124)"><path
             d="m 3623.56,2156.69 c -24.28,0 -48.4,8.03 -71.66,27.77 -39.6,33.67 -47.82,90.75 -48.65,168.64 -58.14,-31.75 -139.2,-102.68 -219.91,-102.68 -29.81,0 -59.56,9.67 -88.11,34.56 -35.74,34.88 -56.86,108.92 -35.65,184.81 65.3,233.47 275.59,442.26 453.91,551.18 0.8,3.55 6.44,2.2 6.47,6.47 1.1,0 2.2,0 3.28,0 2.14,0 4.32,0 6.46,0 -110.63,-161.25 -300.5,-327.03 -385.81,-557.65 -21.03,-56.85 -20.76,-153.26 50.07,-153.27 8.26,0 17.47,1.31 27.73,4.14 74.64,20.6 201.73,120.6 243.15,184.79 55.85,86.48 96.1,167.93 171.85,256.15 46.85,54.54 154.96,191.54 228.12,191.54 1.8,0 3.58,-0.08 5.34,-0.25 84.21,-8.1 -42.82,-133.36 -71.33,-165.33 -105.82,-118.75 -227.52,-254.04 -278.86,-421.53 -9.29,-30.38 -22.35,-87.21 9.74,-116.73 248.43,71.31 330.18,373.98 502.56,518.81 15.14,12.7 32.13,20.58 48.79,20.58 12.32,0 24.44,-4.3 35.5,-14.16 0.98,-88.77 -71.15,-138.65 -110.26,-200.97 -40.31,-64.34 -82.28,-127.64 -103.7,-210.75 54.17,7.18 89.5,65.5 142.49,65.5 10.13,0 20.9,-2.13 32.58,-7.16 -6.1,-88.36 -115.31,-184.21 -209.36,-184.23 -41.33,0 -79.71,18.5 -105.16,64.28 -56.18,-32.33 -148.88,-144.51 -239.58,-144.51"
             style="fill:url(#radialGradient132);fill-opacity:1;fill-rule:nonzero;stroke:none"
             id="path134" /></g></g><g
         id="g136"><g
           id="g138"
           clip-path="url(#clipPath142)"><path
             d="m 2961.44,2498.61 c -21.6,0 -33.18,41.59 -32.07,68.46 6.22,147.23 122.92,261.2 194.53,356.63 -25.84,-91.72 -102.38,-219.31 -129.67,-350.14 -3.15,-15.07 -10.45,-70.69 -29.18,-74.57 -1.23,-0.26 -2.43,-0.38 -3.61,-0.38"
             style="fill:url(#radialGradient150);fill-opacity:1;fill-rule:nonzero;stroke:none"
             id="path152" /></g></g><g
         id="g154"><g
           id="g156"
           clip-path="url(#clipPath160)"><path
             d="m 4091.73,789.602 c -577.75,0 -1119.77,152.796 -1587.91,420.218 -0.67,25.43 -1.46,50.99 -2.42,76.53 -6.28,166.97 21.37,344.1 -3.25,466.9 -6.25,31.26 -23.17,101.15 0,129.73 9.23,11.38 28.92,14.05 51.27,14.05 9.82,0 20.15,-0.52 30.33,-1.03 10.19,-0.51 20.24,-1.03 29.48,-1.03 12.58,0 23.66,0.96 31.59,4.16 -84.36,92.93 12.25,182.68 124.39,182.68 7.13,0 14.31,-0.36 21.52,-1.11 v 0 0 c -44.87,64.98 -96.37,139.63 -103.79,249.68 -3.74,56.13 -7.14,139.67 16.21,184.82 74.86,-84.92 62.45,-233.16 126.45,-324.23 29.31,-41.66 88.2,-39.09 87.55,-100.52 82.97,-24.32 181.89,-32.83 283.63,-32.83 84.34,0 170.6,5.85 251.36,13.37 77.18,7.19 158.74,8.88 240.81,8.88 36.28,0 72.65,-0.33 108.81,-0.66 36.14,-0.33 72.06,-0.66 107.41,-0.66 160.07,0 308.68,6.75 415.15,50.84 45.12,18.69 106.58,59.21 126.42,106.98 48.52,116.85 23.24,323.09 9.75,483.08 -12.69,150.02 -8.74,291.56 -9.75,424.72 -34.48,27.19 -99.57,55.05 -68.08,119.98 12.14,24.95 53.55,26.64 64.86,48.65 30.32,59.1 -26.73,159.74 -16.22,230.18 -27.89,-4.56 -45.58,-19.24 -61.61,-35.65 -202.38,-79.95 -504.3,-123.02 -805.14,-123.02 -321.8,-0.01 -642.36,49.27 -838.65,155.43 -41.35,-79.46 -9.47,-224.36 -9.75,-324.24 40.04,-44.54 105.52,-26.12 129.67,-71.33 50.8,-94.91 -88.74,-84.33 -110.2,-129.67 -20.36,-42.92 11.92,-148.05 3.21,-217.21 -5.26,-42.06 -20.65,-101.17 -25.93,-152.43 -9.39,-4.25 -20.55,-6.73 -34.18,-6.73 -2.56,0 -5.2,0.09 -7.94,0.27 -14.22,123.05 -9.47,265.04 -45.43,366.39 -161.27,16.64 -481.61,128.9 -330.7,317.73 44.27,55.41 126.41,78.2 225.67,78.2 23.34,0 47.63,-1.26 72.6,-3.65 0.46,396.91 381.89,432.1 771.7,450.68 5.63,0.27 12.26,0.36 19.56,0.36 6.63,0 13.81,-0.07 21.32,-0.14 7.49,-0.07 15.3,-0.14 23.2,-0.14 38.2,0 78.53,1.64 94.74,12.89 30.87,21.43 29.12,70.78 77.86,87.52 26.47,9.12 57.62,12.84 90.68,12.84 89.47,0 193.02,-27.25 256.21,-48.49 37.46,-12.57 97.97,-31.18 123.23,-51.87 11.53,-9.48 25.6,-58.77 45.37,-61.62 0.78,-0.11 1.56,-0.16 2.34,-0.16 32.35,0 61.83,93.44 72.24,113.65 110.14,214.27 204.53,420.64 308.02,629 56.98,114.77 122.92,214.27 168.59,333.95 15.71,106.58 20.91,217.46 132.92,243.18 56.41,38.91 72.93,234.41 155.64,246.41 1.05,0.15 2.4,0.22 4,0.22 17.36,0 64.79,-8.42 90.02,-13.2 66.03,-12.41 217.03,-104.34 246.43,-149.16 21.28,-32.4 48.19,-104.75 19.43,-132.92 -9.45,-1.02 -18.55,-1.5 -27.35,-1.5 -136.66,-0.01 -198.98,117.03 -316.31,150.64 -24.78,-39.58 -82.13,-96.6 -77.83,-145.89 4.69,-53.59 135.73,-96.23 129.72,-184.78 210.14,-74.13 316.88,-251.59 518.74,-333.95 32.01,127.76 83.26,243.95 175.07,314.48 49.6,38.07 118.26,50.49 171.88,94.05 23.63,19.19 26.55,58.77 55.09,84.27 24.86,22.22 69.3,28.84 81.08,58.36 11.28,28.46 -7.45,64.26 22.68,81.09 -45.71,75.34 -1.99,179.05 48.62,217.18 7.72,20.96 79.59,41.78 139.28,41.78 46.75,0 86.03,-12.77 81.19,-48.25 -5.25,-38.43 -76.58,-20.9 -126.45,-42.14 -26.74,-11.41 -182.49,-127.01 -84.28,-165.39 47.95,-18.7 245.83,-16.49 226.98,-90.76 -3.82,-14.96 -15.38,-20.05 -29.9,-20.05 -30.81,-0.01 -74.96,22.94 -86.84,23.29 -0.2,0.01 -0.4,0.01 -0.6,0.01 -12.99,0 -24.48,-12.79 -41.55,-12.97 -0.15,0 -0.29,0 -0.44,0 -10.24,0 -18.99,3.54 -27.36,7.08 -8.37,3.54 -16.38,7.09 -25.14,7.09 -2.8,0 -5.68,-0.37 -8.67,-1.21 -45.74,-12.84 -116.46,-125.13 -119.95,-175.06 -2.77,-39.39 43.07,-107.67 58.33,-132.95 36.38,-60.11 92.17,-103.55 158.89,-132.95 77.8,36.84 140.05,106.49 230.21,152.42 46.59,23.72 82.43,74.7 126.44,94.04 32.69,14.32 160.67,1.81 152.4,58.31 -2.89,19.55 -32.32,19.49 -45.4,32.46 -48.44,47.97 1.22,140.31 -38.91,204.22 49.94,-61.37 77.56,-145.03 142.64,-191.29 3.92,-21.14 -23.61,-10.97 -22.72,-29.18 52.33,-126.62 -52.93,-202.36 -171.51,-202.36 -32.5,0 -66,5.69 -97.54,17.58 -41.48,-75.32 -194.96,-113.98 -145.95,-226.97 27.59,16.67 51.85,24.24 72.97,24.24 46.09,0 77.27,-36.05 95.67,-92.32 77.46,-236.99 -89.86,-573.06 0,-787.86 -4.79,-14.68 -27.96,-11 -38.94,-19.46 41.57,-101.1 182.33,-102.97 285.3,-142.67 -5.39,-49.36 -59.64,-64.71 -117.72,-64.71 -45.61,0 -93.59,9.46 -122.15,19.34 -299.55,103.58 -321.96,623.12 -188.07,936.99 -16.94,-11.33 -42.24,-20.98 -66.76,-20.98 -21.44,0 -42.3,7.37 -56.47,27.45 -45.33,-41.23 -95.3,-109.1 -162.1,-126.45 -5.61,-1.45 -11.62,-1.68 -17.65,-1.68 -1.45,0 -2.91,0.01 -4.36,0.03 -1.46,0.01 -2.91,0.02 -4.36,0.02 -15.19,0 -29.16,-1.55 -35.21,-21.03 37.09,-31.72 30.01,-80.77 48.61,-139.44 16.16,-50.86 65.67,-135.52 48.65,-230.16 -5.27,-29.33 -26.88,-48.86 -42.14,-77.86 35.44,-135.49 -17.33,-310.16 9.71,-457.15 22.31,29.34 49.13,41.51 74.71,41.51 70.05,0 130.87,-91.27 64.71,-171.21 90.67,-28.26 241.19,-11.19 269.12,-93.99 33.75,-100.08 -102.7,-109.25 -197.79,-110.25 81.79,-118.19 300.47,-162 298.27,-353.42 -59.65,6.31 -84.73,62.07 -119.95,97.26 -80.5,80.47 -186.57,128.07 -275.62,201.04 9.33,-76.1 36.97,-133.81 51.91,-204.26 1.45,-0.31 2.75,-0.46 3.9,-0.46 7.29,0 8.79,5.81 10.28,11.61 1.49,5.81 2.98,11.61 10.26,11.61 0.47,0 0.96,-0.02 1.48,-0.07 14.6,-185.93 42.4,-408.72 -12.99,-573.89 14.01,-123.78 36.61,-211.09 55.18,-337.17 8.87,-60.33 45.86,-131.98 75.49,-194.53 -22.46,-22.3 -45.28,-44.31 -68.39,-65.95 -20.03,36.7 -45.26,69.59 -62.28,104.85 -39.3,81.6 -77.37,198.82 -68.05,311.24 7.14,85.8 37.89,146 16.24,223.74 -24.37,87.18 -19.83,200.79 -35.68,301.52 -16.12,102.3 -22.41,206.97 -51.9,288.57 -18.54,51.33 -40.95,89.77 -51.89,132.9 -9.32,36.97 -5.65,63.92 -29.15,68.12 -3.19,0.56 -6.54,0.83 -10.02,0.83 -42.5,0 -104.59,-39.5 -135.87,-52.71 31.67,-548.22 157.02,-1033.76 251.62,-1533.08 -42.26,-34.16 -85.37,-67.24 -129.36,-99.25 -2.83,5.98 -5.75,11.89 -8.78,17.67 -59.9,-0.62 -113.64,-7.43 -158.88,-22.69 2.25,-50.6 -12.35,-90.75 -30,-127.91 -123.81,-76.75 -253.22,-145.29 -387.49,-204.89 5.31,12.72 8.65,24.63 8.98,34.5 1.5,45.83 -38.5,85.44 -42.18,129.71 -6.09,73.07 21.1,146.19 -32.43,191.28 -22.02,-7.98 -59.62,-23.13 -88.68,-23.13 -22.96,-0.01 -40.59,9.45 -41.02,39.35 -0.27,20.59 30.04,31.33 32.43,51.89 2.43,20.27 -25.75,56.44 -32.43,74.55 -51,139.17 -81.02,348.36 -106.98,538.23 -25.08,183.2 -64.96,424.55 -35.65,609.52 17.38,109.76 2.51,271.46 9.71,405.27 6.08,112.85 16.53,235.19 45.4,333.98 10.12,34.65 37.12,75.91 38.94,119.96 5.52,138.22 6.58,291.65 45.36,395.56 17.27,46.26 73.2,108.4 71.34,139.42 -1.81,29.62 -69.41,85.01 -97.27,113.45 -142.91,145.98 -230.25,346.92 -350.16,492.87 -5.79,-0.3 -11.43,-0.44 -16.92,-0.44 -27.99,0 -52.48,3.55 -77.14,6.9 -9.58,6.6 -7.35,25.02 -16.18,32.41 -37.27,-16.22 -59.66,-99.57 -84.3,-145.92 -177.03,-332.69 -347.81,-717.13 -509.05,-1031 -14.29,-11.68 -35.47,-16.4 -38.9,-38.93 64.34,6.71 137.76,20.17 194.53,45.4 22.14,9.84 80.65,38.99 81.05,64.86 0.92,61.86 -112.99,48.56 -119.95,94.02 -4.54,29.54 22.59,38.7 56.12,38.7 38.65,0 85.79,-12.16 102.73,-19.27 23.15,-9.68 83.45,-39.23 94.02,-51.9 52.97,-62.96 19.19,-140.18 55.15,-213.93 155.05,-2.3 316.17,-24.86 298.3,-210.75 -41.6,-97.85 -132.98,-145.89 -272.36,-145.92 -49.49,-65.04 -31,-291.77 -19.48,-434.47 23.52,-290.29 51.66,-534.79 -116.7,-638.75 88.72,-24.42 245.77,4.79 226.97,-116.7 40.47,-1.65 69.93,-14.34 93.99,-32.4 44.3,-64.13 41.29,-168.63 51.9,-269.11 26.19,-247.85 -6.65,-529.83 1.1,-774.629 -228.22,-51.559 -465.73,-78.789 -709.53,-78.789 m 1519.83,640.318 c -78.39,0 -158.17,-21.6 -205.12,-56.02 24.65,-35.9 72.51,-48.53 71.33,-110.21 41.15,-6.43 59.32,-35.83 81.06,-61.61 22.34,0.37 43.89,1.5 58.4,9.72 -15.64,90.91 58.02,132.92 51.83,214 -18.73,2.79 -38.08,4.12 -57.5,4.12 m -230.53,63.67 c 49.7,0 100.1,-6.24 151.03,-12.49 50.92,-6.24 102.38,-12.48 154.17,-12.48 26.63,0 53.34,1.65 80.13,5.79 26.97,4.2 57.84,8.96 84.29,13 30.54,4.63 136.51,14.53 152.36,35.66 31.24,41.56 -5.77,131.23 -12.93,158.84 -109.53,420.74 -132,937.82 -249.69,1342.31 -57.97,-8.21 -122.87,-12.48 -189.07,-12.48 -144.45,0 -295.22,20.32 -394.49,64.37 -41.58,-548.84 10.47,-1154.08 145.87,-1588.7 25.9,4.43 52.02,6.18 78.33,6.18 m -2477.59,217.5 c -84.4,-3.18 -123.02,-97.38 -158.88,-149.13 53.82,48.87 114.89,90.46 158.88,149.13 m 207.5,-3.24 c -30.75,-7.05 -37.74,-37.86 -58.37,-55.11 17.32,5.76 63.91,26.6 58.37,55.11 m 505.94,292.66 c -58.77,0 -116.01,-1.28 -162.28,-4.07 -10.39,-18.77 -15.45,-42.89 -25.93,-61.62 59.94,-2.68 121.21,-3.9 182.06,-3.9 64.75,-0.01 129.02,1.38 190.79,3.9 -1.68,19.92 3.71,46.93 -3.25,61.62 -54.61,2.62 -118.87,4.07 -181.39,4.07 m 644.15,-7.34 c -87.37,0 -172.08,-8.97 -239.01,-35.64 74.02,-2.41 166.43,-9.2 254.57,-9.21 84.59,0 165.25,6.26 222.05,28.67 -73.44,8.48 -156.67,16.18 -237.61,16.18 m -1157.67,10.6 c -114.12,0 -237.02,-20.53 -313.41,-46.24 54.36,-5.14 111.06,-7.4 168.02,-7.4 118.56,0 238.33,9.77 341.03,23.62 -51.48,21.4 -121.73,30.02 -195.64,30.02 m -744.6,1179.33 c 61.43,-43.67 167.92,-84.08 267.91,-84.08 48.12,0 94.73,9.35 134.1,32.21 -47.72,24.54 -119.08,25.46 -191.34,25.46 -2.91,0 -5.81,0 -8.73,-0.01 -2.97,0 -5.94,0 -8.91,0 -73.14,0 -145.33,0.96 -193.03,26.42 m 2934.23,421.47 c 0.95,-149.35 2.85,-335.48 6.46,-489.59 70.12,-9.99 145.72,-14.88 221.44,-14.88 151.54,0 303.67,19.58 414.07,57.07 -34.77,55.67 23.14,94.56 38.87,145.88 9.23,29.95 -2.05,50.49 -16.18,90.77 -51.26,146.1 -35.29,309.46 16.18,440.97 4.96,12.66 11.98,37.94 13,51.9 11.67,166.69 -76.92,276.74 -132.92,379.31 -297.23,181.57 -572.5,385.08 -865.69,570.64 -95.33,-107.9 59.47,-184.36 110.21,-252.87 142.91,-192.97 365.89,-438.85 570.63,-564.2 30.38,-18.54 63.15,-43.74 55.15,-90.77 -9.39,-15.19 -24.52,-20.58 -40.94,-20.58 -15.65,0 -32.47,4.9 -46.61,10.87 -121.11,51.04 -231.66,203.39 -320.99,282.05 -1.8,0.37 -3.4,0.53 -4.84,0.53 -4.8,0 -7.82,-1.79 -10.84,-3.57 -3.02,-1.78 -6.04,-3.57 -10.84,-3.57 -0.83,0 -1.71,0.06 -2.66,0.17 -32.07,107.23 -129.49,168.63 -194.54,252.87 58.47,-103.64 131.12,-193.12 184.83,-301.55 23.64,0.12 15.03,32.47 38.76,32.47 0.04,0 0.09,0 0.13,0 17.2,-85.26 -26.02,-191.54 -9.71,-282.09 24.76,58.43 42.7,123.69 90.77,158.85 -36.12,-56.8 -12.78,-173.1 -71.34,-207.5 -19.83,6.07 -16.4,35.44 -32.4,45.37 -98.53,-203.64 -111.77,-489.98 -129.73,-761.89 5.82,-6.27 18.02,-9.9 30.1,-9.9 6.58,0 13.13,1.08 18.58,3.4 12.23,174.73 12.84,361.08 81.05,479.84 m 882.66,-381.29 c -33.66,0 -64.99,-13.4 -81.84,-46.68 19.72,-13.22 58.11,-18.39 97.4,-18.39 37.97,0 76.77,4.83 100.38,11.89 -25.05,30.8 -72.44,53.18 -115.94,53.18 m -1381.99,70.05 c -81.48,-56.55 -259.62,0.99 -337.17,-61.61 27.81,-22.25 64.46,-31.3 103.63,-31.3 90.09,-0.01 193.52,47.85 233.54,92.91 M 2483.68,3256.6 c -11.47,0 -22.93,-0.71 -34.14,-2.2 7.48,-24.74 43.1,-30.68 79.87,-30.69 28.92,0 58.55,3.68 75.76,4.79 -30.16,16.97 -75.87,28.1 -121.49,28.1 m 3542.45,75.77 c -5.57,0 -10.66,-0.49 -13.37,-3.39 6.22,-25.13 9.32,-53.33 25.93,-68.08 18.83,14.69 4.33,53.8 -3.25,71.34 -0.09,0 -0.18,0 -0.27,0 -1.5,0 -3.03,0.03 -4.56,0.07 -1.5,0.03 -3.01,0.06 -4.48,0.06 m 80.6,42.11 c -44.05,0 -58.23,-51.67 -42.1,-90.86 25.93,17.25 65.45,58.12 45.4,90.77 -1.12,0.06 -2.22,0.09 -3.3,0.09 m -1471.89,-15.01 c -35.65,0 -73.63,-8.44 -90.84,-20.73 16.39,-8.16 40.24,-11.13 65.47,-11.13 34.98,0 72.6,5.69 96.67,11.13 -12.87,14.73 -41.26,20.73 -71.3,20.73 m -1666.57,206.2 c 10.64,-1.9 5.58,-19.5 18.11,-19.5 0.43,0 0.88,0.02 1.35,0.07 31.03,22.98 90.04,18.02 113.49,48.61 -10.19,5.82 -24.68,7.34 -40.68,7.34 -8.79,0 -18.04,-0.46 -27.3,-0.92 -9.25,-0.46 -18.51,-0.92 -27.3,-0.92 -16.13,0 -30.7,1.54 -40.89,7.47 141.84,69.98 335.79,87.85 538.2,97.23 5.46,20.45 1.05,53.71 -12.96,64.9 -15.69,0.93 -31.6,1.36 -47.59,1.36 -121.89,0 -250.01,-25.08 -347.95,-46.76 -128.9,-28.5 -257.59,-17.29 -301.55,-132.91 25.76,-19.86 78.54,-41.82 122.98,-41.82 20.19,0 38.66,4.53 52.09,15.85 m 633.15,204.62 c -9.06,0 -16.44,-1.67 -17.11,-10.06 -26.83,-80.41 40.3,-99.99 94.04,-126.45 32.37,-15.94 54.51,-44.9 81.05,-55.14 30.98,-11.97 66.65,-15.98 103.73,-15.98 52.16,0 107.1,7.92 155.64,12.73 3.37,17.16 6.32,34.76 6.5,55.14 -7.67,-0.26 -15.28,-0.39 -22.78,-0.39 -162.41,0 -284.62,60.81 -376.03,139.81 -1.98,-0.28 -4.13,-0.38 -6.39,-0.38 -2.99,0 -6.16,0.18 -9.33,0.36 -3.16,0.18 -6.33,0.36 -9.32,0.36 m 46.63,109.9 c -0.71,0 -1.42,0 -2.13,0 -1.96,-0.19 -3.83,-0.5 -3.25,-3.26 -2.51,-0.73 -6.4,-0.08 -6.5,-3.24 -10.49,-104.1 119.12,-152.96 242.31,-152.96 52.9,-0.01 104.59,9 143.54,26.51 6.07,7.32 4.42,34.54 0,42.14 -107.05,47.91 -219.1,90.81 -373.97,90.81 m 2727.51,678.44 c -10.55,0 -20.5,-2.18 -25.6,-7.33 -7.61,-153.33 17.66,-304.76 9.72,-460.37 47.39,122.29 34.79,304.59 51.89,457.16 -5.47,6.31 -21.32,10.54 -36.01,10.54 M 5790.6,4423.11 c -13.64,0 -27.94,-6.17 -33.99,-17.69 32.76,-27.71 60.42,-60.66 103.8,-77.83 -0.43,25.59 -5.99,45.95 -9.76,68.11 -9.74,0 -19.46,0 -29.17,0 0.52,18.74 -14.71,27.41 -30.88,27.41 m -14.3,63.38 c 9.29,0 17.99,-0.91 25.71,-3.24 20.32,-6.14 34.3,-14.27 48.11,-14.27 10.23,0 20.37,4.46 32.94,17.49 -4.63,73.82 37.06,101.31 81.05,126.45 -87.46,39.79 -71.37,183.68 -90.77,285.33 -48.89,-85.28 -141.59,-158.14 -184.82,-252.9 -16.61,-36.51 -14.71,-84.67 -55.11,-94.05 -18.08,-62.21 2.44,-77.02 36.34,-77.02 15.4,0 33.54,3.05 52.09,6.11 18.55,3.05 37.49,6.1 54.46,6.1 m -791.33,110.21 c -2.54,-54.53 43.38,-88.34 81.06,-113.45 -9.48,55.39 -35.56,94.14 -81.06,113.45 m 1282.95,-16.19 c -18.07,0 -37.21,-29.2 -18.48,-48.64 1.2,-0.08 2.36,-0.12 3.48,-0.12 22.64,0 28.75,16.55 32.21,35.77 -4.41,9.26 -10.74,12.99 -17.21,12.99 M 4745.6,4815.68 c -5.09,0 -8.72,-2.44 -10.28,-8.2 -7.77,-28.78 44.16,-75.2 85.17,-75.2 10.57,0 20.41,3.08 28.32,10.34 -15.43,11.05 -77.6,73.06 -103.21,73.06 m 64.01,168.29 c -18.15,0 -35.2,-3.45 -48.35,-11.13 5.58,-20.88 2.14,-40.25 -3.28,-58.4 34.91,-27.77 73.72,-51.65 110.29,-77.8 4.07,39.23 56.12,41.32 58.34,74.55 2.72,41.25 -62.14,72.78 -117,72.78 m 398.95,180.31 c -1.12,0 -2.16,-0.06 -3.12,-0.19 31.33,-17.26 42.46,-54.75 87.55,-58.34 4.69,7.21 8.15,15.64 6.46,29.19 -26.28,9.09 -70.65,29.34 -90.89,29.34 m 883.57,12 c -5.97,0 -10.91,-3.27 -11.29,-12.19 3.68,-9.29 13.92,-12.01 25.97,-12.94 0.03,6.44 8.82,4.12 6.46,12.94 -2.95,6.11 -13,12.19 -21.14,12.19"
             style="fill:url(#radialGradient168);fill-opacity:1;fill-rule:nonzero;stroke:none"
             id="path170" /></g></g></g></g></svg>
